<?xml version="1.0" encoding="UTF-8" standalone="no"?>
<!DOCTYPE svg PUBLIC "-//W3C//DTD SVG 1.1//EN"
 "http://www.w3.org/Graphics/SVG/1.1/DTD/svg11.dtd">
<!-- Generated by graphviz version 2.38.0 (20140413.2041)
 -->
<!-- Title: How to E&#45;mail Justin Pages: 1 -->
<svg width="1393pt" height="1854pt"
 viewBox="0.00 0.00 1393.00 1853.64" xmlns="http://www.w3.org/2000/svg" xmlns:xlink="http://www.w3.org/1999/xlink">
<g id="graph0" class="graph" transform="scale(1 1) rotate(0) translate(4 1849.64)">
<title>How to E&#45;mail Justin</title>
<polygon fill="#fffacd" stroke="none" points="-4,4 -4,-1849.64 1389,-1849.64 1389,4 -4,4"/>
<!-- green_anchor -->
<g id="node1" class="node"><title>green_anchor</title>
<ellipse fill="black" stroke="black" cx="424" cy="-1432.32" rx="0.36" ry="0.36"/>
</g>
<!-- crypto_mua_br -->
<g id="node10" class="node"><title>crypto_mua_br</title>
<g id="a_node10"><a xlink:title="Ideally yes; mail clients are more secure than webmail and more convenient for both parties.">
<path fill="wheat" stroke="black" d="M412.224,-1312.69C412.224,-1312.69 241.776,-1279.31 241.776,-1279.31 235.888,-1278.15 235.888,-1275.85 241.776,-1274.69 241.776,-1274.69 412.224,-1241.31 412.224,-1241.31 418.112,-1240.15 429.888,-1240.15 435.776,-1241.31 435.776,-1241.31 606.224,-1274.69 606.224,-1274.69 612.112,-1275.85 612.112,-1278.15 606.224,-1279.31 606.224,-1279.31 435.776,-1312.69 435.776,-1312.69 429.888,-1313.85 418.112,-1313.85 412.224,-1312.69"/>
<text text-anchor="start" x="346.5" y="-1280.8" font-family="Times,serif" font-size="14.00">Are you using a proper PGP</text>
<text text-anchor="start" x="335" y="-1265.8" font-family="Times,serif" font-size="14.00">or S/MIME capable mail client?</text>
</a>
</g>
</g>
<!-- green_anchor&#45;&gt;crypto_mua_br -->
<g id="edge5" class="edge"><title>green_anchor&#45;&gt;crypto_mua_br</title>
<path fill="none" stroke="green" d="M424,-1431.21C424,-1428.31 424,-1369.41 424,-1325.5"/>
<polygon fill="green" stroke="green" points="427.5,-1325.27 424,-1315.27 420.5,-1325.27 427.5,-1325.27"/>
</g>
<!-- crypto_ea -->
<g id="node2" class="node"><title>crypto_ea</title>
<g id="a_node2"><a xlink:title="The different addresses help Justin filter and reduce impact on others if one address is attacked, but there is no difference as far as spam scoring. &#160;The rasterized script font is to mitigate OCR&#45;capable bot&#45;executed address harvesting (to some extent).">
<polygon fill="none" stroke="black" points="1137,-362 679,-362 679,-213 1137,-213 1137,-362"/>
<image xlink:href="https://alchemistanaut.github.io/images/node_email_addresses.png" width="458px" height="149px" preserveAspectRatio="xMinYMin meet" x="679" y="-362"/>
</a>
</g>
</g>
<!-- celebrate -->
<g id="node24" class="node"><title>celebrate</title>
<g id="a_node24"><a xlink:title="yay!">
<polygon fill="powderblue" stroke="black" points="940.5,-175 875.5,-175 875.5,-139 940.5,-139 940.5,-175"/>
<polyline fill="none" stroke="black" points="887.5,-175 875.5,-163 "/>
<polyline fill="none" stroke="black" points="875.5,-151 887.5,-139 "/>
<polyline fill="none" stroke="black" points="928.5,-139 940.5,-151 "/>
<polyline fill="none" stroke="black" points="940.5,-163 928.5,-175 "/>
<text text-anchor="middle" x="908" y="-153.3" font-family="Times,serif" font-size="14.00">celebrate</text>
</a>
</g>
</g>
<!-- crypto_ea&#45;&gt;celebrate -->
<g id="edge30" class="edge"><title>crypto_ea&#45;&gt;celebrate</title>
<path fill="none" stroke="green" d="M908,-212.868C908,-203.043 908,-193.516 908,-185.235"/>
<polygon fill="green" stroke="green" points="911.5,-185.145 908,-175.145 904.5,-185.145 911.5,-185.145"/>
</g>
<!-- web_ea -->
<g id="node3" class="node"><title>web_ea</title>
<g id="a_node3"><a xlink:title="The hushmail address us useable until Dec.31, 2018. &#160;The script font in this node is to mitigate OCR&#45;capable bot&#45;executed address harvesting (to some extent).">
<polygon fill="none" stroke="black" points="661,-336.5 223,-336.5 223,-238.5 661,-238.5 661,-336.5"/>
<image xlink:href="https://alchemistanaut.github.io/images/node_webmail_addresses.png" width="438px" height="98px" preserveAspectRatio="xMinYMin meet" x="223" y="-336.5"/>
</a>
</g>
</g>
<!-- webnote -->
<g id="node5" class="node"><title>webnote</title>
<g id="a_node5"><a xlink:title="All gombos.info accounts are checked daily. &#160;The other two require Justin to do a manual web login. &#160;Protonmail have daily notifications, so Justin&#39;s response time is ~2 days. &#160;Tutanota does not, it could take ~2&#45;3 weeks before a msg is spotted.">
<polygon fill="#eeee00" stroke="black" points="538,-176 340,-176 340,-138 544,-138 544,-170 538,-176"/>
<polyline fill="none" stroke="black" points="538,-176 538,-170 "/>
<polyline fill="none" stroke="black" points="544,-170 538,-170 "/>
<text text-anchor="start" x="348" y="-160.8" font-family="Times,serif" font-size="14.00">Note: expect a slow response time</text>
<text text-anchor="start" x="348" y="-145.8" font-family="Times,serif" font-size="14.00">for protonmail or tutanota.</text>
</a>
</g>
</g>
<!-- web_ea&#45;&gt;webnote -->
<g id="edge23" class="edge"><title>web_ea&#45;&gt;webnote</title>
<path fill="none" stroke="black" stroke-dasharray="1,5" d="M442,-238.286C442,-216.636 442,-192.392 442,-176.266"/>
</g>
<!-- web_ea&#45;&gt;celebrate -->
<g id="edge24" class="edge"><title>web_ea&#45;&gt;celebrate</title>
<path fill="none" stroke="black" d="M584.655,-238.466C612.813,-229.565 642.239,-220.668 670,-213 737.789,-194.277 817.623,-176.732 865.451,-166.695"/>
<polygon fill="black" stroke="black" points="866.371,-170.078 875.445,-164.609 864.941,-163.226 866.371,-170.078"/>
</g>
<!-- greennote -->
<g id="node4" class="node"><title>greennote</title>
<g id="a_node4"><a xlink:title="The quickest one&#45;off msg approach is to use keybase, but you won&#39;t have a readable saved copy of what you sent.">
<polygon fill="#eeee00" stroke="black" points="488.5,-1654.64 249.5,-1654.64 249.5,-1586.64 494.5,-1586.64 494.5,-1648.64 488.5,-1654.64"/>
<polyline fill="none" stroke="black" points="488.5,-1654.64 488.5,-1648.64 "/>
<polyline fill="none" stroke="black" points="494.5,-1648.64 488.5,-1648.64 "/>
<text text-anchor="start" x="257.5" y="-1639.44" font-family="Times,serif" font-size="14.00">Note: the green path through this diagram</text>
<text text-anchor="start" x="257.5" y="-1624.44" font-family="Times,serif" font-size="14.00">indicates the most convenient for regular</text>
<text text-anchor="start" x="257.5" y="-1609.44" font-family="Times,serif" font-size="14.00">long&#45;term sustained correspondence,</text>
<text text-anchor="start" x="257.5" y="-1594.44" font-family="Times,serif" font-size="14.00">at the cost of higher initial setup effort.</text>
</a>
</g>
</g>
<!-- greennote&#45;&gt;green_anchor -->
<g id="edge6" class="edge"><title>greennote&#45;&gt;green_anchor</title>
<path fill="none" stroke="black" stroke-dasharray="1,5" d="M381.297,-1586.33C396.02,-1533.58 423.136,-1436.42 423.98,-1433.39"/>
</g>
<!-- muanote -->
<g id="node6" class="node"><title>muanote</title>
<g id="a_node6"><a xlink:show="new" xlink:href="https://en.wikipedia.org/wiki/Comparison_of_e-mail_clients#General_features" xlink:title="Clicking this node goes to a wiki showing a table of MUAs with columns indicating S/MIME and PGP support">
<polygon fill="#eeee00" stroke="black" points="389.5,-1177 186.5,-1177 186.5,-923 395.5,-923 395.5,-1171 389.5,-1177"/>
<polyline fill="none" stroke="black" points="389.5,-1177 389.5,-1171 "/>
<polyline fill="none" stroke="black" points="395.5,-1171 389.5,-1171 "/>
<image xlink:href="https://alchemistanaut.github.io/images/node_muas.png" width="209px" height="254px" preserveAspectRatio="xMinYMin meet" x="186.5" y="-1177"/>
</a>
</g>
</g>
<!-- pgpnote -->
<g id="node7" class="node"><title>pgpnote</title>
<g id="a_node7"><a xlink:title="PGP key generation is a simple process.">
<polygon fill="#eeee00" stroke="black" points="668.5,-767 543.5,-767 543.5,-669 674.5,-669 674.5,-761 668.5,-767"/>
<polyline fill="none" stroke="black" points="668.5,-767 668.5,-761 "/>
<polyline fill="none" stroke="black" points="674.5,-761 668.5,-761 "/>
<text text-anchor="start" x="551.5" y="-751.8" font-family="Times,serif" font-size="14.00">PGP users: once you</text>
<text text-anchor="start" x="551.5" y="-736.8" font-family="Times,serif" font-size="14.00">have a key pair, you</text>
<text text-anchor="start" x="551.5" y="-721.8" font-family="Times,serif" font-size="14.00">can send your public</text>
<text text-anchor="start" x="551.5" y="-706.8" font-family="Times,serif" font-size="14.00">key as an attachment</text>
<text text-anchor="start" x="551.5" y="-691.8" font-family="Times,serif" font-size="14.00">or publish it on a</text>
<text text-anchor="start" x="551.5" y="-676.8" font-family="Times,serif" font-size="14.00">keyserver.</text>
</a>
</g>
</g>
<!-- smimenote -->
<g id="node8" class="node"><title>smimenote</title>
<g id="a_node8"><a xlink:title="S/MIME key generation is a little more tedious, although it&#39;s easy to send your public key.">
<polygon fill="#eeee00" stroke="black" points="881.5,-752 692.5,-752 692.5,-684 887.5,-684 887.5,-746 881.5,-752"/>
<polyline fill="none" stroke="black" points="881.5,-752 881.5,-746 "/>
<polyline fill="none" stroke="black" points="887.5,-746 881.5,-746 "/>
<text text-anchor="start" x="700.5" y="-736.8" font-family="Times,serif" font-size="14.00">S/MIME users: once you have</text>
<text text-anchor="start" x="700.5" y="-721.8" font-family="Times,serif" font-size="14.00">a key pair, simply signing your</text>
<text text-anchor="start" x="700.5" y="-706.8" font-family="Times,serif" font-size="14.00">first msg will automatically</text>
<text text-anchor="start" x="700.5" y="-691.8" font-family="Times,serif" font-size="14.00">supply your public key to Justin.</text>
</a>
</g>
</g>
<!-- directsend_br -->
<g id="node9" class="node"><title>directsend_br</title>
<g id="a_node9"><a xlink:title="hopefully yes">
<path fill="wheat" stroke="black" d="M719.544,-1685.07C719.544,-1685.07 524.456,-1624.21 524.456,-1624.21 518.728,-1622.43 518.728,-1618.85 524.456,-1617.07 524.456,-1617.07 719.544,-1556.21 719.544,-1556.21 725.272,-1554.43 736.728,-1554.43 742.456,-1556.21 742.456,-1556.21 937.544,-1617.07 937.544,-1617.07 943.272,-1618.85 943.272,-1622.43 937.544,-1624.21 937.544,-1624.21 742.456,-1685.07 742.456,-1685.07 736.728,-1686.85 725.272,-1686.85 719.544,-1685.07"/>
<text text-anchor="start" x="662" y="-1639.44" font-family="Times,serif" font-size="14.00">Are you writing a typical</text>
<text text-anchor="start" x="662" y="-1624.44" font-family="Times,serif" font-size="14.00">human&#45;generated e&#45;mail,</text>
<text text-anchor="start" x="630" y="-1609.44" font-family="Times,serif" font-size="14.00">sent from a mail client or web&#45;based</text>
<text text-anchor="start" x="661.5" y="-1594.44" font-family="Times,serif" font-size="14.00">dedicated e&#45;mail service?</text>
</a>
</g>
</g>
<!-- directsend_br&#45;&gt;green_anchor -->
<g id="edge3" class="edge"><title>directsend_br&#45;&gt;green_anchor</title>
<path fill="none" stroke="green" d="M657.856,-1575.25C568.47,-1521 428.458,-1436.03 424.104,-1433.38"/>
<text text-anchor="middle" x="598" y="-1523.44" font-family="Times,serif" font-size="14.00" fill="green">Yes</text>
</g>
<!-- sharing -->
<g id="node18" class="node"><title>sharing</title>
<g id="a_node18"><a xlink:title="Sharing? &#160;yikes!">
<path fill="lavenderblush" stroke="black" d="M929.067,-1363.41C929.067,-1363.41 937.882,-1363.71 937.882,-1363.71 938.473,-1363.73 939.654,-1363.78 940.245,-1363.81 940.245,-1363.81 948.946,-1364.25 948.946,-1364.25 949.536,-1364.28 950.717,-1364.35 951.307,-1364.4 951.307,-1364.4 959.85,-1364.99 959.85,-1364.99 960.44,-1365.03 961.619,-1365.12 962.208,-1365.17 962.208,-1365.17 970.549,-1365.9 970.549,-1365.9 971.138,-1365.95 972.315,-1366.07 972.903,-1366.13 972.903,-1366.13 981.001,-1367 981.001,-1367 981.589,-1367.06 982.764,-1367.2 983.35,-1367.27 983.35,-1367.27 991.165,-1368.27 991.165,-1368.27 991.751,-1368.35 992.923,-1368.51 993.507,-1368.6 993.507,-1368.6 1001,-1369.72 1001,-1369.72 1001.59,-1369.81 1002.75,-1369.99 1003.34,-1370.1 1003.34,-1370.1 1010.47,-1371.33 1010.47,-1371.33 1011.05,-1371.44 1012.22,-1371.65 1012.8,-1371.77 1012.8,-1371.77 1019.54,-1373.12 1019.54,-1373.12 1020.12,-1373.23 1021.28,-1373.48 1021.85,-1373.61 1021.85,-1373.61 1028.18,-1375.06 1028.18,-1375.06 1028.76,-1375.19 1029.9,-1375.47 1030.48,-1375.62 1030.48,-1375.62 1036.36,-1377.15 1036.36,-1377.15 1036.93,-1377.3 1038.07,-1377.62 1038.63,-1377.78 1038.63,-1377.78 1044.04,-1379.39 1044.04,-1379.39 1044.61,-1379.56 1045.74,-1379.92 1046.3,-1380.11 1046.3,-1380.11 1051.22,-1381.77 1051.22,-1381.77 1051.78,-1381.96 1052.89,-1382.36 1053.44,-1382.58 1053.44,-1382.58 1057.86,-1384.28 1057.86,-1384.28 1058.41,-1384.5 1059.5,-1384.95 1060.04,-1385.19 1060.04,-1385.19 1063.95,-1386.92 1063.95,-1386.92 1064.49,-1387.16 1065.56,-1387.67 1066.08,-1387.94 1066.08,-1387.94 1069.48,-1389.68 1069.48,-1389.68 1070,-1389.95 1071.04,-1390.52 1071.55,-1390.82 1071.55,-1390.82 1074.43,-1392.54 1074.43,-1392.54 1074.94,-1392.84 1075.93,-1393.48 1076.42,-1393.82 1076.42,-1393.82 1078.81,-1395.5 1078.81,-1395.5 1079.29,-1395.84 1080.23,-1396.56 1080.68,-1396.94 1080.68,-1396.94 1082.6,-1398.56 1082.6,-1398.56 1083.06,-1398.94 1083.92,-1399.74 1084.33,-1400.17 1084.33,-1400.17 1085.82,-1401.7 1085.82,-1401.7 1086.23,-1402.12 1087,-1403.01 1087.36,-1403.48 1087.36,-1403.48 1088.46,-1404.91 1088.46,-1404.91 1088.82,-1405.38 1089.48,-1406.36 1089.77,-1406.88 1089.77,-1406.88 1090.53,-1408.21 1090.53,-1408.21 1090.83,-1408.72 1091.34,-1409.78 1091.56,-1410.33 1091.56,-1410.33 1092.05,-1411.58 1092.05,-1411.58 1092.26,-1412.13 1092.61,-1413.25 1092.74,-1413.83 1092.74,-1413.83 1093,-1415.02 1093,-1415.02 1093.13,-1415.6 1093.29,-1416.76 1093.32,-1417.35 1093.32,-1417.35 1093.39,-1418.54 1093.39,-1418.54 1093.43,-1419.13 1093.41,-1420.3 1093.35,-1420.89 1093.35,-1420.89 1093.23,-1422.12 1093.23,-1422.12 1093.18,-1422.7 1092.98,-1423.87 1092.84,-1424.44 1092.84,-1424.44 1092.52,-1425.74 1092.52,-1425.74 1092.38,-1426.32 1092.02,-1427.44 1091.81,-1428 1091.81,-1428 1091.26,-1429.41 1091.26,-1429.41 1091.05,-1429.96 1090.56,-1431.03 1090.28,-1431.56 1090.28,-1431.56 1089.48,-1433.08 1089.48,-1433.08 1089.21,-1433.61 1088.6,-1434.62 1088.28,-1435.12 1088.28,-1435.12 1087.2,-1436.76 1087.2,-1436.76 1086.87,-1437.25 1086.18,-1438.21 1085.81,-1438.68 1085.81,-1438.68 1084.44,-1440.42 1084.44,-1440.42 1084.07,-1440.88 1083.31,-1441.78 1082.91,-1442.22 1082.91,-1442.22 1081.23,-1444.05 1081.23,-1444.05 1080.83,-1444.49 1080,-1445.33 1079.58,-1445.74 1079.58,-1445.74 1077.6,-1447.65 1077.6,-1447.65 1077.17,-1448.06 1076.29,-1448.85 1075.85,-1449.24 1075.85,-1449.24 1073.57,-1451.19 1073.57,-1451.19 1073.12,-1451.58 1072.2,-1452.33 1071.74,-1452.69 1071.74,-1452.69 1069.17,-1454.68 1069.17,-1454.68 1068.7,-1455.05 1067.75,-1455.75 1067.27,-1456.09 1067.27,-1456.09 1064.43,-1458.1 1064.43,-1458.1 1063.95,-1458.45 1062.97,-1459.11 1062.47,-1459.43 1062.47,-1459.43 1059.37,-1461.45 1059.37,-1461.45 1058.87,-1461.77 1057.87,-1462.4 1057.36,-1462.71 1057.36,-1462.71 1054.02,-1464.71 1054.02,-1464.71 1053.51,-1465.02 1052.49,-1465.61 1051.97,-1465.9 1051.97,-1465.9 1048.4,-1467.88 1048.4,-1467.88 1047.89,-1468.17 1046.85,-1468.73 1046.32,-1469 1046.32,-1469 1042.54,-1470.95 1042.54,-1470.95 1042.02,-1471.22 1040.96,-1471.75 1040.43,-1472.01 1040.43,-1472.01 1036.47,-1473.91 1036.47,-1473.91 1035.93,-1474.17 1034.86,-1474.67 1034.32,-1474.91 1034.32,-1474.91 1030.19,-1476.76 1030.19,-1476.76 1029.65,-1477 1028.56,-1477.47 1028.02,-1477.69 1028.02,-1477.69 1023.73,-1479.48 1023.73,-1479.48 1023.19,-1479.7 1022.09,-1480.14 1021.54,-1480.36 1021.54,-1480.36 1017.12,-1482.06 1017.12,-1482.06 1016.57,-1482.28 1015.46,-1482.69 1014.9,-1482.89 1014.9,-1482.89 1010.37,-1484.51 1010.37,-1484.51 1009.81,-1484.71 1008.69,-1485.1 1008.13,-1485.29 1008.13,-1485.29 1003.49,-1486.82 1003.49,-1486.82 1002.93,-1487.01 1001.8,-1487.36 1001.24,-1487.54 1001.24,-1487.54 996.508,-1488.98 996.508,-1488.98 995.943,-1489.15 994.807,-1489.48 994.238,-1489.64 994.238,-1489.64 989.433,-1490.98 989.433,-1490.98 988.864,-1491.13 987.721,-1491.44 987.148,-1491.58 987.148,-1491.58 982.279,-1492.81 982.279,-1492.81 981.706,-1492.96 980.556,-1493.23 979.979,-1493.37 979.979,-1493.37 975.057,-1494.48 975.057,-1494.48 974.481,-1494.62 973.325,-1494.86 972.745,-1494.98 972.745,-1494.98 967.779,-1495.99 967.779,-1495.99 967.199,-1496.1 966.037,-1496.32 965.455,-1496.43 965.455,-1496.43 960.453,-1497.31 960.453,-1497.31 959.87,-1497.41 958.703,-1497.61 958.119,-1497.7 958.119,-1497.7 953.087,-1498.46 953.087,-1498.46 952.503,-1498.55 951.331,-1498.71 950.745,-1498.79 950.745,-1498.79 945.691,-1499.43 945.691,-1499.43 945.104,-1499.5 943.929,-1499.63 943.341,-1499.69 943.341,-1499.69 938.269,-1500.21 938.269,-1500.21 937.681,-1500.27 936.503,-1500.37 935.913,-1500.42 935.913,-1500.42 930.829,-1500.8 930.829,-1500.8 930.24,-1500.85 929.059,-1500.92 928.469,-1500.95 928.469,-1500.95 923.376,-1501.21 923.376,-1501.21 922.785,-1501.24 921.604,-1501.29 921.013,-1501.3 921.013,-1501.3 915.915,-1501.43 915.915,-1501.43 915.324,-1501.45 914.141,-1501.46 913.55,-1501.46 913.55,-1501.46 908.45,-1501.46 908.45,-1501.46 907.859,-1501.46 906.676,-1501.45 906.085,-1501.43 906.085,-1501.43 900.987,-1501.3 900.987,-1501.3 900.396,-1501.29 899.215,-1501.24 898.624,-1501.21 898.624,-1501.21 893.531,-1500.95 893.531,-1500.95 892.941,-1500.92 891.76,-1500.85 891.171,-1500.8 891.171,-1500.8 886.087,-1500.42 886.087,-1500.42 885.497,-1500.37 884.319,-1500.27 883.731,-1500.21 883.731,-1500.21 878.659,-1499.69 878.659,-1499.69 878.071,-1499.63 876.896,-1499.5 876.309,-1499.43 876.309,-1499.43 871.255,-1498.79 871.255,-1498.79 870.669,-1498.71 869.497,-1498.55 868.913,-1498.46 868.913,-1498.46 863.881,-1497.7 863.881,-1497.7 863.297,-1497.61 862.13,-1497.41 861.547,-1497.31 861.547,-1497.31 856.545,-1496.43 856.545,-1496.43 855.963,-1496.32 854.801,-1496.1 854.221,-1495.99 854.221,-1495.99 849.255,-1494.98 849.255,-1494.98 848.675,-1494.86 847.519,-1494.62 846.943,-1494.48 846.943,-1494.48 842.021,-1493.37 842.021,-1493.37 841.444,-1493.23 840.294,-1492.96 839.721,-1492.81 839.721,-1492.81 834.852,-1491.58 834.852,-1491.58 834.279,-1491.44 833.136,-1491.13 832.567,-1490.98 832.567,-1490.98 827.762,-1489.64 827.762,-1489.64 827.193,-1489.48 826.057,-1489.15 825.492,-1488.98 825.492,-1488.98 820.764,-1487.54 820.764,-1487.54 820.198,-1487.36 819.071,-1487.01 818.509,-1486.82 818.509,-1486.82 813.87,-1485.29 813.87,-1485.29 813.309,-1485.1 812.191,-1484.71 811.634,-1484.51 811.634,-1484.51 807.098,-1482.89 807.098,-1482.89 806.541,-1482.69 805.433,-1482.28 804.881,-1482.06 804.881,-1482.06 800.463,-1480.36 800.463,-1480.36 799.911,-1480.14 798.814,-1479.7 798.268,-1479.48 798.268,-1479.48 793.984,-1477.69 793.984,-1477.69 793.438,-1477.47 792.352,-1477 791.813,-1476.76 791.813,-1476.76 787.68,-1474.91 787.68,-1474.91 787.141,-1474.67 786.068,-1474.17 785.535,-1473.91 785.535,-1473.91 781.572,-1472.01 781.572,-1472.01 781.039,-1471.75 779.981,-1471.22 779.455,-1470.95 779.455,-1470.95 775.68,-1469 775.68,-1469 775.155,-1468.73 774.113,-1468.17 773.596,-1467.88 773.596,-1467.88 770.027,-1465.9 770.027,-1465.9 769.51,-1465.61 768.486,-1465.02 767.979,-1464.71 767.979,-1464.71 764.635,-1462.71 764.635,-1462.71 764.128,-1462.4 763.126,-1461.77 762.63,-1461.45 762.63,-1461.45 759.528,-1459.43 759.528,-1459.43 759.033,-1459.11 758.055,-1458.45 757.572,-1458.1 757.572,-1458.1 754.73,-1456.09 754.73,-1456.09 754.248,-1455.75 753.298,-1455.05 752.831,-1454.68 752.831,-1454.68 750.264,-1452.69 750.264,-1452.69 749.797,-1452.33 748.882,-1451.58 748.433,-1451.19 748.433,-1451.19 746.154,-1449.24 746.154,-1449.24 745.706,-1448.85 744.831,-1448.06 744.404,-1447.65 744.404,-1447.65 742.423,-1445.74 742.423,-1445.74 741.997,-1445.33 741.171,-1444.49 740.771,-1444.05 740.771,-1444.05 739.093,-1442.22 739.093,-1442.22 738.694,-1441.78 737.928,-1440.88 737.562,-1440.42 737.562,-1440.42 736.186,-1438.68 736.186,-1438.68 735.82,-1438.21 735.128,-1437.25 734.802,-1436.76 734.802,-1436.76 733.721,-1435.12 733.721,-1435.12 733.395,-1434.62 732.795,-1433.61 732.52,-1433.08 732.52,-1433.08 731.717,-1431.56 731.717,-1431.56 731.441,-1431.03 730.952,-1429.96 730.739,-1429.41 730.739,-1429.41 730.191,-1428 730.191,-1428 729.977,-1427.44 729.623,-1426.32 729.482,-1425.74 729.482,-1425.74 729.162,-1424.44 729.162,-1424.44 729.022,-1423.87 728.824,-1422.7 728.767,-1422.12 728.767,-1422.12 728.65,-1420.89 728.65,-1420.89 728.593,-1420.3 728.571,-1419.13 728.606,-1418.54 728.606,-1418.54 728.675,-1417.35 728.675,-1417.35 728.71,-1416.76 728.873,-1415.6 729.001,-1415.02 729.001,-1415.02 729.265,-1413.83 729.265,-1413.83 729.393,-1413.25 729.738,-1412.13 729.954,-1411.58 729.954,-1411.58 730.443,-1410.33 730.443,-1410.33 730.66,-1409.78 731.171,-1408.72 731.465,-1408.21 731.465,-1408.21 732.23,-1406.88 732.23,-1406.88 732.524,-1406.36 733.179,-1405.38 733.539,-1404.91 733.539,-1404.91 734.636,-1403.48 734.636,-1403.48 734.996,-1403.01 735.768,-1402.12 736.18,-1401.7 736.18,-1401.7 737.666,-1400.17 737.666,-1400.17 738.078,-1399.74 738.943,-1398.94 739.395,-1398.56 739.395,-1398.56 741.317,-1396.94 741.317,-1396.94 741.77,-1396.56 742.706,-1395.84 743.19,-1395.5 743.19,-1395.5 745.582,-1393.82 745.582,-1393.82 746.066,-1393.48 747.059,-1392.84 747.567,-1392.54 747.567,-1392.54 750.453,-1390.82 750.453,-1390.82 750.961,-1390.52 751.995,-1389.95 752.522,-1389.68 752.522,-1389.68 755.916,-1387.94 755.916,-1387.94 756.442,-1387.67 757.509,-1387.16 758.05,-1386.92 758.05,-1386.92 761.957,-1385.19 761.957,-1385.19 762.498,-1384.95 763.59,-1384.5 764.142,-1384.28 764.142,-1384.28 768.56,-1382.58 768.56,-1382.58 769.111,-1382.36 770.223,-1381.96 770.783,-1381.77 770.783,-1381.77 775.704,-1380.11 775.704,-1380.11 776.264,-1379.92 777.391,-1379.56 777.958,-1379.39 777.958,-1379.39 783.367,-1377.78 783.367,-1377.78 783.933,-1377.62 785.073,-1377.3 785.645,-1377.15 785.645,-1377.15 791.523,-1375.62 791.523,-1375.62 792.095,-1375.47 793.244,-1375.19 793.821,-1375.06 793.821,-1375.06 800.146,-1373.61 800.146,-1373.61 800.722,-1373.48 801.879,-1373.23 802.459,-1373.12 802.459,-1373.12 809.204,-1371.77 809.204,-1371.77 809.784,-1371.65 810.947,-1371.44 811.529,-1371.33 811.529,-1371.33 818.665,-1370.1 818.665,-1370.1 819.247,-1369.99 820.415,-1369.81 821,-1369.72 821,-1369.72 828.493,-1368.6 828.493,-1368.6 829.077,-1368.51 830.249,-1368.35 830.835,-1368.27 830.835,-1368.27 838.65,-1367.27 838.65,-1367.27 839.236,-1367.2 840.411,-1367.06 840.999,-1367 840.999,-1367 849.097,-1366.13 849.097,-1366.13 849.685,-1366.07 850.862,-1365.95 851.451,-1365.9 851.451,-1365.9 859.792,-1365.17 859.792,-1365.17 860.381,-1365.12 861.56,-1365.03 862.15,-1364.99 862.15,-1364.99 870.693,-1364.4 870.693,-1364.4 871.283,-1364.35 872.464,-1364.28 873.054,-1364.25 873.054,-1364.25 881.755,-1363.81 881.755,-1363.81 882.346,-1363.78 883.527,-1363.73 884.118,-1363.71 884.118,-1363.71 892.933,-1363.41 892.933,-1363.41 893.524,-1363.39 894.707,-1363.36 895.298,-1363.35 895.298,-1363.35 904.182,-1363.2 904.182,-1363.2 904.773,-1363.19 905.955,-1363.18 906.547,-1363.18 906.547,-1363.18 915.453,-1363.18 915.453,-1363.18 916.045,-1363.18 917.227,-1363.19 917.818,-1363.2 917.818,-1363.2 926.702,-1363.35 926.702,-1363.35 927.293,-1363.36 928.476,-1363.39 929.067,-1363.41"/>
<text text-anchor="start" x="797.917" y="-1466.12" font-family="Times,serif" font-size="14.00">You are probably:</text>
<text text-anchor="start" x="797.917" y="-1451.12" font-family="Times,serif" font-size="14.00">*sending a social networking invitation</text>
<text text-anchor="start" x="797.917" y="-1436.12" font-family="Times,serif" font-size="14.00">*sending an event scheduler poll</text>
<text text-anchor="start" x="797.917" y="-1421.12" font-family="Times,serif" font-size="14.00">*sending a greeting card</text>
<text text-anchor="start" x="797.917" y="-1406.12" font-family="Times,serif" font-size="14.00">*or feeding his address to an information</text>
<text text-anchor="end" x="1024.08" y="-1391.12" font-family="Times,serif" font-size="14.00"> harvesting system of some kind</text>
</a>
</g>
</g>
<!-- directsend_br&#45;&gt;sharing -->
<g id="edge2" class="edge"><title>directsend_br&#45;&gt;sharing</title>
<path fill="none" stroke="black" d="M781.14,-1567.74C800.58,-1547.62 823.128,-1524.28 843.927,-1502.75"/>
<polygon fill="black" stroke="black" points="846.475,-1505.15 850.906,-1495.52 841.441,-1500.28 846.475,-1505.15"/>
<text text-anchor="middle" x="834.5" y="-1523.44" font-family="Times,serif" font-size="14.00">No</text>
</g>
<!-- crypto_mua_br&#45;&gt;muanote -->
<g id="edge10" class="edge"><title>crypto_mua_br&#45;&gt;muanote</title>
<path fill="none" stroke="black" stroke-dasharray="1,5" d="M404.375,-1242.8C393.753,-1224.83 379.885,-1201.37 365.51,-1177.05"/>
</g>
<!-- webmail_br -->
<g id="node14" class="node"><title>webmail_br</title>
<g id="a_node14"><a xlink:title="These webmail services are relatively safe compared to other webmail services, but still 2nd to using a proper mail client">
<path fill="wheat" stroke="black" d="M251.124,-754.278C251.124,-754.278 12.8757,-719.722 12.8757,-719.722 6.93787,-718.861 6.93787,-717.139 12.8757,-716.278 12.8757,-716.278 251.124,-681.722 251.124,-681.722 257.062,-680.861 268.938,-680.861 274.876,-681.722 274.876,-681.722 513.124,-716.278 513.124,-716.278 519.062,-717.139 519.062,-718.861 513.124,-719.722 513.124,-719.722 274.876,-754.278 274.876,-754.278 268.938,-755.139 257.062,-755.139 251.124,-754.278"/>
<text text-anchor="start" x="202.5" y="-721.8" font-family="Times,serif" font-size="14.00">Are you sending from</text>
<text text-anchor="start" x="140" y="-706.8" font-family="Times,serif" font-size="14.00">a hushmail, protonmail, or tutanota account?</text>
</a>
</g>
</g>
<!-- crypto_mua_br&#45;&gt;webmail_br -->
<g id="edge9" class="edge"><title>crypto_mua_br&#45;&gt;webmail_br</title>
<path fill="none" stroke="black" d="M428.248,-1239.7C434.543,-1174.33 441.868,-1033.31 404,-923 382.27,-859.703 334.944,-798.06 301.116,-759.401"/>
<polygon fill="black" stroke="black" points="303.371,-756.667 294.117,-751.508 298.133,-761.312 303.371,-756.667"/>
<text text-anchor="middle" x="405.5" y="-893.8" font-family="Times,serif" font-size="14.00">No</text>
</g>
<!-- reply_br -->
<g id="node15" class="node"><title>reply_br</title>
<g id="a_node15"><a xlink:title="If you&#39;ll need a reply, then Justin will need your key so he can reply securely.">
<path fill="wheat" stroke="black" d="M778.112,-1066.36C778.112,-1066.36 671.347,-1051.64 671.347,-1051.64 665.403,-1050.82 665.403,-1049.18 671.347,-1048.36 671.347,-1048.36 778.112,-1033.64 778.112,-1033.64 784.056,-1032.82 795.944,-1032.82 801.888,-1033.64 801.888,-1033.64 908.653,-1048.36 908.653,-1048.36 914.597,-1049.18 914.597,-1050.82 908.653,-1051.64 908.653,-1051.64 801.888,-1066.36 801.888,-1066.36 795.944,-1067.18 784.056,-1067.18 778.112,-1066.36"/>
<text text-anchor="middle" x="790" y="-1046.3" font-family="Times,serif" font-size="14.00">Will you need a reply?</text>
</a>
</g>
</g>
<!-- crypto_mua_br&#45;&gt;reply_br -->
<g id="edge8" class="edge"><title>crypto_mua_br&#45;&gt;reply_br</title>
<path fill="none" stroke="green" d="M469.984,-1247.73C545.531,-1201.29 693.975,-1110.03 758.645,-1070.28"/>
<polygon fill="green" stroke="green" points="760.512,-1073.24 767.198,-1065.02 756.846,-1067.27 760.512,-1073.24"/>
<text text-anchor="middle" x="564" y="-1198.8" font-family="Times,serif" font-size="14.00" fill="green">Yes</text>
</g>
<!-- attachment_br -->
<g id="node11" class="node"><title>attachment_br</title>
<g id="a_node11"><a xlink:title="If yes, you won&#39;t like the next node.">
<path fill="wheat" stroke="black" d="M236.769,-613.774C236.769,-613.774 158.231,-584.226 158.231,-584.226 152.616,-582.113 152.616,-577.887 158.231,-575.774 158.231,-575.774 236.769,-546.226 236.769,-546.226 242.384,-544.113 253.616,-544.113 259.231,-546.226 259.231,-546.226 337.769,-575.774 337.769,-575.774 343.384,-577.887 343.384,-582.113 337.769,-584.226 337.769,-584.226 259.231,-613.774 259.231,-613.774 253.616,-615.887 242.384,-615.887 236.769,-613.774"/>
<text text-anchor="start" x="205.5" y="-583.8" font-family="Times,serif" font-size="14.00">Do you need to</text>
<text text-anchor="start" x="213" y="-568.8" font-family="Times,serif" font-size="14.00">attach a file?</text>
</a>
</g>
</g>
<!-- keybase -->
<g id="node25" class="node"><title>keybase</title>
<g id="a_node25"><a xlink:show="new" xlink:href="https://keybase.io/encrypt#alchemistanaut" xlink:title="This is quite simple, and you can use your usual mail client or webmail service without any changes. &#160;If you want a reply, Justin will likely respond with a PDF that can be opened using whatever password you supply. &#160;Limitation: there is no way to send Justin a file attachment using this keybase mechanism.">
<path fill="lavenderblush" stroke="black" d="M407.5,-486C407.5,-486 88.5,-486 88.5,-486 82.5,-486 76.5,-480 76.5,-474 76.5,-474 76.5,-430 76.5,-430 76.5,-424 82.5,-418 88.5,-418 88.5,-418 407.5,-418 407.5,-418 413.5,-418 419.5,-424 419.5,-430 419.5,-430 419.5,-474 419.5,-474 419.5,-480 413.5,-486 407.5,-486"/>
<text text-anchor="start" x="84.5" y="-470.8" font-family="Times,serif" font-size="14.00">Click here, or go to keybase.io/encrypt#alchemistanaut,</text>
<text text-anchor="start" x="84.5" y="-455.8" font-family="Times,serif" font-size="14.00">write your message, click &#39;encrypt&#39;, copy&#45;paste the resulting</text>
<text text-anchor="start" x="84.5" y="-440.8" font-family="Times,serif" font-size="14.00">text into a normal msg. (if you need a reply, include a</text>
<text text-anchor="end" x="411.5" y="-425.8" font-family="Times,serif" font-size="14.00">passphrase of your choosing in the msg and remember it)</text>
</a>
</g>
</g>
<!-- attachment_br&#45;&gt;keybase -->
<g id="edge25" class="edge"><title>attachment_br&#45;&gt;keybase</title>
<path fill="none" stroke="black" d="M248,-541.877C248,-527.486 248,-510.914 248,-496.008"/>
<polygon fill="black" stroke="black" points="251.5,-496.002 248,-486.002 244.5,-496.002 251.5,-496.002"/>
<text text-anchor="middle" x="256.5" y="-512.8" font-family="Times,serif" font-size="14.00">No</text>
</g>
<!-- screwed -->
<g id="node26" class="node"><title>screwed</title>
<g id="a_node26"><a xlink:title="You might want to find a different path through the graph.">
<polygon fill="darksalmon" stroke="black" points="98,-175 7.10543e-15,-175 7.10543e-15,-139 98,-139 98,-175"/>
<polyline fill="none" stroke="black" points="12,-175 7.10543e-15,-163 "/>
<polyline fill="none" stroke="black" points="7.10543e-15,-151 12,-139 "/>
<polyline fill="none" stroke="black" points="86,-139 98,-151 "/>
<polyline fill="none" stroke="black" points="98,-163 86,-175 "/>
<text text-anchor="start" x="8" y="-153.3" font-family="Times,serif" font-size="14.00">you&#39;re screwed</text>
</a>
</g>
</g>
<!-- attachment_br&#45;&gt;screwed -->
<g id="edge26" class="edge"><title>attachment_br&#45;&gt;screwed</title>
<g id="a_edge26"><a xlink:title="find a different path">
<path fill="none" stroke="black" d="M184.639,-565.617C143.819,-553.441 93.5748,-531.024 67,-491 2.95215,-394.537 27.9897,-245.561 42.0108,-184.991"/>
<polygon fill="black" stroke="black" points="45.4619,-185.609 44.3955,-175.068 38.6557,-183.973 45.4619,-185.609"/>
</a>
</g>
<text text-anchor="middle" x="42" y="-383.8" font-family="Times,serif" font-size="14.00">Yes</text>
</g>
<!-- problem_br -->
<g id="node12" class="node"><title>problem_br</title>
<g id="a_node12"><a xlink:title="Secure e&#45;mail can be complicated, but Justin will support you.">
<path fill="wheat" stroke="black" d="M1073.12,-173.312C1073.12,-173.312 970.193,-158.688 970.193,-158.688 964.253,-157.844 964.253,-156.156 970.193,-155.312 970.193,-155.312 1073.12,-140.688 1073.12,-140.688 1079.06,-139.844 1090.94,-139.844 1096.88,-140.688 1096.88,-140.688 1199.81,-155.312 1199.81,-155.312 1205.75,-156.156 1205.75,-157.844 1199.81,-158.688 1199.81,-158.688 1096.88,-173.312 1096.88,-173.312 1090.94,-174.156 1079.06,-174.156 1073.12,-173.312"/>
<text text-anchor="middle" x="1085" y="-153.3" font-family="Times,serif" font-size="14.00">Questions? Problems?</text>
</a>
</g>
</g>
<!-- get_support -->
<g id="node27" class="node"><title>get_support</title>
<g id="a_node27"><a xlink:show="new" xlink:href="https://github.com/alchemistanaut/contact/issues" xlink:title="Clicking will bring you to the github issues page, where you can describe your issue. &#160;Note that you&#39;ll need a github account to create an issue, and your entry will be publicly viewable. &#160;Alternatively, you can e&#45;mail support questions to the address herein, in the clear if needed.">
<path fill="lavenderblush" stroke="black" d="M1145,-101C1145,-101 1025,-101 1025,-101 1019,-101 1013,-95 1013,-89 1013,-89 1013,-12 1013,-12 1013,-6 1019,-0 1025,-0 1025,-0 1145,-0 1145,-0 1151,-0 1157,-6 1157,-12 1157,-12 1157,-89 1157,-89 1157,-95 1151,-101 1145,-101"/>
<image xlink:href="https://alchemistanaut.github.io/images/node_item_suprt_ea.png" width="144px" height="48px" preserveAspectRatio="xMinYMin meet" x="1013" y="-74.5"/>
<text text-anchor="start" x="1021" y="-89.8" font-family="Times,serif" font-size="14.00">File a github issue by</text>
<text text-anchor="start" x="1021" y="-74.8" font-family="Times,serif" font-size="14.00">clicking this node, or</text>
<text text-anchor="start" x="1021" y="-59.8" font-family="Times,serif" font-size="14.00">E&#45;mail Justin at:</text>
</a>
</g>
</g>
<!-- problem_br&#45;&gt;get_support -->
<g id="edge32" class="edge"><title>problem_br&#45;&gt;get_support</title>
<path fill="none" stroke="black" d="M1085,-138.744C1085,-131.005 1085,-121.37 1085,-111.355"/>
<polygon fill="black" stroke="black" points="1088.5,-111.268 1085,-101.268 1081.5,-111.268 1088.5,-111.268"/>
</g>
<!-- firsttime_br -->
<g id="node13" class="node"><title>firsttime_br</title>
<g id="a_node13"><a xlink:title="You&#39;ll need to have Justin&#39;s key before sending him a message. &#160;Once you have it, it&#39;s good until it expires (few years generally).">
<path fill="wheat" stroke="black" d="M1133.15,-754.123C1133.15,-754.123 916.852,-719.877 916.852,-719.877 910.926,-718.938 910.926,-717.062 916.852,-716.123 916.852,-716.123 1133.15,-681.877 1133.15,-681.877 1139.07,-680.938 1150.93,-680.938 1156.85,-681.877 1156.85,-681.877 1373.15,-716.123 1373.15,-716.123 1379.07,-717.062 1379.07,-718.938 1373.15,-719.877 1373.15,-719.877 1156.85,-754.123 1156.85,-754.123 1150.93,-755.062 1139.07,-755.062 1133.15,-754.123"/>
<text text-anchor="start" x="1052.5" y="-721.8" font-family="Times,serif" font-size="14.00">Are you e&#45;mailing Justin securely</text>
<text text-anchor="start" x="1033" y="-706.8" font-family="Times,serif" font-size="14.00">for the first time, or has his key expired?</text>
</a>
</g>
</g>
<!-- firsttime_br&#45;&gt;crypto_ea -->
<g id="edge16" class="edge"><title>firsttime_br&#45;&gt;crypto_ea</title>
<path fill="none" stroke="black" d="M1111.04,-685.103C1069.36,-644.082 999.394,-568.809 960,-491 941.338,-454.139 928.991,-410.022 921.033,-372.39"/>
<polygon fill="black" stroke="black" points="924.436,-371.562 919.003,-362.467 917.578,-372.965 924.436,-371.562"/>
<text text-anchor="middle" x="1021" y="-512.8" font-family="Times,serif" font-size="14.00">No (using PGP)</text>
</g>
<!-- keyimportchoice_br -->
<g id="node16" class="node"><title>keyimportchoice_br</title>
<g id="a_node16"><a xlink:title="You can instantly get Justin&#39;s key from the PDF container. &#160;Or you can e&#45;mail him and wait. &#160;Whatever you find more convenient.">
<path fill="wheat" stroke="black" d="M1133.72,-593.919C1133.72,-593.919 1106.52,-584.081 1106.52,-584.081 1100.87,-582.041 1100.87,-577.959 1106.52,-575.919 1106.52,-575.919 1133.72,-566.081 1133.72,-566.081 1139.36,-564.041 1150.64,-564.041 1156.28,-566.081 1156.28,-566.081 1183.48,-575.919 1183.48,-575.919 1189.13,-577.959 1189.13,-582.041 1183.48,-584.081 1183.48,-584.081 1156.28,-593.919 1156.28,-593.919 1150.64,-595.959 1139.36,-595.959 1133.72,-593.919"/>
<text text-anchor="middle" x="1145" y="-576.3" font-family="Times,serif" font-size="14.00">choose</text>
</a>
</g>
</g>
<!-- firsttime_br&#45;&gt;keyimportchoice_br -->
<g id="edge15" class="edge"><title>firsttime_br&#45;&gt;keyimportchoice_br</title>
<g id="a_edge15"><a xlink:title="(using S/MIME or PGP)">
<path fill="none" stroke="black" d="M1145,-679.837C1145,-657.305 1145,-629.04 1145,-608.515"/>
<polygon fill="black" stroke="black" points="1148.5,-608.276 1145,-598.276 1141.5,-608.276 1148.5,-608.276"/>
</a>
</g>
<text text-anchor="middle" x="1156" y="-639.8" font-family="Times,serif" font-size="14.00">Yes</text>
</g>
<!-- ea_forced_ea_short -->
<g id="node21" class="node"><title>ea_forced_ea_short</title>
<g id="a_node21"><a xlink:title="If you don&#39;t know the address associated to the key, it will generally be the address from which Justin sent you the key. &#160;If you took the key from the PDF file, then it&#39;s evident from that file. &#160;PGP users: if you imported Justin&#39;s key from a PGP key server, then you should look at the table of addresses and select the best one. &#160;But note that you may have to configure your mail client to map key to address because Justin&#39;s published PGP keys have a deliberately unusable address.">
<path fill="lavenderblush" stroke="black" d="M1304.5,-306.5C1304.5,-306.5 1167.5,-306.5 1167.5,-306.5 1161.5,-306.5 1155.5,-300.5 1155.5,-294.5 1155.5,-294.5 1155.5,-280.5 1155.5,-280.5 1155.5,-274.5 1161.5,-268.5 1167.5,-268.5 1167.5,-268.5 1304.5,-268.5 1304.5,-268.5 1310.5,-268.5 1316.5,-274.5 1316.5,-280.5 1316.5,-280.5 1316.5,-294.5 1316.5,-294.5 1316.5,-300.5 1310.5,-306.5 1304.5,-306.5"/>
<text text-anchor="start" x="1163.5" y="-291.3" font-family="Times,serif" font-size="14.00">Use the address associated</text>
<text text-anchor="middle" x="1236" y="-276.3" font-family="Times,serif" font-size="14.00">with the key</text>
</a>
</g>
</g>
<!-- firsttime_br&#45;&gt;ea_forced_ea_short -->
<g id="edge17" class="edge"><title>firsttime_br&#45;&gt;ea_forced_ea_short</title>
<path fill="none" stroke="black" d="M1169.9,-683.64C1199.6,-641.414 1247.35,-565.204 1264,-491 1277.83,-429.329 1258.87,-355.465 1246.05,-316.217"/>
<polygon fill="black" stroke="black" points="1249.3,-314.912 1242.78,-306.558 1242.67,-317.152 1249.3,-314.912"/>
<text text-anchor="middle" x="1314" y="-512.8" font-family="Times,serif" font-size="14.00">No (using S/MIME)</text>
</g>
<!-- webmail_br&#45;&gt;web_ea -->
<g id="edge13" class="edge"><title>webmail_br&#45;&gt;web_ea</title>
<path fill="none" stroke="black" d="M297.854,-685.044C316.922,-666.537 340.214,-642.177 358,-618 396.193,-566.085 409.793,-552.826 428,-491 441.903,-443.787 444.803,-387.817 444.568,-346.698"/>
<polygon fill="black" stroke="black" points="448.066,-346.535 444.445,-336.578 441.067,-346.62 448.066,-346.535"/>
<text text-anchor="middle" x="434" y="-512.8" font-family="Times,serif" font-size="14.00">Yes</text>
</g>
<!-- webmail_br&#45;&gt;attachment_br -->
<g id="edge14" class="edge"><title>webmail_br&#45;&gt;attachment_br</title>
<path fill="none" stroke="black" d="M258.98,-680.554C257.152,-663.98 254.97,-644.191 253.034,-626.639"/>
<polygon fill="black" stroke="black" points="256.502,-626.161 251.927,-616.605 249.544,-626.928 256.502,-626.161"/>
<text text-anchor="middle" x="264.5" y="-639.8" font-family="Times,serif" font-size="14.00">No</text>
</g>
<!-- reply_br&#45;&gt;firsttime_br -->
<g id="edge11" class="edge"><title>reply_br&#45;&gt;firsttime_br</title>
<path fill="none" stroke="black" d="M806.176,-1033.96C858.566,-985.263 1024.73,-830.803 1103.2,-757.86"/>
<polygon fill="black" stroke="black" points="1106.02,-760.013 1110.96,-750.641 1101.26,-754.886 1106.02,-760.013"/>
<text text-anchor="middle" x="1060.5" y="-834.3" font-family="Times,serif" font-size="14.00">No</text>
</g>
<!-- gen_key -->
<g id="node20" class="node"><title>gen_key</title>
<g id="a_node20"><a xlink:title="You may have done this when first configuring your mail client, although it&#39;s not often part of the installation wizards (you most likely would have had to initiate the process).">
<path fill="lavenderblush" stroke="black" d="M891.5,-872C891.5,-872 688.5,-872 688.5,-872 682.5,-872 676.5,-866 676.5,-860 676.5,-860 676.5,-816 676.5,-816 676.5,-810 682.5,-804 688.5,-804 688.5,-804 891.5,-804 891.5,-804 897.5,-804 903.5,-810 903.5,-816 903.5,-816 903.5,-860 903.5,-860 903.5,-866 897.5,-872 891.5,-872"/>
<text text-anchor="middle" x="790" y="-856.8" font-family="Times,serif" font-size="14.00">(one time only)</text>
<text text-anchor="start" x="684.5" y="-841.8" font-family="Times,serif" font-size="14.00">Generate a key pair for yourself if you</text>
<text text-anchor="start" x="684.5" y="-826.8" font-family="Times,serif" font-size="14.00">have not already done so and ensure</text>
<text text-anchor="start" x="684.5" y="-811.8" font-family="Times,serif" font-size="14.00">the public key is accessible to Justin.</text>
</a>
</g>
</g>
<!-- reply_br&#45;&gt;gen_key -->
<g id="edge12" class="edge"><title>reply_br&#45;&gt;gen_key</title>
<path fill="none" stroke="green" d="M790,-1031.81C790,-999.394 790,-928.318 790,-882.11"/>
<polygon fill="green" stroke="green" points="793.5,-882.08 790,-872.08 786.5,-882.08 793.5,-882.08"/>
<text text-anchor="middle" x="801" y="-893.8" font-family="Times,serif" font-size="14.00" fill="green">Yes</text>
</g>
<!-- pdf_acquire_key -->
<g id="node22" class="node"><title>pdf_acquire_key</title>
<g id="a_node22"><a xlink:show="new" id="pdflink-svg" xlink:href="https://alchemistanaut.github.io/data/pubkeys_aes.pdf" xlink:title="Clicking this will open a PDF container holding keys to choose from. &#160;Warning: if using an old browser, you may have to download the PDF and view in an external viewer.">
<path fill="lavenderblush" stroke="black" d="M1243,-491C1243,-491 1143,-491 1143,-491 1137,-491 1131,-485 1131,-479 1131,-479 1131,-425 1131,-425 1131,-419 1137,-413 1143,-413 1143,-413 1243,-413 1243,-413 1249,-413 1255,-419 1255,-425 1255,-425 1255,-479 1255,-479 1255,-485 1249,-491 1243,-491"/>
<text text-anchor="start" x="1139" y="-476.8" font-family="Times,serif" font-size="14.00">Import Justin&#39;s key.</text>
<text text-anchor="start" x="1139" y="-462.8" font-family="Times,serif" font-size="14.00">Click on this node</text>
<text text-anchor="start" x="1139" y="-448.8" font-family="Times,serif" font-size="14.00">and use password</text>
<text text-anchor="start" x="1139" y="-434.8" font-family="Courier,monospace" font-size="14.00">wildthing</text>
<text text-anchor="start" x="1139" y="-420.8" font-family="Times,serif" font-size="14.00">to open the PDF.</text>
</a>
</g>
</g>
<!-- keyimportchoice_br&#45;&gt;pdf_acquire_key -->
<g id="edge18" class="edge"><title>keyimportchoice_br&#45;&gt;pdf_acquire_key</title>
<path fill="none" stroke="black" d="M1150.69,-564.051C1156.65,-548.423 1166.3,-523.08 1174.89,-500.549"/>
<polygon fill="black" stroke="black" points="1178.2,-501.692 1178.49,-491.101 1171.65,-499.2 1178.2,-501.692"/>
</g>
<!-- acquire_by_email -->
<g id="node23" class="node"><title>acquire_by_email</title>
<g id="a_node23"><a xlink:title="Be sure to tell Justin whether you need a PGP key or an S/MIME certificate, or tell him your mail client. &#160;E&#45;mailing is probably easier than the self&#45;service PDF option, but obviously it&#39;s not instant.">
<path fill="lavenderblush" stroke="black" d="M1101,-473.5C1101,-473.5 981,-473.5 981,-473.5 975,-473.5 969,-467.5 969,-461.5 969,-461.5 969,-442.5 969,-442.5 969,-436.5 975,-430.5 981,-430.5 981,-430.5 1101,-430.5 1101,-430.5 1107,-430.5 1113,-436.5 1113,-442.5 1113,-442.5 1113,-461.5 1113,-461.5 1113,-467.5 1107,-473.5 1101,-473.5"/>
<image xlink:href="https://alchemistanaut.github.io/images/node_item_suprt_ea.png" width="144px" height="43px" preserveAspectRatio="xMinYMin meet" x="969" y="-473.5"/>
<text text-anchor="middle" x="1041" y="-462.3" font-family="Times,serif" font-size="14.00">Ask Justin for a key at:</text>
</a>
</g>
</g>
<!-- keyimportchoice_br&#45;&gt;acquire_by_email -->
<g id="edge19" class="edge"><title>keyimportchoice_br&#45;&gt;acquire_by_email</title>
<path fill="none" stroke="black" d="M1133.87,-565.516C1117.44,-545.609 1086.3,-507.884 1064.63,-481.632"/>
<polygon fill="black" stroke="black" points="1067.3,-479.37 1058.24,-473.886 1061.91,-483.826 1067.3,-479.37"/>
</g>
<!-- start -->
<g id="node17" class="node"><title>start</title>
<g id="a_node17"><a xlink:title="Keep calm, carry on..">
<polygon fill="lavenderblush" stroke="black" points="731,-1845.64 550,-1792.64 731,-1739.64 912,-1792.64 731,-1845.64"/>
<polyline fill="none" stroke="black" points="561.516,-1796.01 561.516,-1789.27 "/>
<polyline fill="none" stroke="black" points="719.484,-1743.01 742.516,-1743.01 "/>
<polyline fill="none" stroke="black" points="900.484,-1789.27 900.484,-1796.01 "/>
<polyline fill="none" stroke="black" points="742.516,-1842.27 719.484,-1842.27 "/>
<text text-anchor="start" x="648.5" y="-1803.94" font-family="Times,serif" font-size="14.00">Do you need to e&#45;mail Justin?</text>
<text text-anchor="start" x="669" y="-1788.94" font-family="Times,serif" font-size="14.00">(However unfortunate,</text>
<text text-anchor="start" x="664" y="-1773.94" font-family="Times,serif" font-size="14.00">you&#39;re in the right place)</text>
</a>
</g>
</g>
<!-- start&#45;&gt;directsend_br -->
<g id="edge1" class="edge"><title>start&#45;&gt;directsend_br</title>
<path fill="none" stroke="black" d="M731,-1739.25C731,-1726.58 731,-1712.76 731,-1699.21"/>
<polygon fill="black" stroke="black" points="734.5,-1698.91 731,-1688.91 727.5,-1698.91 734.5,-1698.91"/>
<text text-anchor="middle" x="742" y="-1710.44" font-family="Times,serif" font-size="14.00">Yes</text>
</g>
<!-- sharing_act -->
<g id="node19" class="node"><title>sharing_act</title>
<g id="a_node19"><a xlink:title="Exceptionally, if it&#39;s a key&#45;signing party then simply follow the path of a normal e&#45;mail.">
<path fill="lavenderblush" stroke="black" d="M867.5,-1326C867.5,-1326 658.5,-1326 658.5,-1326 652.5,-1326 646.5,-1320 646.5,-1314 646.5,-1314 646.5,-1240 646.5,-1240 646.5,-1234 652.5,-1228 658.5,-1228 658.5,-1228 867.5,-1228 867.5,-1228 873.5,-1228 879.5,-1234 879.5,-1240 879.5,-1240 879.5,-1314 879.5,-1314 879.5,-1320 873.5,-1326 867.5,-1326"/>
<text text-anchor="start" x="654.5" y="-1310.8" font-family="Times,serif" font-size="14.00">Justin has unique special&#45;purpose</text>
<text text-anchor="start" x="654.5" y="-1295.8" font-family="Times,serif" font-size="14.00">addresses for these types of use cases.</text>
<text text-anchor="start" x="654.5" y="-1280.8" font-family="Times,serif" font-size="14.00">Send him a normal e&#45;mail first</text>
<text text-anchor="start" x="654.5" y="-1265.8" font-family="Times,serif" font-size="14.00">to request a suitable (abusable) address.</text>
<text text-anchor="start" x="654.5" y="-1250.8" font-family="Times,serif" font-size="14.00">(if you are sharing his address with</text>
<text text-anchor="end" x="871.5" y="-1235.8" font-family="Times,serif" font-size="14.00">a human, share this diagram instead)</text>
</a>
</g>
</g>
<!-- sharing&#45;&gt;sharing_act -->
<g id="edge4" class="edge"><title>sharing&#45;&gt;sharing_act</title>
<path fill="none" stroke="black" d="M847.805,-1365.85C837.336,-1355.01 826.573,-1343.86 816.376,-1333.3"/>
<polygon fill="black" stroke="black" points="818.882,-1330.85 809.419,-1326.09 813.846,-1335.71 818.882,-1330.85"/>
</g>
<!-- sharing_act&#45;&gt;directsend_br -->
<g id="edge7" class="edge"><title>sharing_act&#45;&gt;directsend_br</title>
<path fill="none" stroke="black" d="M733.664,-1326.39C728.022,-1337.99 722.955,-1350.61 720,-1363 705.569,-1423.49 710.125,-1494.24 717.263,-1546.11"/>
<polygon fill="black" stroke="black" points="713.83,-1546.83 718.721,-1556.23 720.759,-1545.83 713.83,-1546.83"/>
</g>
<!-- gen_key&#45;&gt;pgpnote -->
<g id="edge22" class="edge"><title>gen_key&#45;&gt;pgpnote</title>
<path fill="none" stroke="black" stroke-dasharray="1,5" d="M739.1,-803.816C719.129,-790.797 695.953,-775.687 674.742,-761.859"/>
</g>
<!-- gen_key&#45;&gt;smimenote -->
<g id="edge21" class="edge"><title>gen_key&#45;&gt;smimenote</title>
<path fill="none" stroke="black" stroke-dasharray="1,5" d="M790,-803.816C790,-787.729 790,-768.452 790,-752.343"/>
</g>
<!-- gen_key&#45;&gt;firsttime_br -->
<g id="edge20" class="edge"><title>gen_key&#45;&gt;firsttime_br</title>
<path fill="none" stroke="green" d="M889.359,-803.974C942.93,-786.167 1008.37,-764.417 1059.62,-747.379"/>
<polygon fill="green" stroke="green" points="1060.96,-750.622 1069.35,-744.146 1058.76,-743.979 1060.96,-750.622"/>
</g>
<!-- ea_forced_ea_short&#45;&gt;celebrate -->
<g id="edge29" class="edge"><title>ea_forced_ea_short&#45;&gt;celebrate</title>
<path fill="none" stroke="green" d="M1219.24,-268.342C1202.41,-251.287 1174.9,-226.439 1146,-213 1068.06,-176.759 1036.36,-200.49 950.48,-176.068"/>
<polygon fill="green" stroke="green" points="951.455,-172.707 940.872,-173.202 949.454,-179.415 951.455,-172.707"/>
</g>
<!-- pdf_acquire_key&#45;&gt;ea_forced_ea_short -->
<g id="edge28" class="edge"><title>pdf_acquire_key&#45;&gt;ea_forced_ea_short</title>
<path fill="none" stroke="black" d="M1203.08,-412.901C1210.88,-383.419 1221.51,-343.258 1228.55,-316.637"/>
<polygon fill="black" stroke="black" points="1231.98,-317.37 1231.16,-306.808 1225.21,-315.58 1231.98,-317.37"/>
</g>
<!-- acquire_by_email&#45;&gt;ea_forced_ea_short -->
<g id="edge31" class="edge"><title>acquire_by_email&#45;&gt;ea_forced_ea_short</title>
<path fill="none" stroke="black" d="M1065.7,-430.419C1101.58,-400.52 1168.02,-345.154 1206.45,-313.129"/>
<polygon fill="black" stroke="black" points="1208.76,-315.757 1214.2,-306.667 1204.28,-310.38 1208.76,-315.757"/>
</g>
<!-- keybase&#45;&gt;crypto_ea -->
<g id="edge27" class="edge"><title>keybase&#45;&gt;crypto_ea</title>
<path fill="none" stroke="black" d="M419.51,-418.54C493.701,-403.581 581.581,-384.638 669.011,-362.218"/>
<polygon fill="black" stroke="black" points="670.032,-365.569 678.841,-359.682 668.283,-358.791 670.032,-365.569"/>
</g>
</g>
</svg>
