<?xml version="1.0" encoding="UTF-8" standalone="no"?>
<!DOCTYPE svg PUBLIC "-//W3C//DTD SVG 1.1//EN"
 "http://www.w3.org/Graphics/SVG/1.1/DTD/svg11.dtd">
<!-- Generated by graphviz version 2.38.0 (20140413.2041)
 -->
<!-- Title: How to E&#45;mail Justin Pages: 1 -->
<svg width="1399pt" height="1828pt"
 viewBox="0.00 0.00 1399.00 1827.64" xmlns="http://www.w3.org/2000/svg" xmlns:xlink="http://www.w3.org/1999/xlink">
<g id="graph0" class="graph" transform="scale(1 1) rotate(0) translate(4 1823.64)">
<title>How to E&#45;mail Justin</title>
<polygon fill="#fffacd" stroke="none" points="-4,4 -4,-1823.64 1395,-1823.64 1395,4 -4,4"/>
<!-- green_anchor -->
<g id="node1" class="node"><title>green_anchor</title>
<ellipse fill="black" stroke="black" cx="429" cy="-1406.32" rx="0.36" ry="0.36"/>
</g>
<!-- crypto_mua_br -->
<g id="node10" class="node"><title>crypto_mua_br</title>
<g id="a_node10"><a xlink:title="Ideally yes; mail clients are more secure than webmail and more convenient for both parties.">
<path fill="wheat" stroke="black" d="M417.228,-1286.67C417.228,-1286.67 248.772,-1253.33 248.772,-1253.33 242.886,-1252.16 242.886,-1249.84 248.772,-1248.67 248.772,-1248.67 417.228,-1215.33 417.228,-1215.33 423.114,-1214.16 434.886,-1214.16 440.772,-1215.33 440.772,-1215.33 609.228,-1248.67 609.228,-1248.67 615.114,-1249.84 615.114,-1252.16 609.228,-1253.33 609.228,-1253.33 440.772,-1286.67 440.772,-1286.67 434.886,-1287.84 423.114,-1287.84 417.228,-1286.67"/>
<text text-anchor="start" x="351.5" y="-1254.8" font-family="Times,serif" font-size="14.00">Are you using a proper PGP</text>
<text text-anchor="start" x="341" y="-1239.8" font-family="Times,serif" font-size="14.00">or S/MIME capable mail client?</text>
</a>
</g>
</g>
<!-- green_anchor&#45;&gt;crypto_mua_br -->
<g id="edge5" class="edge"><title>green_anchor&#45;&gt;crypto_mua_br</title>
<path fill="none" stroke="green" d="M429,-1405.21C429,-1402.31 429,-1343.41 429,-1299.5"/>
<polygon fill="green" stroke="green" points="432.5,-1299.27 429,-1289.27 425.5,-1299.27 432.5,-1299.27"/>
</g>
<!-- crypto_ea -->
<g id="node2" class="node"><title>crypto_ea</title>
<g id="a_node2"><a xlink:title="The different addresses help Justin filter and reduce impact on others if one address is attacked, but there is no difference as far as spam scoring. &#160;The rasterized script font is to mitigate OCR&#45;capable bot&#45;executed address harvesting (to some extent).">
<polygon fill="none" stroke="black" points="1144.5,-362 683.5,-362 683.5,-213 1144.5,-213 1144.5,-362"/>
<image xlink:href="https://alchemistanaut.github.io/images/node_email_addresses.png" width="461px" height="149px" preserveAspectRatio="xMinYMin meet" x="683.5" y="-362"/>
</a>
</g>
</g>
<!-- celebrate -->
<g id="node24" class="node"><title>celebrate</title>
<g id="a_node24"><a xlink:title="yay!">
<polygon fill="powderblue" stroke="black" points="947.5,-175 880.5,-175 880.5,-139 947.5,-139 947.5,-175"/>
<polyline fill="none" stroke="black" points="892.5,-175 880.5,-163 "/>
<polyline fill="none" stroke="black" points="880.5,-151 892.5,-139 "/>
<polyline fill="none" stroke="black" points="935.5,-139 947.5,-151 "/>
<polyline fill="none" stroke="black" points="947.5,-163 935.5,-175 "/>
<text text-anchor="middle" x="914" y="-153.3" font-family="Times,serif" font-size="14.00">celebrate</text>
</a>
</g>
</g>
<!-- crypto_ea&#45;&gt;celebrate -->
<g id="edge30" class="edge"><title>crypto_ea&#45;&gt;celebrate</title>
<path fill="none" stroke="green" d="M914,-212.868C914,-203.043 914,-193.516 914,-185.235"/>
<polygon fill="green" stroke="green" points="917.5,-185.145 914,-175.145 910.5,-185.145 917.5,-185.145"/>
</g>
<!-- web_ea -->
<g id="node3" class="node"><title>web_ea</title>
<g id="a_node3"><a xlink:title="The hushmail address us useable until Dec.31, 2018. &#160;The script font in this node is to mitigate OCR&#45;capable bot&#45;executed address harvesting (to some extent).">
<polygon fill="none" stroke="black" points="665,-336.5 225,-336.5 225,-238.5 665,-238.5 665,-336.5"/>
<image xlink:href="https://alchemistanaut.github.io/images/node_webmail_addresses.png" width="440px" height="98px" preserveAspectRatio="xMinYMin meet" x="225" y="-336.5"/>
</a>
</g>
</g>
<!-- webnote -->
<g id="node5" class="node"><title>webnote</title>
<g id="a_node5"><a xlink:title="All gombos.info accounts are checked daily. &#160;The other two require Justin to do a manual web login. &#160;Protonmail have daily notifications, so Justin&#39;s response time is ~2 days. &#160;Tutanota does not, it could take ~2&#45;3 weeks before a msg is spotted.">
<polygon fill="#eeee00" stroke="black" points="540.5,-176 343.5,-176 343.5,-138 546.5,-138 546.5,-170 540.5,-176"/>
<polyline fill="none" stroke="black" points="540.5,-176 540.5,-170 "/>
<polyline fill="none" stroke="black" points="546.5,-170 540.5,-170 "/>
<text text-anchor="start" x="351.5" y="-160.8" font-family="Times,serif" font-size="14.00">Note: expect a slow response time</text>
<text text-anchor="start" x="351.5" y="-145.8" font-family="Times,serif" font-size="14.00">for protonmail or tutanota.</text>
</a>
</g>
</g>
<!-- web_ea&#45;&gt;webnote -->
<g id="edge23" class="edge"><title>web_ea&#45;&gt;webnote</title>
<path fill="none" stroke="black" stroke-dasharray="1,5" d="M445,-238.286C445,-216.636 445,-192.392 445,-176.266"/>
</g>
<!-- web_ea&#45;&gt;celebrate -->
<g id="edge24" class="edge"><title>web_ea&#45;&gt;celebrate</title>
<path fill="none" stroke="black" d="M588.28,-238.446C616.562,-229.546 646.117,-220.655 674,-213 742.117,-194.3 822.295,-176.825 870.581,-166.785"/>
<polygon fill="black" stroke="black" points="871.301,-170.211 880.385,-164.758 869.883,-163.356 871.301,-170.211"/>
</g>
<!-- greennote -->
<g id="node4" class="node"><title>greennote</title>
<g id="a_node4"><a xlink:title="The quickest one&#45;off msg approach is to use keybase, but you won&#39;t have a readable saved copy of what you sent.">
<polygon fill="#eeee00" stroke="black" points="495,-1628.64 253,-1628.64 253,-1560.64 501,-1560.64 501,-1622.64 495,-1628.64"/>
<polyline fill="none" stroke="black" points="495,-1628.64 495,-1622.64 "/>
<polyline fill="none" stroke="black" points="501,-1622.64 495,-1622.64 "/>
<text text-anchor="start" x="261" y="-1613.44" font-family="Times,serif" font-size="14.00">Note: the green path through this diagram</text>
<text text-anchor="start" x="261" y="-1598.44" font-family="Times,serif" font-size="14.00">indicates the most convenient for regular</text>
<text text-anchor="start" x="261" y="-1583.44" font-family="Times,serif" font-size="14.00">long&#45;term sustained correspondence,</text>
<text text-anchor="start" x="261" y="-1568.44" font-family="Times,serif" font-size="14.00">at the cost of higher initial setup effort.</text>
</a>
</g>
</g>
<!-- greennote&#45;&gt;green_anchor -->
<g id="edge6" class="edge"><title>greennote&#45;&gt;green_anchor</title>
<path fill="none" stroke="black" stroke-dasharray="1,5" d="M386.297,-1560.33C401.02,-1507.58 428.136,-1410.42 428.98,-1407.39"/>
</g>
<!-- muanote -->
<g id="node6" class="node"><title>muanote</title>
<g id="a_node6"><a xlink:show="new" xlink:href="https://en.wikipedia.org/wiki/Comparison_of_e-mail_clients#General_features" xlink:title="Clicking this node goes to a wiki showing a table of MUAs with columns indicating S/MIME and PGP support">
<polygon fill="#eeee00" stroke="black" points="394.5,-1151 191.5,-1151 191.5,-923 400.5,-923 400.5,-1145 394.5,-1151"/>
<polyline fill="none" stroke="black" points="394.5,-1151 394.5,-1145 "/>
<polyline fill="none" stroke="black" points="400.5,-1145 394.5,-1145 "/>
<image xlink:href="https://alchemistanaut.github.io/images/node_muas.png" width="209px" height="228px" preserveAspectRatio="xMinYMin meet" x="191.5" y="-1151"/>
</a>
</g>
</g>
<!-- pgpnote -->
<g id="node7" class="node"><title>pgpnote</title>
<g id="a_node7"><a xlink:title="PGP key generation is a simple process.">
<polygon fill="#eeee00" stroke="black" points="677.5,-767 550.5,-767 550.5,-669 683.5,-669 683.5,-761 677.5,-767"/>
<polyline fill="none" stroke="black" points="677.5,-767 677.5,-761 "/>
<polyline fill="none" stroke="black" points="683.5,-761 677.5,-761 "/>
<text text-anchor="start" x="558.5" y="-751.8" font-family="Times,serif" font-size="14.00">PGP users: once you</text>
<text text-anchor="start" x="558.5" y="-736.8" font-family="Times,serif" font-size="14.00">have a key pair, you</text>
<text text-anchor="start" x="558.5" y="-721.8" font-family="Times,serif" font-size="14.00">can send your public</text>
<text text-anchor="start" x="558.5" y="-706.8" font-family="Times,serif" font-size="14.00">key as an attachment</text>
<text text-anchor="start" x="558.5" y="-691.8" font-family="Times,serif" font-size="14.00">or publish it on a</text>
<text text-anchor="start" x="558.5" y="-676.8" font-family="Times,serif" font-size="14.00">keyserver.</text>
</a>
</g>
</g>
<!-- smimenote -->
<g id="node8" class="node"><title>smimenote</title>
<g id="a_node8"><a xlink:title="S/MIME key generation is a little more tedious, although it&#39;s easy to send your public key.">
<polygon fill="#eeee00" stroke="black" points="886.5,-752 701.5,-752 701.5,-684 892.5,-684 892.5,-746 886.5,-752"/>
<polyline fill="none" stroke="black" points="886.5,-752 886.5,-746 "/>
<polyline fill="none" stroke="black" points="892.5,-746 886.5,-746 "/>
<text text-anchor="start" x="709.5" y="-736.8" font-family="Times,serif" font-size="14.00">S/MIME users: once you have</text>
<text text-anchor="start" x="709.5" y="-721.8" font-family="Times,serif" font-size="14.00">a key pair, simply signing your</text>
<text text-anchor="start" x="709.5" y="-706.8" font-family="Times,serif" font-size="14.00">first msg will automatically</text>
<text text-anchor="start" x="709.5" y="-691.8" font-family="Times,serif" font-size="14.00">supply your public key to Justin.</text>
</a>
</g>
</g>
<!-- directsend_br -->
<g id="node9" class="node"><title>directsend_br</title>
<g id="a_node9"><a xlink:title="hopefully yes">
<path fill="wheat" stroke="black" d="M724.549,-1659.05C724.549,-1659.05 530.451,-1598.23 530.451,-1598.23 524.725,-1596.43 524.725,-1592.85 530.451,-1591.05 530.451,-1591.05 724.549,-1530.23 724.549,-1530.23 730.275,-1528.43 741.725,-1528.43 747.451,-1530.23 747.451,-1530.23 941.549,-1591.05 941.549,-1591.05 947.275,-1592.85 947.275,-1596.43 941.549,-1598.23 941.549,-1598.23 747.451,-1659.05 747.451,-1659.05 741.725,-1660.85 730.275,-1660.85 724.549,-1659.05"/>
<text text-anchor="start" x="667.5" y="-1613.44" font-family="Times,serif" font-size="14.00">Are you writing a typical</text>
<text text-anchor="start" x="666.5" y="-1598.44" font-family="Times,serif" font-size="14.00">human&#45;generated e&#45;mail,</text>
<text text-anchor="start" x="635.5" y="-1583.44" font-family="Times,serif" font-size="14.00">sent from a mail client or web&#45;based</text>
<text text-anchor="start" x="666.5" y="-1568.44" font-family="Times,serif" font-size="14.00">dedicated e&#45;mail service?</text>
</a>
</g>
</g>
<!-- directsend_br&#45;&gt;green_anchor -->
<g id="edge3" class="edge"><title>directsend_br&#45;&gt;green_anchor</title>
<path fill="none" stroke="green" d="M662.856,-1549.25C573.47,-1495 433.458,-1410.03 429.104,-1407.38"/>
<text text-anchor="middle" x="602.5" y="-1497.44" font-family="Times,serif" font-size="14.00" fill="green">Yes</text>
</g>
<!-- sharing -->
<g id="node18" class="node"><title>sharing</title>
<g id="a_node18"><a xlink:title="Sharing? &#160;yikes!">
<path fill="lavenderblush" stroke="black" d="M936.207,-1337.41C936.207,-1337.41 945.114,-1337.71 945.114,-1337.71 945.705,-1337.73 946.887,-1337.78 947.477,-1337.81 947.477,-1337.81 956.27,-1338.25 956.27,-1338.25 956.861,-1338.28 958.041,-1338.35 958.631,-1338.39 958.631,-1338.39 967.264,-1338.99 967.264,-1338.99 967.854,-1339.03 969.033,-1339.12 969.622,-1339.17 969.622,-1339.17 978.052,-1339.9 978.052,-1339.9 978.641,-1339.95 979.819,-1340.07 980.407,-1340.13 980.407,-1340.13 988.591,-1341 988.591,-1341 989.179,-1341.06 990.354,-1341.2 990.94,-1341.27 990.94,-1341.27 998.838,-1342.27 998.838,-1342.27 999.425,-1342.35 1000.6,-1342.51 1001.18,-1342.59 1001.18,-1342.59 1008.76,-1343.72 1008.76,-1343.72 1009.34,-1343.81 1010.51,-1343.99 1011.09,-1344.09 1011.09,-1344.09 1018.3,-1345.34 1018.3,-1345.34 1018.89,-1345.44 1020.05,-1345.65 1020.63,-1345.77 1020.63,-1345.77 1027.45,-1347.12 1027.45,-1347.12 1028.03,-1347.23 1029.19,-1347.48 1029.76,-1347.61 1029.76,-1347.61 1036.16,-1349.06 1036.16,-1349.06 1036.74,-1349.19 1037.89,-1349.47 1038.46,-1349.62 1038.46,-1349.62 1044.4,-1351.15 1044.4,-1351.15 1044.98,-1351.3 1046.12,-1351.62 1046.68,-1351.78 1046.68,-1351.78 1052.15,-1353.39 1052.15,-1353.39 1052.72,-1353.56 1053.85,-1353.92 1054.41,-1354.1 1054.41,-1354.1 1059.39,-1355.77 1059.39,-1355.77 1059.95,-1355.96 1061.06,-1356.36 1061.61,-1356.57 1061.61,-1356.57 1066.08,-1358.29 1066.08,-1358.29 1066.64,-1358.5 1067.73,-1358.95 1068.27,-1359.19 1068.27,-1359.19 1072.22,-1360.93 1072.22,-1360.93 1072.77,-1361.16 1073.84,-1361.67 1074.36,-1361.94 1074.36,-1361.94 1077.8,-1363.68 1077.8,-1363.68 1078.33,-1363.95 1079.36,-1364.52 1079.87,-1364.82 1079.87,-1364.82 1082.79,-1366.54 1082.79,-1366.54 1083.3,-1366.84 1084.3,-1367.48 1084.78,-1367.82 1084.78,-1367.82 1087.21,-1369.51 1087.21,-1369.51 1087.69,-1369.84 1088.63,-1370.56 1089.08,-1370.94 1089.08,-1370.94 1091.03,-1372.56 1091.03,-1372.56 1091.49,-1372.94 1092.35,-1373.74 1092.77,-1374.16 1092.77,-1374.16 1094.27,-1375.7 1094.27,-1375.7 1094.69,-1376.12 1095.46,-1377.01 1095.82,-1377.48 1095.82,-1377.48 1096.93,-1378.92 1096.93,-1378.92 1097.3,-1379.38 1097.95,-1380.36 1098.25,-1380.88 1098.25,-1380.88 1099.02,-1382.21 1099.02,-1382.21 1099.32,-1382.72 1099.83,-1383.78 1100.05,-1384.33 1100.05,-1384.33 1100.55,-1385.58 1100.55,-1385.58 1100.76,-1386.13 1101.11,-1387.25 1101.24,-1387.83 1101.24,-1387.83 1101.51,-1389.02 1101.51,-1389.02 1101.64,-1389.6 1101.8,-1390.76 1101.84,-1391.35 1101.84,-1391.35 1101.91,-1392.54 1101.91,-1392.54 1101.94,-1393.13 1101.92,-1394.3 1101.86,-1394.89 1101.86,-1394.89 1101.74,-1396.12 1101.74,-1396.12 1101.69,-1396.7 1101.49,-1397.87 1101.34,-1398.44 1101.34,-1398.44 1101.02,-1399.75 1101.02,-1399.75 1100.88,-1400.32 1100.52,-1401.44 1100.31,-1402 1100.31,-1402 1099.75,-1403.41 1099.75,-1403.41 1099.54,-1403.96 1099.05,-1405.03 1098.77,-1405.55 1098.77,-1405.55 1097.96,-1407.09 1097.96,-1407.09 1097.68,-1407.61 1097.08,-1408.62 1096.75,-1409.12 1096.75,-1409.12 1095.66,-1410.76 1095.66,-1410.76 1095.33,-1411.25 1094.63,-1412.21 1094.27,-1412.67 1094.27,-1412.67 1092.87,-1414.42 1092.87,-1414.42 1092.5,-1414.89 1091.74,-1415.78 1091.33,-1416.22 1091.33,-1416.22 1089.64,-1418.06 1089.64,-1418.06 1089.24,-1418.49 1088.41,-1419.33 1087.98,-1419.74 1087.98,-1419.74 1085.97,-1421.65 1085.97,-1421.65 1085.54,-1422.06 1084.67,-1422.85 1084.22,-1423.23 1084.22,-1423.23 1081.91,-1425.2 1081.91,-1425.2 1081.46,-1425.58 1080.54,-1426.32 1080.07,-1426.69 1080.07,-1426.69 1077.47,-1428.69 1077.47,-1428.69 1077.01,-1429.05 1076.05,-1429.75 1075.57,-1430.09 1075.57,-1430.09 1072.69,-1432.11 1072.69,-1432.11 1072.21,-1432.45 1071.23,-1433.11 1070.73,-1433.43 1070.73,-1433.43 1067.59,-1435.46 1067.59,-1435.46 1067.1,-1435.78 1066.09,-1436.4 1065.58,-1436.7 1065.58,-1436.7 1062.2,-1438.72 1062.2,-1438.72 1061.69,-1439.02 1060.67,-1439.61 1060.15,-1439.89 1060.15,-1439.89 1056.54,-1441.89 1056.54,-1441.89 1056.02,-1442.17 1054.97,-1442.73 1054.45,-1443 1054.45,-1443 1050.63,-1444.96 1050.63,-1444.96 1050.1,-1445.23 1049.04,-1445.75 1048.51,-1446 1048.51,-1446 1044.5,-1447.92 1044.5,-1447.92 1043.96,-1448.17 1042.89,-1448.66 1042.35,-1448.9 1042.35,-1448.9 1038.17,-1450.76 1038.17,-1450.76 1037.63,-1451 1036.54,-1451.46 1035.99,-1451.69 1035.99,-1451.69 1031.66,-1453.48 1031.66,-1453.48 1031.11,-1453.7 1030.01,-1454.14 1029.46,-1454.35 1029.46,-1454.35 1024.99,-1456.07 1024.99,-1456.07 1024.44,-1456.28 1023.33,-1456.69 1022.77,-1456.89 1022.77,-1456.89 1018.18,-1458.52 1018.18,-1458.52 1017.62,-1458.72 1016.51,-1459.1 1015.94,-1459.28 1015.94,-1459.28 1011.25,-1460.82 1011.25,-1460.82 1010.69,-1461.01 1009.56,-1461.36 1008.99,-1461.53 1008.99,-1461.53 1004.21,-1462.98 1004.21,-1462.98 1003.64,-1463.15 1002.51,-1463.48 1001.94,-1463.64 1001.94,-1463.64 997.075,-1464.98 997.075,-1464.98 996.505,-1465.14 995.361,-1465.44 994.787,-1465.58 994.787,-1465.58 989.861,-1466.82 989.861,-1466.82 989.287,-1466.96 988.137,-1467.23 987.56,-1467.36 987.56,-1467.36 982.579,-1468.49 982.579,-1468.49 982.002,-1468.62 980.846,-1468.86 980.266,-1468.98 980.266,-1468.98 975.24,-1469.99 975.24,-1469.99 974.66,-1470.1 973.498,-1470.32 972.915,-1470.42 972.915,-1470.42 967.853,-1471.31 967.853,-1471.31 967.271,-1471.42 966.103,-1471.61 965.519,-1471.69 965.519,-1471.69 960.427,-1472.46 960.427,-1472.46 959.842,-1472.55 958.67,-1472.71 958.084,-1472.78 958.084,-1472.78 952.969,-1473.43 952.969,-1473.43 952.382,-1473.5 951.207,-1473.63 950.618,-1473.69 950.618,-1473.69 945.486,-1474.21 945.486,-1474.21 944.897,-1474.27 943.719,-1474.37 943.13,-1474.42 943.13,-1474.42 937.984,-1474.8 937.984,-1474.8 937.394,-1474.85 936.214,-1474.92 935.623,-1474.95 935.623,-1474.95 930.469,-1475.21 930.469,-1475.21 929.878,-1475.24 928.696,-1475.29 928.105,-1475.3 928.105,-1475.3 922.946,-1475.43 922.946,-1475.43 922.355,-1475.45 921.172,-1475.46 920.581,-1475.46 920.581,-1475.46 915.419,-1475.46 915.419,-1475.46 914.828,-1475.46 913.645,-1475.45 913.054,-1475.43 913.054,-1475.43 907.895,-1475.3 907.895,-1475.3 907.304,-1475.29 906.122,-1475.24 905.531,-1475.21 905.531,-1475.21 900.377,-1474.95 900.377,-1474.95 899.786,-1474.92 898.606,-1474.85 898.016,-1474.8 898.016,-1474.8 892.87,-1474.42 892.87,-1474.42 892.281,-1474.37 891.103,-1474.27 890.514,-1474.21 890.514,-1474.21 885.382,-1473.69 885.382,-1473.69 884.793,-1473.63 883.618,-1473.5 883.031,-1473.43 883.031,-1473.43 877.916,-1472.78 877.916,-1472.78 877.33,-1472.71 876.158,-1472.55 875.573,-1472.46 875.573,-1472.46 870.481,-1471.69 870.481,-1471.69 869.897,-1471.61 868.729,-1471.42 868.147,-1471.31 868.147,-1471.31 863.085,-1470.42 863.085,-1470.42 862.502,-1470.32 861.34,-1470.1 860.76,-1469.99 860.76,-1469.99 855.734,-1468.98 855.734,-1468.98 855.154,-1468.86 853.998,-1468.62 853.421,-1468.49 853.421,-1468.49 848.44,-1467.36 848.44,-1467.36 847.863,-1467.23 846.713,-1466.96 846.139,-1466.82 846.139,-1466.82 841.213,-1465.58 841.213,-1465.58 840.639,-1465.44 839.495,-1465.14 838.925,-1464.98 838.925,-1464.98 834.064,-1463.64 834.064,-1463.64 833.494,-1463.48 832.358,-1463.15 831.792,-1462.98 831.792,-1462.98 827.007,-1461.53 827.007,-1461.53 826.441,-1461.36 825.313,-1461.01 824.751,-1460.82 824.751,-1460.82 820.057,-1459.28 820.057,-1459.28 819.495,-1459.1 818.376,-1458.72 817.819,-1458.52 817.819,-1458.52 813.228,-1456.89 813.228,-1456.89 812.671,-1456.69 811.562,-1456.28 811.01,-1456.07 811.01,-1456.07 806.539,-1454.35 806.539,-1454.35 805.987,-1454.14 804.888,-1453.7 804.341,-1453.48 804.341,-1453.48 800.007,-1451.69 800.007,-1451.69 799.46,-1451.46 798.373,-1451 797.832,-1450.76 797.832,-1450.76 793.651,-1448.9 793.651,-1448.9 793.11,-1448.66 792.036,-1448.17 791.502,-1447.92 791.502,-1447.92 787.492,-1446 787.492,-1446 786.958,-1445.75 785.898,-1445.23 785.372,-1444.96 785.372,-1444.96 781.552,-1443 781.552,-1443 781.025,-1442.73 779.981,-1442.17 779.464,-1441.89 779.464,-1441.89 775.852,-1439.89 775.852,-1439.89 775.334,-1439.61 774.308,-1439.02 773.8,-1438.72 773.8,-1438.72 770.416,-1436.7 770.416,-1436.7 769.908,-1436.4 768.903,-1435.78 768.406,-1435.46 768.406,-1435.46 765.267,-1433.43 765.267,-1433.43 764.771,-1433.11 763.79,-1432.45 763.306,-1432.11 763.306,-1432.11 760.43,-1430.09 760.43,-1430.09 759.946,-1429.75 758.994,-1429.05 758.525,-1428.69 758.525,-1428.69 755.928,-1426.69 755.928,-1426.69 755.459,-1426.32 754.54,-1425.58 754.09,-1425.2 754.09,-1425.2 751.784,-1423.23 751.784,-1423.23 751.334,-1422.85 750.455,-1422.06 750.027,-1421.65 750.027,-1421.65 748.022,-1419.74 748.022,-1419.74 747.594,-1419.33 746.765,-1418.49 746.364,-1418.06 746.364,-1418.06 744.666,-1416.22 744.666,-1416.22 744.264,-1415.78 743.495,-1414.89 743.127,-1414.42 743.127,-1414.42 741.735,-1412.67 741.735,-1412.67 741.367,-1412.21 740.671,-1411.25 740.344,-1410.76 740.344,-1410.76 739.25,-1409.12 739.25,-1409.12 738.923,-1408.62 738.318,-1407.61 738.041,-1407.09 738.041,-1407.09 737.23,-1405.55 737.23,-1405.55 736.953,-1405.03 736.461,-1403.96 736.245,-1403.41 736.245,-1403.41 735.692,-1402 735.692,-1402 735.477,-1401.44 735.12,-1400.32 734.978,-1399.75 734.978,-1399.75 734.655,-1398.44 734.655,-1398.44 734.513,-1397.87 734.314,-1396.7 734.257,-1396.12 734.257,-1396.12 734.138,-1394.89 734.138,-1394.89 734.081,-1394.3 734.059,-1393.13 734.094,-1392.54 734.094,-1392.54 734.164,-1391.35 734.164,-1391.35 734.199,-1390.76 734.364,-1389.6 734.493,-1389.02 734.493,-1389.02 734.759,-1387.83 734.759,-1387.83 734.888,-1387.25 735.235,-1386.13 735.453,-1385.58 735.453,-1385.58 735.947,-1384.33 735.947,-1384.33 736.165,-1383.78 736.68,-1382.72 736.976,-1382.21 736.976,-1382.21 737.749,-1380.88 737.749,-1380.88 738.046,-1380.36 738.704,-1379.38 739.066,-1378.92 739.066,-1378.92 740.177,-1377.48 740.177,-1377.48 740.538,-1377.01 741.314,-1376.12 741.728,-1375.7 741.728,-1375.7 743.233,-1374.16 743.233,-1374.16 743.646,-1373.74 744.515,-1372.94 744.969,-1372.56 744.969,-1372.56 746.915,-1370.94 746.915,-1370.94 747.369,-1370.56 748.309,-1369.84 748.794,-1369.51 748.794,-1369.51 751.217,-1367.82 751.217,-1367.82 751.702,-1367.48 752.697,-1366.84 753.206,-1366.54 753.206,-1366.54 756.128,-1364.82 756.128,-1364.82 756.638,-1364.52 757.674,-1363.95 758.201,-1363.68 758.201,-1363.68 761.638,-1361.94 761.638,-1361.94 762.165,-1361.67 763.234,-1361.16 763.775,-1360.93 763.775,-1360.93 767.73,-1359.19 767.73,-1359.19 768.271,-1358.95 769.364,-1358.5 769.917,-1358.29 769.917,-1358.29 774.387,-1356.57 774.387,-1356.57 774.939,-1356.36 776.052,-1355.96 776.613,-1355.77 776.613,-1355.77 781.591,-1354.1 781.591,-1354.1 782.151,-1353.92 783.279,-1353.56 783.847,-1353.39 783.847,-1353.39 789.317,-1351.78 789.317,-1351.78 789.885,-1351.62 791.025,-1351.3 791.597,-1351.15 791.597,-1351.15 797.542,-1349.62 797.542,-1349.62 798.115,-1349.47 799.264,-1349.19 799.841,-1349.06 799.841,-1349.06 806.236,-1347.61 806.236,-1347.61 806.813,-1347.48 807.97,-1347.23 808.55,-1347.12 808.55,-1347.12 815.37,-1345.77 815.37,-1345.77 815.95,-1345.65 817.113,-1345.44 817.696,-1345.34 817.696,-1345.34 824.909,-1344.09 824.909,-1344.09 825.492,-1343.99 826.659,-1343.81 827.244,-1343.72 827.244,-1343.72 834.818,-1342.59 834.818,-1342.59 835.403,-1342.51 836.575,-1342.35 837.162,-1342.27 837.162,-1342.27 845.06,-1341.27 845.06,-1341.27 845.646,-1341.2 846.821,-1341.06 847.409,-1341 847.409,-1341 855.593,-1340.13 855.593,-1340.13 856.181,-1340.07 857.359,-1339.95 857.948,-1339.9 857.948,-1339.9 866.378,-1339.17 866.378,-1339.17 866.967,-1339.12 868.146,-1339.03 868.736,-1338.99 868.736,-1338.99 877.369,-1338.39 877.369,-1338.39 877.959,-1338.35 879.139,-1338.28 879.73,-1338.25 879.73,-1338.25 888.523,-1337.81 888.523,-1337.81 889.113,-1337.78 890.295,-1337.73 890.886,-1337.71 890.886,-1337.71 899.793,-1337.41 899.793,-1337.41 900.384,-1337.39 901.567,-1337.36 902.158,-1337.35 902.158,-1337.35 911.135,-1337.2 911.135,-1337.2 911.726,-1337.19 912.909,-1337.18 913.5,-1337.18 913.5,-1337.18 922.5,-1337.18 922.5,-1337.18 923.091,-1337.18 924.274,-1337.19 924.865,-1337.2 924.865,-1337.2 933.842,-1337.35 933.842,-1337.35 934.433,-1337.36 935.616,-1337.39 936.207,-1337.41"/>
<text text-anchor="start" x="803.916" y="-1440.12" font-family="Times,serif" font-size="14.00">You are probably:</text>
<text text-anchor="start" x="803.916" y="-1425.12" font-family="Times,serif" font-size="14.00">*sending a social networking invitation</text>
<text text-anchor="start" x="803.916" y="-1410.12" font-family="Times,serif" font-size="14.00">*sending an event scheduler poll</text>
<text text-anchor="start" x="803.916" y="-1395.12" font-family="Times,serif" font-size="14.00">*sending a greeting card</text>
<text text-anchor="start" x="803.916" y="-1380.12" font-family="Times,serif" font-size="14.00">*or feeding his address to an information</text>
<text text-anchor="end" x="1032.08" y="-1365.12" font-family="Times,serif" font-size="14.00"> harvesting system of some kind</text>
</a>
</g>
</g>
<!-- directsend_br&#45;&gt;sharing -->
<g id="edge2" class="edge"><title>directsend_br&#45;&gt;sharing</title>
<path fill="none" stroke="black" d="M786.214,-1542.23C805.971,-1522.01 828.962,-1498.47 850.157,-1476.77"/>
<polygon fill="black" stroke="black" points="852.785,-1479.09 857.269,-1469.49 847.778,-1474.2 852.785,-1479.09"/>
<text text-anchor="middle" x="840.5" y="-1497.44" font-family="Times,serif" font-size="14.00">No</text>
</g>
<!-- crypto_mua_br&#45;&gt;muanote -->
<g id="edge10" class="edge"><title>crypto_mua_br&#45;&gt;muanote</title>
<path fill="none" stroke="black" stroke-dasharray="1,5" d="M408.219,-1216.88C396.895,-1198.82 382.142,-1175.31 367.075,-1151.29"/>
</g>
<!-- webmail_br -->
<g id="node14" class="node"><title>webmail_br</title>
<g id="a_node14"><a xlink:title="These webmail services are relatively safe compared to other webmail services, but still 2nd to using a proper mail client">
<path fill="wheat" stroke="black" d="M254.121,-754.303C254.121,-754.303 11.8794,-719.697 11.8794,-719.697 5.9397,-718.849 5.9397,-717.151 11.8794,-716.303 11.8794,-716.303 254.121,-681.697 254.121,-681.697 260.06,-680.849 271.94,-680.849 277.879,-681.697 277.879,-681.697 520.121,-716.303 520.121,-716.303 526.06,-717.151 526.06,-718.849 520.121,-719.697 520.121,-719.697 277.879,-754.303 277.879,-754.303 271.94,-755.151 260.06,-755.151 254.121,-754.303"/>
<text text-anchor="start" x="205" y="-721.8" font-family="Times,serif" font-size="14.00">Are you sending from</text>
<text text-anchor="start" x="141" y="-706.8" font-family="Times,serif" font-size="14.00">a hushmail, protonmail, or tutanota account?</text>
</a>
</g>
</g>
<!-- crypto_mua_br&#45;&gt;webmail_br -->
<g id="edge9" class="edge"><title>crypto_mua_br&#45;&gt;webmail_br</title>
<path fill="none" stroke="black" d="M433.072,-1213.42C438.588,-1151.61 444.092,-1023.4 409,-923 386.885,-859.724 339.139,-798.297 304.899,-759.671"/>
<polygon fill="black" stroke="black" points="307.099,-756.882 297.812,-751.782 301.891,-761.56 307.099,-756.882"/>
<text text-anchor="middle" x="410.5" y="-893.8" font-family="Times,serif" font-size="14.00">No</text>
</g>
<!-- reply_br -->
<g id="node15" class="node"><title>reply_br</title>
<g id="a_node15"><a xlink:title="If you&#39;ll need a reply, then Justin will need your key so he can reply securely.">
<path fill="wheat" stroke="black" d="M785.118,-1053.32C785.118,-1053.32 681.356,-1038.68 681.356,-1038.68 675.415,-1037.84 675.415,-1036.16 681.356,-1035.32 681.356,-1035.32 785.118,-1020.68 785.118,-1020.68 791.059,-1019.84 802.941,-1019.84 808.882,-1020.68 808.882,-1020.68 912.644,-1035.32 912.644,-1035.32 918.585,-1036.16 918.585,-1037.84 912.644,-1038.68 912.644,-1038.68 808.882,-1053.32 808.882,-1053.32 802.941,-1054.16 791.059,-1054.16 785.118,-1053.32"/>
<text text-anchor="middle" x="797" y="-1033.3" font-family="Times,serif" font-size="14.00">Will you need a reply?</text>
</a>
</g>
</g>
<!-- crypto_mua_br&#45;&gt;reply_br -->
<g id="edge8" class="edge"><title>crypto_mua_br&#45;&gt;reply_br</title>
<path fill="none" stroke="green" d="M477.11,-1222.28C553.058,-1178.53 698.797,-1094.57 764.024,-1057"/>
<polygon fill="green" stroke="green" points="766.127,-1059.82 773.045,-1051.8 762.633,-1053.76 766.127,-1059.82"/>
<text text-anchor="middle" x="580.5" y="-1172.8" font-family="Times,serif" font-size="14.00" fill="green">Yes</text>
</g>
<!-- attachment_br -->
<g id="node11" class="node"><title>attachment_br</title>
<g id="a_node11"><a xlink:title="If yes, you won&#39;t like the next node.">
<path fill="wheat" stroke="black" d="M239.797,-613.7C239.797,-613.7 163.203,-584.3 163.203,-584.3 157.602,-582.15 157.602,-577.85 163.203,-575.7 163.203,-575.7 239.797,-546.3 239.797,-546.3 245.398,-544.15 256.602,-544.15 262.203,-546.3 262.203,-546.3 338.797,-575.7 338.797,-575.7 344.398,-577.85 344.398,-582.15 338.797,-584.3 338.797,-584.3 262.203,-613.7 262.203,-613.7 256.602,-615.85 245.398,-615.85 239.797,-613.7"/>
<text text-anchor="start" x="209.5" y="-583.8" font-family="Times,serif" font-size="14.00">Do you need to</text>
<text text-anchor="start" x="215.5" y="-568.8" font-family="Times,serif" font-size="14.00">attach a file?</text>
</a>
</g>
</g>
<!-- keybase -->
<g id="node25" class="node"><title>keybase</title>
<g id="a_node25"><a xlink:show="new" xlink:href="https://keybase.io/encrypt#alchemistanaut" xlink:title="This is quite simple, and you can use your usual mail client or webmail service without any changes. &#160;If you want a reply, Justin will likely respond with a PDF that can be opened using whatever password you supply. &#160;Limitation: there is no way to send Justin a file attachment using this keybase mechanism.">
<path fill="lavenderblush" stroke="black" d="M410,-486C410,-486 92,-486 92,-486 86,-486 80,-480 80,-474 80,-474 80,-430 80,-430 80,-424 86,-418 92,-418 92,-418 410,-418 410,-418 416,-418 422,-424 422,-430 422,-430 422,-474 422,-474 422,-480 416,-486 410,-486"/>
<text text-anchor="start" x="88" y="-470.8" font-family="Times,serif" font-size="14.00">Click here, or go to keybase.io/encrypt#alchemistanaut,</text>
<text text-anchor="start" x="88" y="-455.8" font-family="Times,serif" font-size="14.00">write your message, click &#39;encrypt&#39;, copy&#45;paste the resulting</text>
<text text-anchor="start" x="88" y="-440.8" font-family="Times,serif" font-size="14.00">text into a normal msg. (if you need a reply, include a</text>
<text text-anchor="end" x="414" y="-425.8" font-family="Times,serif" font-size="14.00">passphrase of your choosing in the msg and remember it)</text>
</a>
</g>
</g>
<!-- attachment_br&#45;&gt;keybase -->
<g id="edge25" class="edge"><title>attachment_br&#45;&gt;keybase</title>
<path fill="none" stroke="black" d="M251,-541.877C251,-527.486 251,-510.914 251,-496.008"/>
<polygon fill="black" stroke="black" points="254.5,-496.002 251,-486.002 247.5,-496.002 254.5,-496.002"/>
<text text-anchor="middle" x="259.5" y="-512.8" font-family="Times,serif" font-size="14.00">No</text>
</g>
<!-- screwed -->
<g id="node26" class="node"><title>screwed</title>
<g id="a_node26"><a xlink:title="You might want to find a different path through the graph.">
<polygon fill="darksalmon" stroke="black" points="101,-175 3,-175 3,-139 101,-139 101,-175"/>
<polyline fill="none" stroke="black" points="15,-175 3,-163 "/>
<polyline fill="none" stroke="black" points="3,-151 15,-139 "/>
<polyline fill="none" stroke="black" points="89,-139 101,-151 "/>
<polyline fill="none" stroke="black" points="101,-163 89,-175 "/>
<text text-anchor="start" x="11" y="-153.3" font-family="Times,serif" font-size="14.00">you&#39;re screwed</text>
</a>
</g>
</g>
<!-- attachment_br&#45;&gt;screwed -->
<g id="edge26" class="edge"><title>attachment_br&#45;&gt;screwed</title>
<g id="a_edge26"><a xlink:title="find a different path">
<path fill="none" stroke="black" d="M188.902,-565.761C148.163,-553.591 97.6648,-531.125 71,-491 6.90236,-394.547 31.3576,-245.565 45.1263,-184.993"/>
<polygon fill="black" stroke="black" points="48.5778,-185.605 47.4693,-175.069 41.7651,-183.997 48.5778,-185.605"/>
</a>
</g>
<text text-anchor="middle" x="45.5" y="-383.8" font-family="Times,serif" font-size="14.00">Yes</text>
</g>
<!-- problem_br -->
<g id="node12" class="node"><title>problem_br</title>
<g id="a_node12"><a xlink:title="Secure e&#45;mail can be complicated, but Justin will support you.">
<path fill="wheat" stroke="black" d="M1082.12,-173.34C1082.12,-173.34 977.02,-158.66 977.02,-158.66 971.078,-157.83 971.078,-156.17 977.02,-155.34 977.02,-155.34 1082.12,-140.66 1082.12,-140.66 1088.06,-139.83 1099.94,-139.83 1105.88,-140.66 1105.88,-140.66 1210.98,-155.34 1210.98,-155.34 1216.92,-156.17 1216.92,-157.83 1210.98,-158.66 1210.98,-158.66 1105.88,-173.34 1105.88,-173.34 1099.94,-174.17 1088.06,-174.17 1082.12,-173.34"/>
<text text-anchor="middle" x="1094" y="-153.3" font-family="Times,serif" font-size="14.00">Questions? Problems?</text>
</a>
</g>
</g>
<!-- get_support -->
<g id="node27" class="node"><title>get_support</title>
<g id="a_node27"><a xlink:show="new" xlink:href="https://github.com/alchemistanaut/contact/issues" xlink:title="Clicking will bring you to the github issues page, where you can describe your issue. &#160;Note that you&#39;ll need a github account to create an issue, and your entry will be publicly viewable. &#160;Alternatively, you can e&#45;mail support questions to the address herein, in the clear if needed.">
<path fill="lavenderblush" stroke="black" d="M1154,-101C1154,-101 1034,-101 1034,-101 1028,-101 1022,-95 1022,-89 1022,-89 1022,-12 1022,-12 1022,-6 1028,-0 1034,-0 1034,-0 1154,-0 1154,-0 1160,-0 1166,-6 1166,-12 1166,-12 1166,-89 1166,-89 1166,-95 1160,-101 1154,-101"/>
<image xlink:href="https://alchemistanaut.github.io/images/node_item_suprt_ea.png" width="144px" height="48px" preserveAspectRatio="xMinYMin meet" x="1022" y="-74.5"/>
<text text-anchor="start" x="1030" y="-89.8" font-family="Times,serif" font-size="14.00">File a github issue by</text>
<text text-anchor="start" x="1030" y="-74.8" font-family="Times,serif" font-size="14.00">clicking this node, or</text>
<text text-anchor="start" x="1030" y="-59.8" font-family="Times,serif" font-size="14.00">E&#45;mail Justin at:</text>
</a>
</g>
</g>
<!-- problem_br&#45;&gt;get_support -->
<g id="edge32" class="edge"><title>problem_br&#45;&gt;get_support</title>
<path fill="none" stroke="black" d="M1094,-138.744C1094,-131.005 1094,-121.37 1094,-111.355"/>
<polygon fill="black" stroke="black" points="1097.5,-111.268 1094,-101.268 1090.5,-111.268 1097.5,-111.268"/>
</g>
<!-- firsttime_br -->
<g id="node13" class="node"><title>firsttime_br</title>
<g id="a_node13"><a xlink:title="You&#39;ll need to have Justin&#39;s key before sending him a message. &#160;Once you have it, it&#39;s good until it expires (few years generally).">
<path fill="wheat" stroke="black" d="M1139.15,-754.123C1139.15,-754.123 922.852,-719.877 922.852,-719.877 916.926,-718.938 916.926,-717.062 922.852,-716.123 922.852,-716.123 1139.15,-681.877 1139.15,-681.877 1145.07,-680.938 1156.93,-680.938 1162.85,-681.877 1162.85,-681.877 1379.15,-716.123 1379.15,-716.123 1385.07,-717.062 1385.07,-718.938 1379.15,-719.877 1379.15,-719.877 1162.85,-754.123 1162.85,-754.123 1156.93,-755.062 1145.07,-755.062 1139.15,-754.123"/>
<text text-anchor="start" x="1058.5" y="-721.8" font-family="Times,serif" font-size="14.00">Are you e&#45;mailing Justin securely</text>
<text text-anchor="start" x="1039" y="-706.8" font-family="Times,serif" font-size="14.00">for the first time, or has his key expired?</text>
</a>
</g>
</g>
<!-- firsttime_br&#45;&gt;crypto_ea -->
<g id="edge16" class="edge"><title>firsttime_br&#45;&gt;crypto_ea</title>
<path fill="none" stroke="black" d="M1117.04,-685.103C1075.36,-644.082 1005.39,-568.809 966,-491 947.338,-454.139 934.991,-410.022 927.033,-372.39"/>
<polygon fill="black" stroke="black" points="930.436,-371.562 925.003,-362.467 923.578,-372.965 930.436,-371.562"/>
<text text-anchor="middle" x="1027" y="-512.8" font-family="Times,serif" font-size="14.00">No (using PGP)</text>
</g>
<!-- keyimportchoice_br -->
<g id="node16" class="node"><title>keyimportchoice_br</title>
<g id="a_node16"><a xlink:title="You can instantly get Justin&#39;s key from the PDF container. &#160;Or you can e&#45;mail him and wait. &#160;Whatever you find more convenient.">
<path fill="wheat" stroke="black" d="M1139.69,-593.979C1139.69,-593.979 1111.7,-584.021 1111.7,-584.021 1106.05,-582.011 1106.05,-577.989 1111.7,-575.979 1111.7,-575.979 1139.69,-566.021 1139.69,-566.021 1145.35,-564.011 1156.65,-564.011 1162.31,-566.021 1162.31,-566.021 1190.3,-575.979 1190.3,-575.979 1195.95,-577.989 1195.95,-582.011 1190.3,-584.021 1190.3,-584.021 1162.31,-593.979 1162.31,-593.979 1156.65,-595.989 1145.35,-595.989 1139.69,-593.979"/>
<text text-anchor="middle" x="1151" y="-576.3" font-family="Times,serif" font-size="14.00">choose</text>
</a>
</g>
</g>
<!-- firsttime_br&#45;&gt;keyimportchoice_br -->
<g id="edge15" class="edge"><title>firsttime_br&#45;&gt;keyimportchoice_br</title>
<g id="a_edge15"><a xlink:title="(using S/MIME or PGP)">
<path fill="none" stroke="black" d="M1151,-679.837C1151,-657.305 1151,-629.04 1151,-608.515"/>
<polygon fill="black" stroke="black" points="1154.5,-608.276 1151,-598.276 1147.5,-608.276 1154.5,-608.276"/>
</a>
</g>
<text text-anchor="middle" x="1161.5" y="-639.8" font-family="Times,serif" font-size="14.00">Yes</text>
</g>
<!-- ea_forced_ea_short -->
<g id="node21" class="node"><title>ea_forced_ea_short</title>
<g id="a_node21"><a xlink:title="If you don&#39;t know the address associated to the key, it will generally be the address from which Justin sent you the key. &#160;If you took the key from the PDF file, then it&#39;s evident from that file. &#160;PGP users: if you imported Justin&#39;s key from a PGP key server, then you should look at the table of addresses and select the best one. &#160;But note that you may have to configure your mail client to map key to address because Justin&#39;s published PGP keys have a deliberately unusable address.">
<path fill="lavenderblush" stroke="black" d="M1313,-306.5C1313,-306.5 1175,-306.5 1175,-306.5 1169,-306.5 1163,-300.5 1163,-294.5 1163,-294.5 1163,-280.5 1163,-280.5 1163,-274.5 1169,-268.5 1175,-268.5 1175,-268.5 1313,-268.5 1313,-268.5 1319,-268.5 1325,-274.5 1325,-280.5 1325,-280.5 1325,-294.5 1325,-294.5 1325,-300.5 1319,-306.5 1313,-306.5"/>
<text text-anchor="start" x="1171" y="-291.3" font-family="Times,serif" font-size="14.00">Use the address associated</text>
<text text-anchor="middle" x="1244" y="-276.3" font-family="Times,serif" font-size="14.00">with the key</text>
</a>
</g>
</g>
<!-- firsttime_br&#45;&gt;ea_forced_ea_short -->
<g id="edge17" class="edge"><title>firsttime_br&#45;&gt;ea_forced_ea_short</title>
<path fill="none" stroke="black" d="M1176.31,-683.711C1206.51,-641.558 1255.05,-565.422 1272,-491 1286.03,-429.373 1266.99,-355.493 1254.1,-316.23"/>
<polygon fill="black" stroke="black" points="1257.35,-314.911 1250.82,-306.566 1250.72,-317.161 1257.35,-314.911"/>
<text text-anchor="middle" x="1321.5" y="-512.8" font-family="Times,serif" font-size="14.00">No (using S/MIME)</text>
</g>
<!-- webmail_br&#45;&gt;web_ea -->
<g id="edge13" class="edge"><title>webmail_br&#45;&gt;web_ea</title>
<path fill="none" stroke="black" d="M300.932,-684.753C341.862,-644.228 407.125,-570.314 431,-491 445.186,-443.871 448.061,-387.894 447.743,-346.75"/>
<polygon fill="black" stroke="black" points="451.241,-346.573 447.599,-336.624 444.242,-346.673 451.241,-346.573"/>
<text text-anchor="middle" x="435.5" y="-512.8" font-family="Times,serif" font-size="14.00">Yes</text>
</g>
<!-- webmail_br&#45;&gt;attachment_br -->
<g id="edge14" class="edge"><title>webmail_br&#45;&gt;attachment_br</title>
<path fill="none" stroke="black" d="M261.98,-680.554C260.152,-663.98 257.97,-644.191 256.034,-626.639"/>
<polygon fill="black" stroke="black" points="259.502,-626.161 254.927,-616.605 252.544,-626.928 259.502,-626.161"/>
<text text-anchor="middle" x="267.5" y="-639.8" font-family="Times,serif" font-size="14.00">No</text>
</g>
<!-- reply_br&#45;&gt;firsttime_br -->
<g id="edge11" class="edge"><title>reply_br&#45;&gt;firsttime_br</title>
<path fill="none" stroke="black" d="M813.599,-1021.14C866.065,-974.154 1029.48,-827.821 1108.01,-757.495"/>
<polygon fill="black" stroke="black" points="1110.68,-759.804 1115.79,-750.526 1106.01,-754.589 1110.68,-759.804"/>
<text text-anchor="middle" x="1061.5" y="-834.3" font-family="Times,serif" font-size="14.00">No</text>
</g>
<!-- gen_key -->
<g id="node20" class="node"><title>gen_key</title>
<g id="a_node20"><a xlink:title="You may have done this when first configuring your mail client, although it&#39;s not often part of the installation wizards (you most likely would have had to initiate the process).">
<path fill="lavenderblush" stroke="black" d="M897,-872C897,-872 697,-872 697,-872 691,-872 685,-866 685,-860 685,-860 685,-816 685,-816 685,-810 691,-804 697,-804 697,-804 897,-804 897,-804 903,-804 909,-810 909,-816 909,-816 909,-860 909,-860 909,-866 903,-872 897,-872"/>
<text text-anchor="middle" x="797" y="-856.8" font-family="Times,serif" font-size="14.00">(one time only)</text>
<text text-anchor="start" x="693" y="-841.8" font-family="Times,serif" font-size="14.00">Generate a key pair for yourself if you</text>
<text text-anchor="start" x="693" y="-826.8" font-family="Times,serif" font-size="14.00">have not already done so and ensure</text>
<text text-anchor="start" x="693" y="-811.8" font-family="Times,serif" font-size="14.00">the public key is accessible to Justin.</text>
</a>
</g>
</g>
<!-- reply_br&#45;&gt;gen_key -->
<g id="edge12" class="edge"><title>reply_br&#45;&gt;gen_key</title>
<path fill="none" stroke="green" d="M797,-1018.86C797,-988.68 797,-925.187 797,-882.305"/>
<polygon fill="green" stroke="green" points="800.5,-882.148 797,-872.148 793.5,-882.148 800.5,-882.148"/>
<text text-anchor="middle" x="807.5" y="-893.8" font-family="Times,serif" font-size="14.00" fill="green">Yes</text>
</g>
<!-- pdf_acquire_key -->
<g id="node22" class="node"><title>pdf_acquire_key</title>
<g id="a_node22"><a xlink:show="new" id="pdflink-svg" xlink:href="https://alchemistanaut.github.io/data/pubkeys_aes.pdf" xlink:title="Clicking this will open a PDF container holding keys to choose from. &#160;Warning: if using an old browser, you may have to download the PDF and view in an external viewer.">
<path fill="lavenderblush" stroke="black" d="M1250.5,-491C1250.5,-491 1149.5,-491 1149.5,-491 1143.5,-491 1137.5,-485 1137.5,-479 1137.5,-479 1137.5,-425 1137.5,-425 1137.5,-419 1143.5,-413 1149.5,-413 1149.5,-413 1250.5,-413 1250.5,-413 1256.5,-413 1262.5,-419 1262.5,-425 1262.5,-425 1262.5,-479 1262.5,-479 1262.5,-485 1256.5,-491 1250.5,-491"/>
<text text-anchor="start" x="1145.5" y="-476.8" font-family="Times,serif" font-size="14.00">Import Justin&#39;s key.</text>
<text text-anchor="start" x="1145.5" y="-462.8" font-family="Times,serif" font-size="14.00">Click on this node</text>
<text text-anchor="start" x="1145.5" y="-448.8" font-family="Times,serif" font-size="14.00">and use password</text>
<text text-anchor="start" x="1145.5" y="-434.8" font-family="Courier,monospace" font-size="14.00">wildthing</text>
<text text-anchor="start" x="1145.5" y="-420.8" font-family="Times,serif" font-size="14.00">to open the PDF.</text>
</a>
</g>
</g>
<!-- keyimportchoice_br&#45;&gt;pdf_acquire_key -->
<g id="edge18" class="edge"><title>keyimportchoice_br&#45;&gt;pdf_acquire_key</title>
<path fill="none" stroke="black" d="M1156.81,-564.051C1162.89,-548.423 1172.75,-523.08 1181.51,-500.549"/>
<polygon fill="black" stroke="black" points="1184.82,-501.689 1185.18,-491.101 1178.3,-499.152 1184.82,-501.689"/>
</g>
<!-- acquire_by_email -->
<g id="node23" class="node"><title>acquire_by_email</title>
<g id="a_node23"><a xlink:title="Be sure to tell Justin whether you need a PGP key or an S/MIME certificate, or tell him your mail client. &#160;E&#45;mailing is probably easier than the self&#45;service PDF option, but obviously it&#39;s not instant.">
<path fill="lavenderblush" stroke="black" d="M1107,-473.5C1107,-473.5 987,-473.5 987,-473.5 981,-473.5 975,-467.5 975,-461.5 975,-461.5 975,-442.5 975,-442.5 975,-436.5 981,-430.5 987,-430.5 987,-430.5 1107,-430.5 1107,-430.5 1113,-430.5 1119,-436.5 1119,-442.5 1119,-442.5 1119,-461.5 1119,-461.5 1119,-467.5 1113,-473.5 1107,-473.5"/>
<image xlink:href="https://alchemistanaut.github.io/images/node_item_suprt_ea.png" width="144px" height="43px" preserveAspectRatio="xMinYMin meet" x="975" y="-473.5"/>
<text text-anchor="middle" x="1047" y="-462.3" font-family="Times,serif" font-size="14.00">Ask Justin for a key at:</text>
</a>
</g>
</g>
<!-- keyimportchoice_br&#45;&gt;acquire_by_email -->
<g id="edge19" class="edge"><title>keyimportchoice_br&#45;&gt;acquire_by_email</title>
<path fill="none" stroke="black" d="M1139.87,-565.516C1123.44,-545.609 1092.3,-507.884 1070.63,-481.632"/>
<polygon fill="black" stroke="black" points="1073.3,-479.37 1064.24,-473.886 1067.91,-483.826 1073.3,-479.37"/>
</g>
<!-- start -->
<g id="node17" class="node"><title>start</title>
<g id="a_node17"><a xlink:title="Keep calm, carry on..">
<polygon fill="lavenderblush" stroke="black" points="736,-1819.64 557,-1766.64 736,-1713.64 915,-1766.64 736,-1819.64"/>
<polyline fill="none" stroke="black" points="568.506,-1770.05 568.506,-1763.23 "/>
<polyline fill="none" stroke="black" points="724.494,-1717.05 747.506,-1717.05 "/>
<polyline fill="none" stroke="black" points="903.494,-1763.23 903.494,-1770.05 "/>
<polyline fill="none" stroke="black" points="747.506,-1816.23 724.494,-1816.23 "/>
<text text-anchor="start" x="654.5" y="-1777.94" font-family="Times,serif" font-size="14.00">Do you need to e&#45;mail Justin?</text>
<text text-anchor="start" x="672.5" y="-1762.94" font-family="Times,serif" font-size="14.00">(However unfortunate,</text>
<text text-anchor="start" x="668" y="-1747.94" font-family="Times,serif" font-size="14.00">you&#39;re in the right place)</text>
</a>
</g>
</g>
<!-- start&#45;&gt;directsend_br -->
<g id="edge1" class="edge"><title>start&#45;&gt;directsend_br</title>
<path fill="none" stroke="black" d="M736,-1713.25C736,-1700.58 736,-1686.76 736,-1673.21"/>
<polygon fill="black" stroke="black" points="739.5,-1672.91 736,-1662.91 732.5,-1672.91 739.5,-1672.91"/>
<text text-anchor="middle" x="746.5" y="-1684.44" font-family="Times,serif" font-size="14.00">Yes</text>
</g>
<!-- sharing_act -->
<g id="node19" class="node"><title>sharing_act</title>
<g id="a_node19"><a xlink:title="Exceptionally, if it&#39;s a key&#45;signing party then simply follow the path of a normal e&#45;mail.">
<path fill="lavenderblush" stroke="black" d="M873,-1300C873,-1300 663,-1300 663,-1300 657,-1300 651,-1294 651,-1288 651,-1288 651,-1214 651,-1214 651,-1208 657,-1202 663,-1202 663,-1202 873,-1202 873,-1202 879,-1202 885,-1208 885,-1214 885,-1214 885,-1288 885,-1288 885,-1294 879,-1300 873,-1300"/>
<text text-anchor="start" x="659" y="-1284.8" font-family="Times,serif" font-size="14.00">Justin has unique special&#45;purpose</text>
<text text-anchor="start" x="659" y="-1269.8" font-family="Times,serif" font-size="14.00">addresses for these types of use cases.</text>
<text text-anchor="start" x="659" y="-1254.8" font-family="Times,serif" font-size="14.00">Send him a normal e&#45;mail first</text>
<text text-anchor="start" x="659" y="-1239.8" font-family="Times,serif" font-size="14.00">to request a suitable (abusable) address.</text>
<text text-anchor="start" x="659" y="-1224.8" font-family="Times,serif" font-size="14.00">(if you are sharing his address with</text>
<text text-anchor="end" x="877" y="-1209.8" font-family="Times,serif" font-size="14.00">a human, share this diagram instead)</text>
</a>
</g>
</g>
<!-- sharing&#45;&gt;sharing_act -->
<g id="edge4" class="edge"><title>sharing&#45;&gt;sharing_act</title>
<path fill="none" stroke="black" d="M853.951,-1339.85C843.341,-1329.01 832.432,-1317.86 822.098,-1307.3"/>
<polygon fill="black" stroke="black" points="824.541,-1304.79 815.046,-1300.09 819.538,-1309.68 824.541,-1304.79"/>
</g>
<!-- sharing_act&#45;&gt;directsend_br -->
<g id="edge7" class="edge"><title>sharing_act&#45;&gt;directsend_br</title>
<path fill="none" stroke="black" d="M738.664,-1300.39C733.022,-1311.99 727.955,-1324.61 725,-1337 710.569,-1397.49 715.125,-1468.24 722.263,-1520.11"/>
<polygon fill="black" stroke="black" points="718.83,-1520.83 723.721,-1530.23 725.759,-1519.83 718.83,-1520.83"/>
</g>
<!-- gen_key&#45;&gt;pgpnote -->
<g id="edge22" class="edge"><title>gen_key&#45;&gt;pgpnote</title>
<path fill="none" stroke="black" stroke-dasharray="1,5" d="M746.381,-803.816C726.936,-791.069 704.436,-776.319 683.707,-762.73"/>
</g>
<!-- gen_key&#45;&gt;smimenote -->
<g id="edge21" class="edge"><title>gen_key&#45;&gt;smimenote</title>
<path fill="none" stroke="black" stroke-dasharray="1,5" d="M797,-803.816C797,-787.729 797,-768.452 797,-752.343"/>
</g>
<!-- gen_key&#45;&gt;firsttime_br -->
<g id="edge20" class="edge"><title>gen_key&#45;&gt;firsttime_br</title>
<path fill="none" stroke="green" d="M896.079,-803.974C949.499,-786.167 1014.75,-764.417 1065.86,-747.379"/>
<polygon fill="green" stroke="green" points="1067.18,-750.629 1075.56,-744.146 1064.97,-743.988 1067.18,-750.629"/>
</g>
<!-- ea_forced_ea_short&#45;&gt;celebrate -->
<g id="edge29" class="edge"><title>ea_forced_ea_short&#45;&gt;celebrate</title>
<path fill="none" stroke="green" d="M1227.24,-268.336C1210.42,-251.277 1182.91,-226.426 1154,-213 1075.66,-176.618 1043.91,-200.213 957.371,-176.032"/>
<polygon fill="green" stroke="green" points="958.268,-172.648 947.687,-173.194 956.299,-179.366 958.268,-172.648"/>
</g>
<!-- pdf_acquire_key&#45;&gt;ea_forced_ea_short -->
<g id="edge28" class="edge"><title>pdf_acquire_key&#45;&gt;ea_forced_ea_short</title>
<path fill="none" stroke="black" d="M1210.32,-412.901C1218.3,-383.419 1229.17,-343.258 1236.38,-316.637"/>
<polygon fill="black" stroke="black" points="1239.81,-317.375 1239.04,-306.808 1233.05,-315.545 1239.81,-317.375"/>
</g>
<!-- acquire_by_email&#45;&gt;ea_forced_ea_short -->
<g id="edge31" class="edge"><title>acquire_by_email&#45;&gt;ea_forced_ea_short</title>
<path fill="none" stroke="black" d="M1071.95,-430.419C1108.2,-400.52 1175.32,-345.154 1214.14,-313.129"/>
<polygon fill="black" stroke="black" points="1216.49,-315.73 1221.98,-306.667 1212.04,-310.33 1216.49,-315.73"/>
</g>
<!-- keybase&#45;&gt;crypto_ea -->
<g id="edge27" class="edge"><title>keybase&#45;&gt;crypto_ea</title>
<path fill="none" stroke="black" d="M422.127,-418.631C496.642,-403.638 585.053,-384.644 673.308,-362.139"/>
<polygon fill="black" stroke="black" points="674.415,-365.468 683.232,-359.593 672.676,-358.687 674.415,-365.468"/>
</g>
</g>
</svg>
