<?xml version="1.0" encoding="UTF-8" standalone="no"?>
<!DOCTYPE svg PUBLIC "-//W3C//DTD SVG 1.1//EN"
 "http://www.w3.org/Graphics/SVG/1.1/DTD/svg11.dtd">
<!-- Generated by graphviz version 2.38.0 (20140413.2041)
 -->
<!-- Title: How to E&#45;mail Justin Pages: 1 -->
<svg width="1514pt" height="1828pt"
 viewBox="0.00 0.00 1513.50 1827.64" xmlns="http://www.w3.org/2000/svg" xmlns:xlink="http://www.w3.org/1999/xlink">
<g id="graph0" class="graph" transform="scale(1 1) rotate(0) translate(4 1823.64)">
<title>How to E&#45;mail Justin</title>
<polygon fill="#fffacd" stroke="none" points="-4,4 -4,-1823.64 1509.5,-1823.64 1509.5,4 -4,4"/>
<!-- green_anchor -->
<g id="node1" class="node"><title>green_anchor</title>
<ellipse fill="black" stroke="black" cx="543.5" cy="-1406.32" rx="0.36" ry="0.36"/>
</g>
<!-- crypto_mua_br -->
<g id="node10" class="node"><title>crypto_mua_br</title>
<g id="a_node10"><a xlink:title="Ideally yes; mail clients are more secure than webmail and more convenient for both parties.">
<path fill="wheat" stroke="black" d="M531.728,-1286.67C531.728,-1286.67 363.272,-1253.33 363.272,-1253.33 357.386,-1252.16 357.386,-1249.84 363.272,-1248.67 363.272,-1248.67 531.728,-1215.33 531.728,-1215.33 537.614,-1214.16 549.386,-1214.16 555.272,-1215.33 555.272,-1215.33 723.728,-1248.67 723.728,-1248.67 729.614,-1249.84 729.614,-1252.16 723.728,-1253.33 723.728,-1253.33 555.272,-1286.67 555.272,-1286.67 549.386,-1287.84 537.614,-1287.84 531.728,-1286.67"/>
<text text-anchor="start" x="466" y="-1254.8" font-family="Times,serif" font-size="14.00">Are you using a proper PGP</text>
<text text-anchor="start" x="455.5" y="-1239.8" font-family="Times,serif" font-size="14.00">or S/MIME capable mail client?</text>
</a>
</g>
</g>
<!-- green_anchor&#45;&gt;crypto_mua_br -->
<g id="edge5" class="edge"><title>green_anchor&#45;&gt;crypto_mua_br</title>
<path fill="none" stroke="green" d="M543.5,-1405.21C543.5,-1402.31 543.5,-1343.41 543.5,-1299.5"/>
<polygon fill="green" stroke="green" points="547,-1299.27 543.5,-1289.27 540,-1299.27 547,-1299.27"/>
</g>
<!-- crypto_ea -->
<g id="node2" class="node"><title>crypto_ea</title>
<g id="a_node2"><a xlink:title="The different addresses help Justin filter and reduce impact on others if one address is attacked, but there is no difference as far as spam scoring. &#160;The rasterized script font is to mitigate OCR&#45;capable bot&#45;executed address harvesting (to some extent).">
<polygon fill="none" stroke="black" points="1259,-362 798,-362 798,-213 1259,-213 1259,-362"/>
<image xlink:href="https://alchemistanaut.github.io/images/node_email_addresses.png" width="461px" height="149px" preserveAspectRatio="xMinYMin meet" x="798" y="-362"/>
</a>
</g>
</g>
<!-- celebrate -->
<g id="node24" class="node"><title>celebrate</title>
<g id="a_node24"><a xlink:title="yay!">
<polygon fill="powderblue" stroke="black" points="1062,-175 995,-175 995,-139 1062,-139 1062,-175"/>
<polyline fill="none" stroke="black" points="1007,-175 995,-163 "/>
<polyline fill="none" stroke="black" points="995,-151 1007,-139 "/>
<polyline fill="none" stroke="black" points="1050,-139 1062,-151 "/>
<polyline fill="none" stroke="black" points="1062,-163 1050,-175 "/>
<text text-anchor="middle" x="1028.5" y="-153.3" font-family="Times,serif" font-size="14.00">celebrate</text>
</a>
</g>
</g>
<!-- crypto_ea&#45;&gt;celebrate -->
<g id="edge30" class="edge"><title>crypto_ea&#45;&gt;celebrate</title>
<path fill="none" stroke="green" d="M1028.5,-212.868C1028.5,-203.043 1028.5,-193.516 1028.5,-185.235"/>
<polygon fill="green" stroke="green" points="1032,-185.145 1028.5,-175.145 1025,-185.145 1032,-185.145"/>
</g>
<!-- web_ea -->
<g id="node3" class="node"><title>web_ea</title>
<g id="a_node3"><a xlink:title="The script font is to mitigate OCR&#45;capable bot&#45;executed address harvesting (to some extent).">
<polygon fill="none" stroke="black" points="779.5,-336.5 339.5,-336.5 339.5,-238.5 779.5,-238.5 779.5,-336.5"/>
<image xlink:href="https://alchemistanaut.github.io/images/node_webmail_addresses.png" width="440px" height="98px" preserveAspectRatio="xMinYMin meet" x="339.5" y="-336.5"/>
</a>
</g>
</g>
<!-- webnote -->
<g id="node5" class="node"><title>webnote</title>
<g id="a_node5"><a xlink:title="All gombos.info accounts are checked daily. &#160;The other two require Justin to do a manual web login. &#160;Protonmail have daily notifications, so Justin&#39;s response time is ~2 days. &#160;Tutanota does not, it could take ~2&#45;3 weeks before a msg is spotted.">
<polygon fill="#eeee00" stroke="black" points="655,-176 458,-176 458,-138 661,-138 661,-170 655,-176"/>
<polyline fill="none" stroke="black" points="655,-176 655,-170 "/>
<polyline fill="none" stroke="black" points="661,-170 655,-170 "/>
<text text-anchor="start" x="466" y="-160.8" font-family="Times,serif" font-size="14.00">Note: expect a slow response time</text>
<text text-anchor="start" x="466" y="-145.8" font-family="Times,serif" font-size="14.00">for protonmail or tutanota.</text>
</a>
</g>
</g>
<!-- web_ea&#45;&gt;webnote -->
<g id="edge23" class="edge"><title>web_ea&#45;&gt;webnote</title>
<path fill="none" stroke="black" stroke-dasharray="1,5" d="M559.5,-238.286C559.5,-216.636 559.5,-192.392 559.5,-176.266"/>
</g>
<!-- web_ea&#45;&gt;celebrate -->
<g id="edge24" class="edge"><title>web_ea&#45;&gt;celebrate</title>
<path fill="none" stroke="black" d="M703.421,-238.486C731.825,-229.583 761.505,-220.68 789.5,-213 857.018,-194.478 936.405,-177.058 984.558,-166.967"/>
<polygon fill="black" stroke="black" points="985.561,-170.333 994.636,-164.866 984.132,-163.48 985.561,-170.333"/>
</g>
<!-- greennote -->
<g id="node4" class="node"><title>greennote</title>
<g id="a_node4"><a xlink:title="The quickest one&#45;off msg approach is to use keybase, but you won&#39;t have a readable saved copy of what you sent.">
<polygon fill="#eeee00" stroke="black" points="609.5,-1628.64 367.5,-1628.64 367.5,-1560.64 615.5,-1560.64 615.5,-1622.64 609.5,-1628.64"/>
<polyline fill="none" stroke="black" points="609.5,-1628.64 609.5,-1622.64 "/>
<polyline fill="none" stroke="black" points="615.5,-1622.64 609.5,-1622.64 "/>
<text text-anchor="start" x="375.5" y="-1613.44" font-family="Times,serif" font-size="14.00">Note: the green path through this diagram</text>
<text text-anchor="start" x="375.5" y="-1598.44" font-family="Times,serif" font-size="14.00">indicates the most convenient for regular</text>
<text text-anchor="start" x="375.5" y="-1583.44" font-family="Times,serif" font-size="14.00">long&#45;term sustained correspondence,</text>
<text text-anchor="start" x="375.5" y="-1568.44" font-family="Times,serif" font-size="14.00">at the cost of higher initial setup effort.</text>
</a>
</g>
</g>
<!-- greennote&#45;&gt;green_anchor -->
<g id="edge6" class="edge"><title>greennote&#45;&gt;green_anchor</title>
<path fill="none" stroke="black" stroke-dasharray="1,5" d="M500.797,-1560.33C515.52,-1507.58 542.636,-1410.42 543.48,-1407.39"/>
</g>
<!-- muanote -->
<g id="node6" class="node"><title>muanote</title>
<g id="a_node6"><a xlink:show="new" xlink:href="https://en.wikipedia.org/wiki/Comparison_of_e-mail_clients#General_features" xlink:title="Clicking this node goes to a wiki showing a table of MUAs with columns indicating S/MIME and PGP support">
<polygon fill="#eeee00" stroke="black" points="509,-1151 0,-1151 0,-923 515,-923 515,-1145 509,-1151"/>
<polyline fill="none" stroke="black" points="509,-1151 509,-1145 "/>
<polyline fill="none" stroke="black" points="515,-1145 509,-1145 "/>
<image xlink:href="https://alchemistanaut.github.io/images/node_muas.png" width="515px" height="228px" preserveAspectRatio="xMinYMin meet" x="0" y="-1151"/>
</a>
</g>
</g>
<!-- pgpnote -->
<g id="node7" class="node"><title>pgpnote</title>
<g id="a_node7"><a xlink:title="PGP key generation is a simple process.">
<polygon fill="#eeee00" stroke="black" points="792,-767 665,-767 665,-669 798,-669 798,-761 792,-767"/>
<polyline fill="none" stroke="black" points="792,-767 792,-761 "/>
<polyline fill="none" stroke="black" points="798,-761 792,-761 "/>
<text text-anchor="start" x="673" y="-751.8" font-family="Times,serif" font-size="14.00">PGP users: once you</text>
<text text-anchor="start" x="673" y="-736.8" font-family="Times,serif" font-size="14.00">have a key pair, you</text>
<text text-anchor="start" x="673" y="-721.8" font-family="Times,serif" font-size="14.00">can send your public</text>
<text text-anchor="start" x="673" y="-706.8" font-family="Times,serif" font-size="14.00">key as an attachment</text>
<text text-anchor="start" x="673" y="-691.8" font-family="Times,serif" font-size="14.00">or publish it on a</text>
<text text-anchor="start" x="673" y="-676.8" font-family="Times,serif" font-size="14.00">keyserver.</text>
</a>
</g>
</g>
<!-- smimenote -->
<g id="node8" class="node"><title>smimenote</title>
<g id="a_node8"><a xlink:title="S/MIME key generation is a little more tedious, although it&#39;s easy to send your public key.">
<polygon fill="#eeee00" stroke="black" points="1001,-752 816,-752 816,-684 1007,-684 1007,-746 1001,-752"/>
<polyline fill="none" stroke="black" points="1001,-752 1001,-746 "/>
<polyline fill="none" stroke="black" points="1007,-746 1001,-746 "/>
<text text-anchor="start" x="824" y="-736.8" font-family="Times,serif" font-size="14.00">S/MIME users: once you have</text>
<text text-anchor="start" x="824" y="-721.8" font-family="Times,serif" font-size="14.00">a key pair, simply signing your</text>
<text text-anchor="start" x="824" y="-706.8" font-family="Times,serif" font-size="14.00">first msg will automatically</text>
<text text-anchor="start" x="824" y="-691.8" font-family="Times,serif" font-size="14.00">supply your public key to Justin.</text>
</a>
</g>
</g>
<!-- directsend_br -->
<g id="node9" class="node"><title>directsend_br</title>
<g id="a_node9"><a xlink:title="hopefully yes">
<path fill="wheat" stroke="black" d="M839.049,-1659.05C839.049,-1659.05 644.951,-1598.23 644.951,-1598.23 639.225,-1596.43 639.225,-1592.85 644.951,-1591.05 644.951,-1591.05 839.049,-1530.23 839.049,-1530.23 844.775,-1528.43 856.225,-1528.43 861.951,-1530.23 861.951,-1530.23 1056.05,-1591.05 1056.05,-1591.05 1061.77,-1592.85 1061.77,-1596.43 1056.05,-1598.23 1056.05,-1598.23 861.951,-1659.05 861.951,-1659.05 856.225,-1660.85 844.775,-1660.85 839.049,-1659.05"/>
<text text-anchor="start" x="782" y="-1613.44" font-family="Times,serif" font-size="14.00">Are you writing a typical</text>
<text text-anchor="start" x="781" y="-1598.44" font-family="Times,serif" font-size="14.00">human&#45;generated e&#45;mail,</text>
<text text-anchor="start" x="750" y="-1583.44" font-family="Times,serif" font-size="14.00">sent from a mail client or web&#45;based</text>
<text text-anchor="start" x="781" y="-1568.44" font-family="Times,serif" font-size="14.00">dedicated e&#45;mail service?</text>
</a>
</g>
</g>
<!-- directsend_br&#45;&gt;green_anchor -->
<g id="edge3" class="edge"><title>directsend_br&#45;&gt;green_anchor</title>
<path fill="none" stroke="green" d="M777.356,-1549.25C687.97,-1495 547.958,-1410.03 543.604,-1407.38"/>
<text text-anchor="middle" x="717" y="-1497.44" font-family="Times,serif" font-size="14.00" fill="green">Yes</text>
</g>
<!-- sharing -->
<g id="node18" class="node"><title>sharing</title>
<g id="a_node18"><a xlink:title="Sharing? &#160;yikes!">
<path fill="lavenderblush" stroke="black" d="M1050.71,-1337.41C1050.71,-1337.41 1059.61,-1337.71 1059.61,-1337.71 1060.21,-1337.73 1061.39,-1337.78 1061.98,-1337.81 1061.98,-1337.81 1070.77,-1338.25 1070.77,-1338.25 1071.36,-1338.28 1072.54,-1338.35 1073.13,-1338.39 1073.13,-1338.39 1081.76,-1338.99 1081.76,-1338.99 1082.35,-1339.03 1083.53,-1339.12 1084.12,-1339.17 1084.12,-1339.17 1092.55,-1339.9 1092.55,-1339.9 1093.14,-1339.95 1094.32,-1340.07 1094.91,-1340.13 1094.91,-1340.13 1103.09,-1341 1103.09,-1341 1103.68,-1341.06 1104.85,-1341.2 1105.44,-1341.27 1105.44,-1341.27 1113.34,-1342.27 1113.34,-1342.27 1113.93,-1342.35 1115.1,-1342.51 1115.68,-1342.59 1115.68,-1342.59 1123.26,-1343.72 1123.26,-1343.72 1123.84,-1343.81 1125.01,-1343.99 1125.59,-1344.09 1125.59,-1344.09 1132.8,-1345.34 1132.8,-1345.34 1133.39,-1345.44 1134.55,-1345.65 1135.13,-1345.77 1135.13,-1345.77 1141.95,-1347.12 1141.95,-1347.12 1142.53,-1347.23 1143.69,-1347.48 1144.26,-1347.61 1144.26,-1347.61 1150.66,-1349.06 1150.66,-1349.06 1151.24,-1349.19 1152.39,-1349.47 1152.96,-1349.62 1152.96,-1349.62 1158.9,-1351.15 1158.9,-1351.15 1159.48,-1351.3 1160.62,-1351.62 1161.18,-1351.78 1161.18,-1351.78 1166.65,-1353.39 1166.65,-1353.39 1167.22,-1353.56 1168.35,-1353.92 1168.91,-1354.1 1168.91,-1354.1 1173.89,-1355.77 1173.89,-1355.77 1174.45,-1355.96 1175.56,-1356.36 1176.11,-1356.57 1176.11,-1356.57 1180.58,-1358.29 1180.58,-1358.29 1181.14,-1358.5 1182.23,-1358.95 1182.77,-1359.19 1182.77,-1359.19 1186.72,-1360.93 1186.72,-1360.93 1187.27,-1361.16 1188.34,-1361.67 1188.86,-1361.94 1188.86,-1361.94 1192.3,-1363.68 1192.3,-1363.68 1192.83,-1363.95 1193.86,-1364.52 1194.37,-1364.82 1194.37,-1364.82 1197.29,-1366.54 1197.29,-1366.54 1197.8,-1366.84 1198.8,-1367.48 1199.28,-1367.82 1199.28,-1367.82 1201.71,-1369.51 1201.71,-1369.51 1202.19,-1369.84 1203.13,-1370.56 1203.58,-1370.94 1203.58,-1370.94 1205.53,-1372.56 1205.53,-1372.56 1205.99,-1372.94 1206.85,-1373.74 1207.27,-1374.16 1207.27,-1374.16 1208.77,-1375.7 1208.77,-1375.7 1209.19,-1376.12 1209.96,-1377.01 1210.32,-1377.48 1210.32,-1377.48 1211.43,-1378.92 1211.43,-1378.92 1211.8,-1379.38 1212.45,-1380.36 1212.75,-1380.88 1212.75,-1380.88 1213.52,-1382.21 1213.52,-1382.21 1213.82,-1382.72 1214.33,-1383.78 1214.55,-1384.33 1214.55,-1384.33 1215.05,-1385.58 1215.05,-1385.58 1215.26,-1386.13 1215.61,-1387.25 1215.74,-1387.83 1215.74,-1387.83 1216.01,-1389.02 1216.01,-1389.02 1216.14,-1389.6 1216.3,-1390.76 1216.34,-1391.35 1216.34,-1391.35 1216.41,-1392.54 1216.41,-1392.54 1216.44,-1393.13 1216.42,-1394.3 1216.36,-1394.89 1216.36,-1394.89 1216.24,-1396.12 1216.24,-1396.12 1216.19,-1396.7 1215.99,-1397.87 1215.84,-1398.44 1215.84,-1398.44 1215.52,-1399.75 1215.52,-1399.75 1215.38,-1400.32 1215.02,-1401.44 1214.81,-1402 1214.81,-1402 1214.25,-1403.41 1214.25,-1403.41 1214.04,-1403.96 1213.55,-1405.03 1213.27,-1405.55 1213.27,-1405.55 1212.46,-1407.09 1212.46,-1407.09 1212.18,-1407.61 1211.58,-1408.62 1211.25,-1409.12 1211.25,-1409.12 1210.16,-1410.76 1210.16,-1410.76 1209.83,-1411.25 1209.13,-1412.21 1208.77,-1412.67 1208.77,-1412.67 1207.37,-1414.42 1207.37,-1414.42 1207,-1414.89 1206.24,-1415.78 1205.83,-1416.22 1205.83,-1416.22 1204.14,-1418.06 1204.14,-1418.06 1203.74,-1418.49 1202.91,-1419.33 1202.48,-1419.74 1202.48,-1419.74 1200.47,-1421.65 1200.47,-1421.65 1200.04,-1422.06 1199.17,-1422.85 1198.72,-1423.23 1198.72,-1423.23 1196.41,-1425.2 1196.41,-1425.2 1195.96,-1425.58 1195.04,-1426.32 1194.57,-1426.69 1194.57,-1426.69 1191.97,-1428.69 1191.97,-1428.69 1191.51,-1429.05 1190.55,-1429.75 1190.07,-1430.09 1190.07,-1430.09 1187.19,-1432.11 1187.19,-1432.11 1186.71,-1432.45 1185.73,-1433.11 1185.23,-1433.43 1185.23,-1433.43 1182.09,-1435.46 1182.09,-1435.46 1181.6,-1435.78 1180.59,-1436.4 1180.08,-1436.7 1180.08,-1436.7 1176.7,-1438.72 1176.7,-1438.72 1176.19,-1439.02 1175.17,-1439.61 1174.65,-1439.89 1174.65,-1439.89 1171.04,-1441.89 1171.04,-1441.89 1170.52,-1442.17 1169.47,-1442.73 1168.95,-1443 1168.95,-1443 1165.13,-1444.96 1165.13,-1444.96 1164.6,-1445.23 1163.54,-1445.75 1163.01,-1446 1163.01,-1446 1159,-1447.92 1159,-1447.92 1158.46,-1448.17 1157.39,-1448.66 1156.85,-1448.9 1156.85,-1448.9 1152.67,-1450.76 1152.67,-1450.76 1152.13,-1451 1151.04,-1451.46 1150.49,-1451.69 1150.49,-1451.69 1146.16,-1453.48 1146.16,-1453.48 1145.61,-1453.7 1144.51,-1454.14 1143.96,-1454.35 1143.96,-1454.35 1139.49,-1456.07 1139.49,-1456.07 1138.94,-1456.28 1137.83,-1456.69 1137.27,-1456.89 1137.27,-1456.89 1132.68,-1458.52 1132.68,-1458.52 1132.12,-1458.72 1131.01,-1459.1 1130.44,-1459.28 1130.44,-1459.28 1125.75,-1460.82 1125.75,-1460.82 1125.19,-1461.01 1124.06,-1461.36 1123.49,-1461.53 1123.49,-1461.53 1118.71,-1462.98 1118.71,-1462.98 1118.14,-1463.15 1117.01,-1463.48 1116.44,-1463.64 1116.44,-1463.64 1111.57,-1464.98 1111.57,-1464.98 1111,-1465.14 1109.86,-1465.44 1109.29,-1465.58 1109.29,-1465.58 1104.36,-1466.82 1104.36,-1466.82 1103.79,-1466.96 1102.64,-1467.23 1102.06,-1467.36 1102.06,-1467.36 1097.08,-1468.49 1097.08,-1468.49 1096.5,-1468.62 1095.35,-1468.86 1094.77,-1468.98 1094.77,-1468.98 1089.74,-1469.99 1089.74,-1469.99 1089.16,-1470.1 1088,-1470.32 1087.42,-1470.42 1087.42,-1470.42 1082.35,-1471.31 1082.35,-1471.31 1081.77,-1471.42 1080.6,-1471.61 1080.02,-1471.69 1080.02,-1471.69 1074.93,-1472.46 1074.93,-1472.46 1074.34,-1472.55 1073.17,-1472.71 1072.58,-1472.78 1072.58,-1472.78 1067.47,-1473.43 1067.47,-1473.43 1066.88,-1473.5 1065.71,-1473.63 1065.12,-1473.69 1065.12,-1473.69 1059.99,-1474.21 1059.99,-1474.21 1059.4,-1474.27 1058.22,-1474.37 1057.63,-1474.42 1057.63,-1474.42 1052.48,-1474.8 1052.48,-1474.8 1051.89,-1474.85 1050.71,-1474.92 1050.12,-1474.95 1050.12,-1474.95 1044.97,-1475.21 1044.97,-1475.21 1044.38,-1475.24 1043.2,-1475.29 1042.61,-1475.3 1042.61,-1475.3 1037.45,-1475.43 1037.45,-1475.43 1036.85,-1475.45 1035.67,-1475.46 1035.08,-1475.46 1035.08,-1475.46 1029.92,-1475.46 1029.92,-1475.46 1029.33,-1475.46 1028.15,-1475.45 1027.55,-1475.43 1027.55,-1475.43 1022.39,-1475.3 1022.39,-1475.3 1021.8,-1475.29 1020.62,-1475.24 1020.03,-1475.21 1020.03,-1475.21 1014.88,-1474.95 1014.88,-1474.95 1014.29,-1474.92 1013.11,-1474.85 1012.52,-1474.8 1012.52,-1474.8 1007.37,-1474.42 1007.37,-1474.42 1006.78,-1474.37 1005.6,-1474.27 1005.01,-1474.21 1005.01,-1474.21 999.882,-1473.69 999.882,-1473.69 999.293,-1473.63 998.118,-1473.5 997.531,-1473.43 997.531,-1473.43 992.416,-1472.78 992.416,-1472.78 991.83,-1472.71 990.658,-1472.55 990.073,-1472.46 990.073,-1472.46 984.981,-1471.69 984.981,-1471.69 984.397,-1471.61 983.229,-1471.42 982.647,-1471.31 982.647,-1471.31 977.585,-1470.42 977.585,-1470.42 977.002,-1470.32 975.84,-1470.1 975.26,-1469.99 975.26,-1469.99 970.234,-1468.98 970.234,-1468.98 969.654,-1468.86 968.498,-1468.62 967.921,-1468.49 967.921,-1468.49 962.94,-1467.36 962.94,-1467.36 962.363,-1467.23 961.213,-1466.96 960.639,-1466.82 960.639,-1466.82 955.713,-1465.58 955.713,-1465.58 955.139,-1465.44 953.995,-1465.14 953.425,-1464.98 953.425,-1464.98 948.564,-1463.64 948.564,-1463.64 947.994,-1463.48 946.858,-1463.15 946.292,-1462.98 946.292,-1462.98 941.507,-1461.53 941.507,-1461.53 940.941,-1461.36 939.813,-1461.01 939.251,-1460.82 939.251,-1460.82 934.557,-1459.28 934.557,-1459.28 933.995,-1459.1 932.876,-1458.72 932.319,-1458.52 932.319,-1458.52 927.728,-1456.89 927.728,-1456.89 927.171,-1456.69 926.062,-1456.28 925.51,-1456.07 925.51,-1456.07 921.039,-1454.35 921.039,-1454.35 920.487,-1454.14 919.388,-1453.7 918.841,-1453.48 918.841,-1453.48 914.507,-1451.69 914.507,-1451.69 913.96,-1451.46 912.873,-1451 912.332,-1450.76 912.332,-1450.76 908.151,-1448.9 908.151,-1448.9 907.61,-1448.66 906.536,-1448.17 906.002,-1447.92 906.002,-1447.92 901.992,-1446 901.992,-1446 901.458,-1445.75 900.398,-1445.23 899.872,-1444.96 899.872,-1444.96 896.052,-1443 896.052,-1443 895.525,-1442.73 894.481,-1442.17 893.964,-1441.89 893.964,-1441.89 890.352,-1439.89 890.352,-1439.89 889.834,-1439.61 888.808,-1439.02 888.3,-1438.72 888.3,-1438.72 884.916,-1436.7 884.916,-1436.7 884.408,-1436.4 883.403,-1435.78 882.906,-1435.46 882.906,-1435.46 879.767,-1433.43 879.767,-1433.43 879.271,-1433.11 878.29,-1432.45 877.806,-1432.11 877.806,-1432.11 874.93,-1430.09 874.93,-1430.09 874.446,-1429.75 873.494,-1429.05 873.025,-1428.69 873.025,-1428.69 870.428,-1426.69 870.428,-1426.69 869.959,-1426.32 869.04,-1425.58 868.59,-1425.2 868.59,-1425.2 866.284,-1423.23 866.284,-1423.23 865.834,-1422.85 864.955,-1422.06 864.527,-1421.65 864.527,-1421.65 862.522,-1419.74 862.522,-1419.74 862.094,-1419.33 861.265,-1418.49 860.864,-1418.06 860.864,-1418.06 859.166,-1416.22 859.166,-1416.22 858.764,-1415.78 857.995,-1414.89 857.627,-1414.42 857.627,-1414.42 856.235,-1412.67 856.235,-1412.67 855.867,-1412.21 855.171,-1411.25 854.844,-1410.76 854.844,-1410.76 853.75,-1409.12 853.75,-1409.12 853.423,-1408.62 852.818,-1407.61 852.541,-1407.09 852.541,-1407.09 851.73,-1405.55 851.73,-1405.55 851.453,-1405.03 850.961,-1403.96 850.745,-1403.41 850.745,-1403.41 850.192,-1402 850.192,-1402 849.977,-1401.44 849.62,-1400.32 849.478,-1399.75 849.478,-1399.75 849.155,-1398.44 849.155,-1398.44 849.013,-1397.87 848.814,-1396.7 848.757,-1396.12 848.757,-1396.12 848.638,-1394.89 848.638,-1394.89 848.581,-1394.3 848.559,-1393.13 848.594,-1392.54 848.594,-1392.54 848.664,-1391.35 848.664,-1391.35 848.699,-1390.76 848.864,-1389.6 848.993,-1389.02 848.993,-1389.02 849.259,-1387.83 849.259,-1387.83 849.388,-1387.25 849.735,-1386.13 849.953,-1385.58 849.953,-1385.58 850.447,-1384.33 850.447,-1384.33 850.665,-1383.78 851.18,-1382.72 851.476,-1382.21 851.476,-1382.21 852.249,-1380.88 852.249,-1380.88 852.546,-1380.36 853.204,-1379.38 853.566,-1378.92 853.566,-1378.92 854.677,-1377.48 854.677,-1377.48 855.038,-1377.01 855.814,-1376.12 856.228,-1375.7 856.228,-1375.7 857.733,-1374.16 857.733,-1374.16 858.146,-1373.74 859.015,-1372.94 859.469,-1372.56 859.469,-1372.56 861.415,-1370.94 861.415,-1370.94 861.869,-1370.56 862.809,-1369.84 863.294,-1369.51 863.294,-1369.51 865.717,-1367.82 865.717,-1367.82 866.202,-1367.48 867.197,-1366.84 867.706,-1366.54 867.706,-1366.54 870.628,-1364.82 870.628,-1364.82 871.138,-1364.52 872.174,-1363.95 872.701,-1363.68 872.701,-1363.68 876.138,-1361.94 876.138,-1361.94 876.665,-1361.67 877.734,-1361.16 878.275,-1360.93 878.275,-1360.93 882.23,-1359.19 882.23,-1359.19 882.771,-1358.95 883.864,-1358.5 884.417,-1358.29 884.417,-1358.29 888.887,-1356.57 888.887,-1356.57 889.439,-1356.36 890.552,-1355.96 891.113,-1355.77 891.113,-1355.77 896.091,-1354.1 896.091,-1354.1 896.651,-1353.92 897.779,-1353.56 898.347,-1353.39 898.347,-1353.39 903.817,-1351.78 903.817,-1351.78 904.385,-1351.62 905.525,-1351.3 906.097,-1351.15 906.097,-1351.15 912.042,-1349.62 912.042,-1349.62 912.615,-1349.47 913.764,-1349.19 914.341,-1349.06 914.341,-1349.06 920.736,-1347.61 920.736,-1347.61 921.313,-1347.48 922.47,-1347.23 923.05,-1347.12 923.05,-1347.12 929.87,-1345.77 929.87,-1345.77 930.45,-1345.65 931.613,-1345.44 932.196,-1345.34 932.196,-1345.34 939.409,-1344.09 939.409,-1344.09 939.992,-1343.99 941.159,-1343.81 941.744,-1343.72 941.744,-1343.72 949.318,-1342.59 949.318,-1342.59 949.903,-1342.51 951.075,-1342.35 951.662,-1342.27 951.662,-1342.27 959.56,-1341.27 959.56,-1341.27 960.146,-1341.2 961.321,-1341.06 961.909,-1341 961.909,-1341 970.093,-1340.13 970.093,-1340.13 970.681,-1340.07 971.859,-1339.95 972.448,-1339.9 972.448,-1339.9 980.878,-1339.17 980.878,-1339.17 981.467,-1339.12 982.646,-1339.03 983.236,-1338.99 983.236,-1338.99 991.869,-1338.39 991.869,-1338.39 992.459,-1338.35 993.639,-1338.28 994.23,-1338.25 994.23,-1338.25 1003.02,-1337.81 1003.02,-1337.81 1003.61,-1337.78 1004.79,-1337.73 1005.39,-1337.71 1005.39,-1337.71 1014.29,-1337.41 1014.29,-1337.41 1014.88,-1337.39 1016.07,-1337.36 1016.66,-1337.35 1016.66,-1337.35 1025.63,-1337.2 1025.63,-1337.2 1026.23,-1337.19 1027.41,-1337.18 1028,-1337.18 1028,-1337.18 1037,-1337.18 1037,-1337.18 1037.59,-1337.18 1038.77,-1337.19 1039.37,-1337.2 1039.37,-1337.2 1048.34,-1337.35 1048.34,-1337.35 1048.93,-1337.36 1050.12,-1337.39 1050.71,-1337.41"/>
<text text-anchor="start" x="918.416" y="-1440.12" font-family="Times,serif" font-size="14.00">You are probably:</text>
<text text-anchor="start" x="918.416" y="-1425.12" font-family="Times,serif" font-size="14.00">*sending a social networking invitation</text>
<text text-anchor="start" x="918.416" y="-1410.12" font-family="Times,serif" font-size="14.00">*sending an event scheduler poll</text>
<text text-anchor="start" x="918.416" y="-1395.12" font-family="Times,serif" font-size="14.00">*sending a greeting card</text>
<text text-anchor="start" x="918.416" y="-1380.12" font-family="Times,serif" font-size="14.00">*or feeding his address to an information</text>
<text text-anchor="end" x="1146.58" y="-1365.12" font-family="Times,serif" font-size="14.00"> harvesting system of some kind</text>
</a>
</g>
</g>
<!-- directsend_br&#45;&gt;sharing -->
<g id="edge2" class="edge"><title>directsend_br&#45;&gt;sharing</title>
<path fill="none" stroke="black" d="M900.714,-1542.23C920.471,-1522.01 943.462,-1498.47 964.657,-1476.77"/>
<polygon fill="black" stroke="black" points="967.285,-1479.09 971.769,-1469.49 962.278,-1474.2 967.285,-1479.09"/>
<text text-anchor="middle" x="955" y="-1497.44" font-family="Times,serif" font-size="14.00">No</text>
</g>
<!-- crypto_mua_br&#45;&gt;muanote -->
<g id="edge10" class="edge"><title>crypto_mua_br&#45;&gt;muanote</title>
<path fill="none" stroke="black" stroke-dasharray="1,5" d="M504.033,-1220.74C479.056,-1202.23 444.995,-1176.98 410.166,-1151.17"/>
</g>
<!-- webmail_br -->
<g id="node14" class="node"><title>webmail_br</title>
<g id="a_node14"><a xlink:title="These webmail services are relatively safe compared to other webmail services, but still 2nd to using a proper mail client">
<path fill="wheat" stroke="black" d="M368.621,-754.303C368.621,-754.303 126.379,-719.697 126.379,-719.697 120.44,-718.849 120.44,-717.151 126.379,-716.303 126.379,-716.303 368.621,-681.697 368.621,-681.697 374.56,-680.849 386.44,-680.849 392.379,-681.697 392.379,-681.697 634.621,-716.303 634.621,-716.303 640.56,-717.151 640.56,-718.849 634.621,-719.697 634.621,-719.697 392.379,-754.303 392.379,-754.303 386.44,-755.151 374.56,-755.151 368.621,-754.303"/>
<text text-anchor="start" x="319.5" y="-721.8" font-family="Times,serif" font-size="14.00">Are you sending from</text>
<text text-anchor="start" x="255.5" y="-706.8" font-family="Times,serif" font-size="14.00">a hushmail, protonmail, or tutanota account?</text>
</a>
</g>
</g>
<!-- crypto_mua_br&#45;&gt;webmail_br -->
<g id="edge9" class="edge"><title>crypto_mua_br&#45;&gt;webmail_br</title>
<path fill="none" stroke="black" d="M547.572,-1213.42C553.088,-1151.61 558.592,-1023.4 523.5,-923 501.385,-859.724 453.639,-798.297 419.399,-759.671"/>
<polygon fill="black" stroke="black" points="421.599,-756.882 412.312,-751.782 416.391,-761.56 421.599,-756.882"/>
<text text-anchor="middle" x="525" y="-893.8" font-family="Times,serif" font-size="14.00">No</text>
</g>
<!-- reply_br -->
<g id="node15" class="node"><title>reply_br</title>
<g id="a_node15"><a xlink:title="If you&#39;ll need a reply, then Justin will need your key so he can reply securely.">
<path fill="wheat" stroke="black" d="M899.618,-1053.32C899.618,-1053.32 795.856,-1038.68 795.856,-1038.68 789.915,-1037.84 789.915,-1036.16 795.856,-1035.32 795.856,-1035.32 899.618,-1020.68 899.618,-1020.68 905.559,-1019.84 917.441,-1019.84 923.382,-1020.68 923.382,-1020.68 1027.14,-1035.32 1027.14,-1035.32 1033.09,-1036.16 1033.09,-1037.84 1027.14,-1038.68 1027.14,-1038.68 923.382,-1053.32 923.382,-1053.32 917.441,-1054.16 905.559,-1054.16 899.618,-1053.32"/>
<text text-anchor="middle" x="911.5" y="-1033.3" font-family="Times,serif" font-size="14.00">Will you need a reply?</text>
</a>
</g>
</g>
<!-- crypto_mua_br&#45;&gt;reply_br -->
<g id="edge8" class="edge"><title>crypto_mua_br&#45;&gt;reply_br</title>
<path fill="none" stroke="green" d="M591.61,-1222.28C667.558,-1178.53 813.297,-1094.57 878.524,-1057"/>
<polygon fill="green" stroke="green" points="880.627,-1059.82 887.545,-1051.8 877.133,-1053.76 880.627,-1059.82"/>
<text text-anchor="middle" x="695" y="-1172.8" font-family="Times,serif" font-size="14.00" fill="green">Yes</text>
</g>
<!-- attachment_br -->
<g id="node11" class="node"><title>attachment_br</title>
<g id="a_node11"><a xlink:title="If yes, you won&#39;t like the next node.">
<path fill="wheat" stroke="black" d="M354.297,-613.7C354.297,-613.7 277.703,-584.3 277.703,-584.3 272.102,-582.15 272.102,-577.85 277.703,-575.7 277.703,-575.7 354.297,-546.3 354.297,-546.3 359.898,-544.15 371.102,-544.15 376.703,-546.3 376.703,-546.3 453.297,-575.7 453.297,-575.7 458.898,-577.85 458.898,-582.15 453.297,-584.3 453.297,-584.3 376.703,-613.7 376.703,-613.7 371.102,-615.85 359.898,-615.85 354.297,-613.7"/>
<text text-anchor="start" x="324" y="-583.8" font-family="Times,serif" font-size="14.00">Do you need to</text>
<text text-anchor="start" x="330" y="-568.8" font-family="Times,serif" font-size="14.00">attach a file?</text>
</a>
</g>
</g>
<!-- keybase -->
<g id="node25" class="node"><title>keybase</title>
<g id="a_node25"><a xlink:show="new" xlink:href="https://keybase.io/encrypt#alchemistanaut" xlink:title="This is quite simple, and you can use your usual mail client or webmail service without any changes. &#160;If you want a reply, Justin will likely respond with a PDF that can be opened using whatever password you supply. &#160;Limitation: there is no way to send Justin a file attachment using this keybase mechanism.">
<path fill="lavenderblush" stroke="black" d="M524.5,-486C524.5,-486 206.5,-486 206.5,-486 200.5,-486 194.5,-480 194.5,-474 194.5,-474 194.5,-430 194.5,-430 194.5,-424 200.5,-418 206.5,-418 206.5,-418 524.5,-418 524.5,-418 530.5,-418 536.5,-424 536.5,-430 536.5,-430 536.5,-474 536.5,-474 536.5,-480 530.5,-486 524.5,-486"/>
<text text-anchor="start" x="202.5" y="-470.8" font-family="Times,serif" font-size="14.00">Click here, or go to keybase.io/encrypt#alchemistanaut,</text>
<text text-anchor="start" x="202.5" y="-455.8" font-family="Times,serif" font-size="14.00">write your message, click &#39;encrypt&#39;, copy&#45;paste the resulting</text>
<text text-anchor="start" x="202.5" y="-440.8" font-family="Times,serif" font-size="14.00">text into a normal msg. (if you need a reply, include a</text>
<text text-anchor="end" x="528.5" y="-425.8" font-family="Times,serif" font-size="14.00">passphrase of your choosing in the msg and remember it)</text>
</a>
</g>
</g>
<!-- attachment_br&#45;&gt;keybase -->
<g id="edge25" class="edge"><title>attachment_br&#45;&gt;keybase</title>
<path fill="none" stroke="black" d="M365.5,-541.877C365.5,-527.486 365.5,-510.914 365.5,-496.008"/>
<polygon fill="black" stroke="black" points="369,-496.002 365.5,-486.002 362,-496.002 369,-496.002"/>
<text text-anchor="middle" x="374" y="-512.8" font-family="Times,serif" font-size="14.00">No</text>
</g>
<!-- screwed -->
<g id="node26" class="node"><title>screwed</title>
<g id="a_node26"><a xlink:title="You might want to find a different path through the graph.">
<polygon fill="darksalmon" stroke="black" points="215.5,-175 117.5,-175 117.5,-139 215.5,-139 215.5,-175"/>
<polyline fill="none" stroke="black" points="129.5,-175 117.5,-163 "/>
<polyline fill="none" stroke="black" points="117.5,-151 129.5,-139 "/>
<polyline fill="none" stroke="black" points="203.5,-139 215.5,-151 "/>
<polyline fill="none" stroke="black" points="215.5,-163 203.5,-175 "/>
<text text-anchor="start" x="125.5" y="-153.3" font-family="Times,serif" font-size="14.00">you&#39;re screwed</text>
</a>
</g>
</g>
<!-- attachment_br&#45;&gt;screwed -->
<g id="edge26" class="edge"><title>attachment_br&#45;&gt;screwed</title>
<g id="a_edge26"><a xlink:title="find a different path">
<path fill="none" stroke="black" d="M303.402,-565.761C262.663,-553.591 212.165,-531.125 185.5,-491 121.402,-394.547 145.858,-245.565 159.626,-184.993"/>
<polygon fill="black" stroke="black" points="163.078,-185.605 161.969,-175.069 156.265,-183.997 163.078,-185.605"/>
</a>
</g>
<text text-anchor="middle" x="160" y="-383.8" font-family="Times,serif" font-size="14.00">Yes</text>
</g>
<!-- problem_br -->
<g id="node12" class="node"><title>problem_br</title>
<g id="a_node12"><a xlink:title="Secure e&#45;mail can be complicated, but Justin will support you.">
<path fill="wheat" stroke="black" d="M1196.62,-173.34C1196.62,-173.34 1091.52,-158.66 1091.52,-158.66 1085.58,-157.83 1085.58,-156.17 1091.52,-155.34 1091.52,-155.34 1196.62,-140.66 1196.62,-140.66 1202.56,-139.83 1214.44,-139.83 1220.38,-140.66 1220.38,-140.66 1325.48,-155.34 1325.48,-155.34 1331.42,-156.17 1331.42,-157.83 1325.48,-158.66 1325.48,-158.66 1220.38,-173.34 1220.38,-173.34 1214.44,-174.17 1202.56,-174.17 1196.62,-173.34"/>
<text text-anchor="middle" x="1208.5" y="-153.3" font-family="Times,serif" font-size="14.00">Questions? Problems?</text>
</a>
</g>
</g>
<!-- get_support -->
<g id="node27" class="node"><title>get_support</title>
<g id="a_node27"><a xlink:show="new" xlink:href="https://github.com/alchemistanaut/contact/issues" xlink:title="Clicking will bring you to the github issues page, where you can describe your issue. &#160;Note that you&#39;ll need a github account to create an issue, and your entry will be publicly viewable. &#160;Alternatively, you can e&#45;mail support questions to the address herein, in the clear if needed.">
<path fill="lavenderblush" stroke="black" d="M1268.5,-101C1268.5,-101 1148.5,-101 1148.5,-101 1142.5,-101 1136.5,-95 1136.5,-89 1136.5,-89 1136.5,-12 1136.5,-12 1136.5,-6 1142.5,-0 1148.5,-0 1148.5,-0 1268.5,-0 1268.5,-0 1274.5,-0 1280.5,-6 1280.5,-12 1280.5,-12 1280.5,-89 1280.5,-89 1280.5,-95 1274.5,-101 1268.5,-101"/>
<image xlink:href="https://alchemistanaut.github.io/images/node_item_suprt_ea.png" width="144px" height="48px" preserveAspectRatio="xMinYMin meet" x="1136.5" y="-74.5"/>
<text text-anchor="start" x="1144.5" y="-89.8" font-family="Times,serif" font-size="14.00">File a github issue by</text>
<text text-anchor="start" x="1144.5" y="-74.8" font-family="Times,serif" font-size="14.00">clicking this node, or</text>
<text text-anchor="start" x="1144.5" y="-59.8" font-family="Times,serif" font-size="14.00">E&#45;mail Justin at:</text>
</a>
</g>
</g>
<!-- problem_br&#45;&gt;get_support -->
<g id="edge32" class="edge"><title>problem_br&#45;&gt;get_support</title>
<path fill="none" stroke="black" d="M1208.5,-138.744C1208.5,-131.005 1208.5,-121.37 1208.5,-111.355"/>
<polygon fill="black" stroke="black" points="1212,-111.268 1208.5,-101.268 1205,-111.268 1212,-111.268"/>
</g>
<!-- firsttime_br -->
<g id="node13" class="node"><title>firsttime_br</title>
<g id="a_node13"><a xlink:title="You&#39;ll need to have Justin&#39;s key before sending him a message. &#160;Once you have it, it&#39;s good until it expires (few years generally).">
<path fill="wheat" stroke="black" d="M1253.65,-754.123C1253.65,-754.123 1037.35,-719.877 1037.35,-719.877 1031.43,-718.938 1031.43,-717.062 1037.35,-716.123 1037.35,-716.123 1253.65,-681.877 1253.65,-681.877 1259.57,-680.938 1271.43,-680.938 1277.35,-681.877 1277.35,-681.877 1493.65,-716.123 1493.65,-716.123 1499.57,-717.062 1499.57,-718.938 1493.65,-719.877 1493.65,-719.877 1277.35,-754.123 1277.35,-754.123 1271.43,-755.062 1259.57,-755.062 1253.65,-754.123"/>
<text text-anchor="start" x="1173" y="-721.8" font-family="Times,serif" font-size="14.00">Are you e&#45;mailing Justin securely</text>
<text text-anchor="start" x="1153.5" y="-706.8" font-family="Times,serif" font-size="14.00">for the first time, or has his key expired?</text>
</a>
</g>
</g>
<!-- firsttime_br&#45;&gt;crypto_ea -->
<g id="edge16" class="edge"><title>firsttime_br&#45;&gt;crypto_ea</title>
<path fill="none" stroke="black" d="M1231.54,-685.103C1189.86,-644.082 1119.89,-568.809 1080.5,-491 1061.84,-454.139 1049.49,-410.022 1041.53,-372.39"/>
<polygon fill="black" stroke="black" points="1044.94,-371.562 1039.5,-362.467 1038.08,-372.965 1044.94,-371.562"/>
<text text-anchor="middle" x="1141.5" y="-512.8" font-family="Times,serif" font-size="14.00">No (using PGP)</text>
</g>
<!-- keyimportchoice_br -->
<g id="node16" class="node"><title>keyimportchoice_br</title>
<g id="a_node16"><a xlink:title="You can instantly get Justin&#39;s key from the PDF container. &#160;Or you can e&#45;mail him and wait. &#160;Whatever you find more convenient.">
<path fill="wheat" stroke="black" d="M1254.19,-593.979C1254.19,-593.979 1226.2,-584.021 1226.2,-584.021 1220.55,-582.011 1220.55,-577.989 1226.2,-575.979 1226.2,-575.979 1254.19,-566.021 1254.19,-566.021 1259.85,-564.011 1271.15,-564.011 1276.81,-566.021 1276.81,-566.021 1304.8,-575.979 1304.8,-575.979 1310.45,-577.989 1310.45,-582.011 1304.8,-584.021 1304.8,-584.021 1276.81,-593.979 1276.81,-593.979 1271.15,-595.989 1259.85,-595.989 1254.19,-593.979"/>
<text text-anchor="middle" x="1265.5" y="-576.3" font-family="Times,serif" font-size="14.00">choose</text>
</a>
</g>
</g>
<!-- firsttime_br&#45;&gt;keyimportchoice_br -->
<g id="edge15" class="edge"><title>firsttime_br&#45;&gt;keyimportchoice_br</title>
<g id="a_edge15"><a xlink:title="(using S/MIME or PGP)">
<path fill="none" stroke="black" d="M1265.5,-679.837C1265.5,-657.305 1265.5,-629.04 1265.5,-608.515"/>
<polygon fill="black" stroke="black" points="1269,-608.276 1265.5,-598.276 1262,-608.276 1269,-608.276"/>
</a>
</g>
<text text-anchor="middle" x="1276" y="-639.8" font-family="Times,serif" font-size="14.00">Yes</text>
</g>
<!-- ea_forced_ea_short -->
<g id="node21" class="node"><title>ea_forced_ea_short</title>
<g id="a_node21"><a xlink:title="If you don&#39;t know the address associated to the key, it will generally be the address from which Justin sent you the key. &#160;If you took the key from the PDF file, then it&#39;s evident from that file. &#160;PGP users: if you imported Justin&#39;s key from a PGP key server, then you should look at the table of addresses and select the best one. &#160;But note that you may have to configure your mail client to map key to address because Justin&#39;s published PGP keys have a deliberately unusable address.">
<path fill="lavenderblush" stroke="black" d="M1427.5,-306.5C1427.5,-306.5 1289.5,-306.5 1289.5,-306.5 1283.5,-306.5 1277.5,-300.5 1277.5,-294.5 1277.5,-294.5 1277.5,-280.5 1277.5,-280.5 1277.5,-274.5 1283.5,-268.5 1289.5,-268.5 1289.5,-268.5 1427.5,-268.5 1427.5,-268.5 1433.5,-268.5 1439.5,-274.5 1439.5,-280.5 1439.5,-280.5 1439.5,-294.5 1439.5,-294.5 1439.5,-300.5 1433.5,-306.5 1427.5,-306.5"/>
<text text-anchor="start" x="1285.5" y="-291.3" font-family="Times,serif" font-size="14.00">Use the address associated</text>
<text text-anchor="middle" x="1358.5" y="-276.3" font-family="Times,serif" font-size="14.00">with the key</text>
</a>
</g>
</g>
<!-- firsttime_br&#45;&gt;ea_forced_ea_short -->
<g id="edge17" class="edge"><title>firsttime_br&#45;&gt;ea_forced_ea_short</title>
<path fill="none" stroke="black" d="M1290.81,-683.711C1321.01,-641.558 1369.55,-565.422 1386.5,-491 1400.53,-429.373 1381.49,-355.493 1368.6,-316.23"/>
<polygon fill="black" stroke="black" points="1371.85,-314.911 1365.32,-306.566 1365.22,-317.161 1371.85,-314.911"/>
<text text-anchor="middle" x="1436" y="-512.8" font-family="Times,serif" font-size="14.00">No (using S/MIME)</text>
</g>
<!-- webmail_br&#45;&gt;web_ea -->
<g id="edge13" class="edge"><title>webmail_br&#45;&gt;web_ea</title>
<path fill="none" stroke="black" d="M415.432,-684.753C456.362,-644.228 521.625,-570.314 545.5,-491 559.686,-443.871 562.561,-387.894 562.243,-346.75"/>
<polygon fill="black" stroke="black" points="565.741,-346.573 562.099,-336.624 558.742,-346.673 565.741,-346.573"/>
<text text-anchor="middle" x="550" y="-512.8" font-family="Times,serif" font-size="14.00">Yes</text>
</g>
<!-- webmail_br&#45;&gt;attachment_br -->
<g id="edge14" class="edge"><title>webmail_br&#45;&gt;attachment_br</title>
<path fill="none" stroke="black" d="M376.48,-680.554C374.652,-663.98 372.47,-644.191 370.534,-626.639"/>
<polygon fill="black" stroke="black" points="374.002,-626.161 369.427,-616.605 367.044,-626.928 374.002,-626.161"/>
<text text-anchor="middle" x="382" y="-639.8" font-family="Times,serif" font-size="14.00">No</text>
</g>
<!-- reply_br&#45;&gt;firsttime_br -->
<g id="edge11" class="edge"><title>reply_br&#45;&gt;firsttime_br</title>
<path fill="none" stroke="black" d="M928.099,-1021.14C980.565,-974.154 1143.98,-827.821 1222.51,-757.495"/>
<polygon fill="black" stroke="black" points="1225.18,-759.804 1230.29,-750.526 1220.51,-754.589 1225.18,-759.804"/>
<text text-anchor="middle" x="1176" y="-834.3" font-family="Times,serif" font-size="14.00">No</text>
</g>
<!-- gen_key -->
<g id="node20" class="node"><title>gen_key</title>
<g id="a_node20"><a xlink:title="You may have done this when first configuring your mail client, although it&#39;s not often part of the installation wizards (you most likely would have had to initiate the process).">
<path fill="lavenderblush" stroke="black" d="M1011.5,-872C1011.5,-872 811.5,-872 811.5,-872 805.5,-872 799.5,-866 799.5,-860 799.5,-860 799.5,-816 799.5,-816 799.5,-810 805.5,-804 811.5,-804 811.5,-804 1011.5,-804 1011.5,-804 1017.5,-804 1023.5,-810 1023.5,-816 1023.5,-816 1023.5,-860 1023.5,-860 1023.5,-866 1017.5,-872 1011.5,-872"/>
<text text-anchor="middle" x="911.5" y="-856.8" font-family="Times,serif" font-size="14.00">(one time only)</text>
<text text-anchor="start" x="807.5" y="-841.8" font-family="Times,serif" font-size="14.00">Generate a key pair for yourself if you</text>
<text text-anchor="start" x="807.5" y="-826.8" font-family="Times,serif" font-size="14.00">have not already done so and ensure</text>
<text text-anchor="start" x="807.5" y="-811.8" font-family="Times,serif" font-size="14.00">the public key is accessible to Justin.</text>
</a>
</g>
</g>
<!-- reply_br&#45;&gt;gen_key -->
<g id="edge12" class="edge"><title>reply_br&#45;&gt;gen_key</title>
<path fill="none" stroke="green" d="M911.5,-1018.86C911.5,-988.68 911.5,-925.187 911.5,-882.305"/>
<polygon fill="green" stroke="green" points="915,-882.148 911.5,-872.148 908,-882.148 915,-882.148"/>
<text text-anchor="middle" x="922" y="-893.8" font-family="Times,serif" font-size="14.00" fill="green">Yes</text>
</g>
<!-- pdf_acquire_key -->
<g id="node22" class="node"><title>pdf_acquire_key</title>
<g id="a_node22"><a xlink:show="new" id="pdflink-svg" xlink:href="https://alchemistanaut.github.io/data/pubkeys_aes.pdf" xlink:title="Clicking this will open a PDF container holding keys to choose from">
<path fill="lavenderblush" stroke="black" d="M1365,-491C1365,-491 1264,-491 1264,-491 1258,-491 1252,-485 1252,-479 1252,-479 1252,-425 1252,-425 1252,-419 1258,-413 1264,-413 1264,-413 1365,-413 1365,-413 1371,-413 1377,-419 1377,-425 1377,-425 1377,-479 1377,-479 1377,-485 1371,-491 1365,-491"/>
<text text-anchor="start" x="1260" y="-476.8" font-family="Times,serif" font-size="14.00">Import Justin&#39;s key.</text>
<text text-anchor="start" x="1260" y="-462.8" font-family="Times,serif" font-size="14.00">Click on this node</text>
<text text-anchor="start" x="1260" y="-448.8" font-family="Times,serif" font-size="14.00">and use password</text>
<text text-anchor="start" x="1260" y="-434.8" font-family="Courier,monospace" font-size="14.00">wildthing</text>
<text text-anchor="start" x="1260" y="-420.8" font-family="Times,serif" font-size="14.00">to open the PDF.</text>
</a>
</g>
</g>
<!-- keyimportchoice_br&#45;&gt;pdf_acquire_key -->
<g id="edge18" class="edge"><title>keyimportchoice_br&#45;&gt;pdf_acquire_key</title>
<path fill="none" stroke="black" d="M1271.31,-564.051C1277.39,-548.423 1287.25,-523.08 1296.01,-500.549"/>
<polygon fill="black" stroke="black" points="1299.32,-501.689 1299.68,-491.101 1292.8,-499.152 1299.32,-501.689"/>
</g>
<!-- acquire_by_email -->
<g id="node23" class="node"><title>acquire_by_email</title>
<g id="a_node23"><a xlink:title="Be sure to tell Justin whether you need a PGP key or an S/MIME certificate, or tell him your mail client. &#160;E&#45;mailing is probably easier than the self&#45;service PDF option, but obviously it&#39;s not instant.">
<path fill="lavenderblush" stroke="black" d="M1221.5,-473.5C1221.5,-473.5 1101.5,-473.5 1101.5,-473.5 1095.5,-473.5 1089.5,-467.5 1089.5,-461.5 1089.5,-461.5 1089.5,-442.5 1089.5,-442.5 1089.5,-436.5 1095.5,-430.5 1101.5,-430.5 1101.5,-430.5 1221.5,-430.5 1221.5,-430.5 1227.5,-430.5 1233.5,-436.5 1233.5,-442.5 1233.5,-442.5 1233.5,-461.5 1233.5,-461.5 1233.5,-467.5 1227.5,-473.5 1221.5,-473.5"/>
<image xlink:href="https://alchemistanaut.github.io/images/node_item_suprt_ea.png" width="144px" height="43px" preserveAspectRatio="xMinYMin meet" x="1089.5" y="-473.5"/>
<text text-anchor="middle" x="1161.5" y="-462.3" font-family="Times,serif" font-size="14.00">Ask Justin for a key at:</text>
</a>
</g>
</g>
<!-- keyimportchoice_br&#45;&gt;acquire_by_email -->
<g id="edge19" class="edge"><title>keyimportchoice_br&#45;&gt;acquire_by_email</title>
<path fill="none" stroke="black" d="M1254.37,-565.516C1237.94,-545.609 1206.8,-507.884 1185.13,-481.632"/>
<polygon fill="black" stroke="black" points="1187.8,-479.37 1178.74,-473.886 1182.41,-483.826 1187.8,-479.37"/>
</g>
<!-- start -->
<g id="node17" class="node"><title>start</title>
<g id="a_node17"><a xlink:title="Keep calm, carry on..">
<polygon fill="lavenderblush" stroke="black" points="850.5,-1819.64 671.5,-1766.64 850.5,-1713.64 1029.5,-1766.64 850.5,-1819.64"/>
<polyline fill="none" stroke="black" points="683.006,-1770.05 683.006,-1763.23 "/>
<polyline fill="none" stroke="black" points="838.994,-1717.05 862.006,-1717.05 "/>
<polyline fill="none" stroke="black" points="1017.99,-1763.23 1017.99,-1770.05 "/>
<polyline fill="none" stroke="black" points="862.006,-1816.23 838.994,-1816.23 "/>
<text text-anchor="start" x="769" y="-1777.94" font-family="Times,serif" font-size="14.00">Do you need to e&#45;mail Justin?</text>
<text text-anchor="start" x="787" y="-1762.94" font-family="Times,serif" font-size="14.00">(However unfortunate,</text>
<text text-anchor="start" x="782.5" y="-1747.94" font-family="Times,serif" font-size="14.00">you&#39;re in the right place)</text>
</a>
</g>
</g>
<!-- start&#45;&gt;directsend_br -->
<g id="edge1" class="edge"><title>start&#45;&gt;directsend_br</title>
<path fill="none" stroke="black" d="M850.5,-1713.25C850.5,-1700.58 850.5,-1686.76 850.5,-1673.21"/>
<polygon fill="black" stroke="black" points="854,-1672.91 850.5,-1662.91 847,-1672.91 854,-1672.91"/>
<text text-anchor="middle" x="861" y="-1684.44" font-family="Times,serif" font-size="14.00">Yes</text>
</g>
<!-- sharing_act -->
<g id="node19" class="node"><title>sharing_act</title>
<g id="a_node19"><a xlink:title="Exceptionally, if it&#39;s a key&#45;signing party then simply follow the path of a normal e&#45;mail.">
<path fill="lavenderblush" stroke="black" d="M987.5,-1300C987.5,-1300 777.5,-1300 777.5,-1300 771.5,-1300 765.5,-1294 765.5,-1288 765.5,-1288 765.5,-1214 765.5,-1214 765.5,-1208 771.5,-1202 777.5,-1202 777.5,-1202 987.5,-1202 987.5,-1202 993.5,-1202 999.5,-1208 999.5,-1214 999.5,-1214 999.5,-1288 999.5,-1288 999.5,-1294 993.5,-1300 987.5,-1300"/>
<text text-anchor="start" x="773.5" y="-1284.8" font-family="Times,serif" font-size="14.00">Justin has unique special&#45;purpose</text>
<text text-anchor="start" x="773.5" y="-1269.8" font-family="Times,serif" font-size="14.00">addresses for these types of use cases.</text>
<text text-anchor="start" x="773.5" y="-1254.8" font-family="Times,serif" font-size="14.00">Send him a normal e&#45;mail first</text>
<text text-anchor="start" x="773.5" y="-1239.8" font-family="Times,serif" font-size="14.00">to request a suitable (abusable) address.</text>
<text text-anchor="start" x="773.5" y="-1224.8" font-family="Times,serif" font-size="14.00">(if you are sharing his address with</text>
<text text-anchor="end" x="991.5" y="-1209.8" font-family="Times,serif" font-size="14.00">a human, share this diagram instead)</text>
</a>
</g>
</g>
<!-- sharing&#45;&gt;sharing_act -->
<g id="edge4" class="edge"><title>sharing&#45;&gt;sharing_act</title>
<path fill="none" stroke="black" d="M968.451,-1339.85C957.841,-1329.01 946.932,-1317.86 936.598,-1307.3"/>
<polygon fill="black" stroke="black" points="939.041,-1304.79 929.546,-1300.09 934.038,-1309.68 939.041,-1304.79"/>
</g>
<!-- sharing_act&#45;&gt;directsend_br -->
<g id="edge7" class="edge"><title>sharing_act&#45;&gt;directsend_br</title>
<path fill="none" stroke="black" d="M853.164,-1300.39C847.522,-1311.99 842.455,-1324.61 839.5,-1337 825.069,-1397.49 829.625,-1468.24 836.763,-1520.11"/>
<polygon fill="black" stroke="black" points="833.33,-1520.83 838.221,-1530.23 840.259,-1519.83 833.33,-1520.83"/>
</g>
<!-- gen_key&#45;&gt;pgpnote -->
<g id="edge22" class="edge"><title>gen_key&#45;&gt;pgpnote</title>
<path fill="none" stroke="black" stroke-dasharray="1,5" d="M860.881,-803.816C841.436,-791.069 818.936,-776.319 798.207,-762.73"/>
</g>
<!-- gen_key&#45;&gt;smimenote -->
<g id="edge21" class="edge"><title>gen_key&#45;&gt;smimenote</title>
<path fill="none" stroke="black" stroke-dasharray="1,5" d="M911.5,-803.816C911.5,-787.729 911.5,-768.452 911.5,-752.343"/>
</g>
<!-- gen_key&#45;&gt;firsttime_br -->
<g id="edge20" class="edge"><title>gen_key&#45;&gt;firsttime_br</title>
<path fill="none" stroke="green" d="M1010.58,-803.974C1064,-786.167 1129.25,-764.417 1180.36,-747.379"/>
<polygon fill="green" stroke="green" points="1181.68,-750.629 1190.06,-744.146 1179.47,-743.988 1181.68,-750.629"/>
</g>
<!-- ea_forced_ea_short&#45;&gt;celebrate -->
<g id="edge29" class="edge"><title>ea_forced_ea_short&#45;&gt;celebrate</title>
<path fill="none" stroke="black" d="M1341.74,-268.336C1324.92,-251.277 1297.41,-226.426 1268.5,-213 1190.16,-176.618 1158.41,-200.213 1071.87,-176.032"/>
<polygon fill="black" stroke="black" points="1072.77,-172.648 1062.19,-173.194 1070.8,-179.366 1072.77,-172.648"/>
</g>
<!-- pdf_acquire_key&#45;&gt;ea_forced_ea_short -->
<g id="edge28" class="edge"><title>pdf_acquire_key&#45;&gt;ea_forced_ea_short</title>
<path fill="none" stroke="black" d="M1324.82,-412.901C1332.8,-383.419 1343.67,-343.258 1350.88,-316.637"/>
<polygon fill="black" stroke="black" points="1354.31,-317.375 1353.54,-306.808 1347.55,-315.545 1354.31,-317.375"/>
</g>
<!-- acquire_by_email&#45;&gt;ea_forced_ea_short -->
<g id="edge31" class="edge"><title>acquire_by_email&#45;&gt;ea_forced_ea_short</title>
<path fill="none" stroke="black" d="M1186.45,-430.419C1222.7,-400.52 1289.82,-345.154 1328.64,-313.129"/>
<polygon fill="black" stroke="black" points="1330.99,-315.73 1336.48,-306.667 1326.54,-310.33 1330.99,-315.73"/>
</g>
<!-- keybase&#45;&gt;crypto_ea -->
<g id="edge27" class="edge"><title>keybase&#45;&gt;crypto_ea</title>
<path fill="none" stroke="black" d="M536.627,-418.631C611.142,-403.638 699.553,-384.644 787.808,-362.139"/>
<polygon fill="black" stroke="black" points="788.915,-365.468 797.732,-359.593 787.176,-358.687 788.915,-365.468"/>
</g>
</g>
</svg>
