<?xml version="1.0" encoding="UTF-8" standalone="no"?>
<!DOCTYPE svg PUBLIC "-//W3C//DTD SVG 1.1//EN"
 "http://www.w3.org/Graphics/SVG/1.1/DTD/svg11.dtd">
<!-- Generated by graphviz version 2.38.0 (20140413.2041)
 -->
<!-- Title: How to E&#45;mail Justin Pages: 1 -->
<svg width="1399pt" height="1792pt"
 viewBox="0.00 0.00 1399.00 1791.64" xmlns="http://www.w3.org/2000/svg" xmlns:xlink="http://www.w3.org/1999/xlink">
<g id="graph0" class="graph" transform="scale(1 1) rotate(0) translate(4 1787.64)">
<title>How to E&#45;mail Justin</title>
<polygon fill="#fffacd" stroke="none" points="-4,4 -4,-1787.64 1395,-1787.64 1395,4 -4,4"/>
<!-- green_anchor -->
<g id="node1" class="node"><title>green_anchor</title>
<ellipse fill="black" stroke="black" cx="429" cy="-1370.32" rx="0.36" ry="0.36"/>
</g>
<!-- crypto_mua_br -->
<g id="node10" class="node"><title>crypto_mua_br</title>
<g id="a_node10"><a xlink:title="Ideally yes; mail clients are more secure than webmail and more convenient for both parties.">
<path fill="wheat" stroke="black" d="M417.228,-1250.67C417.228,-1250.67 248.772,-1217.33 248.772,-1217.33 242.886,-1216.16 242.886,-1213.84 248.772,-1212.67 248.772,-1212.67 417.228,-1179.33 417.228,-1179.33 423.114,-1178.16 434.886,-1178.16 440.772,-1179.33 440.772,-1179.33 609.228,-1212.67 609.228,-1212.67 615.114,-1213.84 615.114,-1216.16 609.228,-1217.33 609.228,-1217.33 440.772,-1250.67 440.772,-1250.67 434.886,-1251.84 423.114,-1251.84 417.228,-1250.67"/>
<text text-anchor="start" x="351.5" y="-1218.8" font-family="Times,serif" font-size="14.00">Are you using a proper PGP</text>
<text text-anchor="start" x="341" y="-1203.8" font-family="Times,serif" font-size="14.00">or S/MIME capable mail client?</text>
</a>
</g>
</g>
<!-- green_anchor&#45;&gt;crypto_mua_br -->
<g id="edge5" class="edge"><title>green_anchor&#45;&gt;crypto_mua_br</title>
<path fill="none" stroke="green" d="M429,-1369.21C429,-1366.31 429,-1307.41 429,-1263.5"/>
<polygon fill="green" stroke="green" points="432.5,-1263.27 429,-1253.27 425.5,-1263.27 432.5,-1263.27"/>
</g>
<!-- crypto_ea -->
<g id="node2" class="node"><title>crypto_ea</title>
<g id="a_node2"><a xlink:title="The different addresses help Justin filter and reduce impact on others if one address is attacked, but there is no difference as far as spam scoring. &#160;The rasterized script font is to mitigate OCR&#45;capable bot&#45;executed address harvesting (to some extent).">
<polygon fill="none" stroke="black" points="1144.5,-362 683.5,-362 683.5,-213 1144.5,-213 1144.5,-362"/>
<image xlink:href="https://alchemistanaut.github.io/images/node_email_addresses.png" width="461px" height="149px" preserveAspectRatio="xMinYMin meet" x="683.5" y="-362"/>
</a>
</g>
</g>
<!-- celebrate -->
<g id="node24" class="node"><title>celebrate</title>
<g id="a_node24"><a xlink:title="yay!">
<polygon fill="powderblue" stroke="black" points="947.5,-175 880.5,-175 880.5,-139 947.5,-139 947.5,-175"/>
<polyline fill="none" stroke="black" points="892.5,-175 880.5,-163 "/>
<polyline fill="none" stroke="black" points="880.5,-151 892.5,-139 "/>
<polyline fill="none" stroke="black" points="935.5,-139 947.5,-151 "/>
<polyline fill="none" stroke="black" points="947.5,-163 935.5,-175 "/>
<text text-anchor="middle" x="914" y="-153.3" font-family="Times,serif" font-size="14.00">celebrate</text>
</a>
</g>
</g>
<!-- crypto_ea&#45;&gt;celebrate -->
<g id="edge30" class="edge"><title>crypto_ea&#45;&gt;celebrate</title>
<path fill="none" stroke="green" d="M914,-212.868C914,-203.043 914,-193.516 914,-185.235"/>
<polygon fill="green" stroke="green" points="917.5,-185.145 914,-175.145 910.5,-185.145 917.5,-185.145"/>
</g>
<!-- web_ea -->
<g id="node3" class="node"><title>web_ea</title>
<g id="a_node3"><a xlink:title="The script font is to mitigate OCR&#45;capable bot&#45;executed address harvesting (to some extent).">
<polygon fill="none" stroke="black" points="665,-336.5 225,-336.5 225,-238.5 665,-238.5 665,-336.5"/>
<image xlink:href="https://alchemistanaut.github.io/images/node_webmail_addresses.png" width="440px" height="98px" preserveAspectRatio="xMinYMin meet" x="225" y="-336.5"/>
</a>
</g>
</g>
<!-- webnote -->
<g id="node5" class="node"><title>webnote</title>
<g id="a_node5"><a xlink:title="All gombos.info accounts are checked daily. &#160;The other two require Justin to do a manual web login. &#160;Protonmail have daily notifications, so Justin&#39;s response time is ~2 days. &#160;Tutanota does not, it could take ~2&#45;3 weeks before a msg is spotted.">
<polygon fill="#eeee00" stroke="black" points="540.5,-176 343.5,-176 343.5,-138 546.5,-138 546.5,-170 540.5,-176"/>
<polyline fill="none" stroke="black" points="540.5,-176 540.5,-170 "/>
<polyline fill="none" stroke="black" points="546.5,-170 540.5,-170 "/>
<text text-anchor="start" x="351.5" y="-160.8" font-family="Times,serif" font-size="14.00">Note: expect a slow response time</text>
<text text-anchor="start" x="351.5" y="-145.8" font-family="Times,serif" font-size="14.00">for protonmail or tutanota.</text>
</a>
</g>
</g>
<!-- web_ea&#45;&gt;webnote -->
<g id="edge23" class="edge"><title>web_ea&#45;&gt;webnote</title>
<path fill="none" stroke="black" stroke-dasharray="1,5" d="M445,-238.286C445,-216.636 445,-192.392 445,-176.266"/>
</g>
<!-- web_ea&#45;&gt;celebrate -->
<g id="edge24" class="edge"><title>web_ea&#45;&gt;celebrate</title>
<path fill="none" stroke="black" d="M588.28,-238.446C616.562,-229.546 646.117,-220.655 674,-213 742.117,-194.3 822.295,-176.825 870.581,-166.785"/>
<polygon fill="black" stroke="black" points="871.301,-170.211 880.385,-164.758 869.883,-163.356 871.301,-170.211"/>
</g>
<!-- greennote -->
<g id="node4" class="node"><title>greennote</title>
<g id="a_node4"><a xlink:title="The quickest one&#45;off msg approach is to use keybase, but you won&#39;t have a readable saved copy of what you sent.">
<polygon fill="#eeee00" stroke="black" points="495,-1592.64 253,-1592.64 253,-1524.64 501,-1524.64 501,-1586.64 495,-1592.64"/>
<polyline fill="none" stroke="black" points="495,-1592.64 495,-1586.64 "/>
<polyline fill="none" stroke="black" points="501,-1586.64 495,-1586.64 "/>
<text text-anchor="start" x="261" y="-1577.44" font-family="Times,serif" font-size="14.00">Note: the green path through this diagram</text>
<text text-anchor="start" x="261" y="-1562.44" font-family="Times,serif" font-size="14.00">indicates the most convenient for regular</text>
<text text-anchor="start" x="261" y="-1547.44" font-family="Times,serif" font-size="14.00">long&#45;term sustained correspondence,</text>
<text text-anchor="start" x="261" y="-1532.44" font-family="Times,serif" font-size="14.00">at the cost of higher initial setup effort.</text>
</a>
</g>
</g>
<!-- greennote&#45;&gt;green_anchor -->
<g id="edge6" class="edge"><title>greennote&#45;&gt;green_anchor</title>
<path fill="none" stroke="black" stroke-dasharray="1,5" d="M386.297,-1524.33C401.02,-1471.58 428.136,-1374.42 428.98,-1371.39"/>
</g>
<!-- muanote -->
<g id="node6" class="node"><title>muanote</title>
<g id="a_node6"><a xlink:href="https://en.wikipedia.org/wiki/Comparison_of_e-mail_clients#General_features" xlink:title="Clicking this node goes to a wiki showing a table of MUAs with columns indicating S/MIME and PGP support">
<polygon fill="#eeee00" stroke="black" points="394.5,-1115 227.5,-1115 227.5,-923 400.5,-923 400.5,-1109 394.5,-1115"/>
<polyline fill="none" stroke="black" points="394.5,-1115 394.5,-1109 "/>
<polyline fill="none" stroke="black" points="400.5,-1109 394.5,-1109 "/>
<image xlink:href="https://alchemistanaut.github.io/images/node_muas.png" width="173px" height="192px" preserveAspectRatio="xMinYMin meet" x="227.5" y="-1115"/>
</a>
</g>
</g>
<!-- pgpnote -->
<g id="node7" class="node"><title>pgpnote</title>
<g id="a_node7"><a xlink:title="PGP key generation is a simple process.">
<polygon fill="#eeee00" stroke="black" points="677.5,-767 550.5,-767 550.5,-669 683.5,-669 683.5,-761 677.5,-767"/>
<polyline fill="none" stroke="black" points="677.5,-767 677.5,-761 "/>
<polyline fill="none" stroke="black" points="683.5,-761 677.5,-761 "/>
<text text-anchor="start" x="558.5" y="-751.8" font-family="Times,serif" font-size="14.00">PGP users: once you</text>
<text text-anchor="start" x="558.5" y="-736.8" font-family="Times,serif" font-size="14.00">have a key pair, you</text>
<text text-anchor="start" x="558.5" y="-721.8" font-family="Times,serif" font-size="14.00">can send your public</text>
<text text-anchor="start" x="558.5" y="-706.8" font-family="Times,serif" font-size="14.00">key as an attachment</text>
<text text-anchor="start" x="558.5" y="-691.8" font-family="Times,serif" font-size="14.00">or publish it on a</text>
<text text-anchor="start" x="558.5" y="-676.8" font-family="Times,serif" font-size="14.00">keyserver.</text>
</a>
</g>
</g>
<!-- smimenote -->
<g id="node8" class="node"><title>smimenote</title>
<g id="a_node8"><a xlink:title="S/MIME key generation is a little more tedious, although it&#39;s easy to send your public key.">
<polygon fill="#eeee00" stroke="black" points="886.5,-752 701.5,-752 701.5,-684 892.5,-684 892.5,-746 886.5,-752"/>
<polyline fill="none" stroke="black" points="886.5,-752 886.5,-746 "/>
<polyline fill="none" stroke="black" points="892.5,-746 886.5,-746 "/>
<text text-anchor="start" x="709.5" y="-736.8" font-family="Times,serif" font-size="14.00">S/MIME users: once you have</text>
<text text-anchor="start" x="709.5" y="-721.8" font-family="Times,serif" font-size="14.00">a key pair, simply signing your</text>
<text text-anchor="start" x="709.5" y="-706.8" font-family="Times,serif" font-size="14.00">first msg will automatically</text>
<text text-anchor="start" x="709.5" y="-691.8" font-family="Times,serif" font-size="14.00">supply your public key to Justin.</text>
</a>
</g>
</g>
<!-- directsend_br -->
<g id="node9" class="node"><title>directsend_br</title>
<g id="a_node9"><a xlink:title="hopefully yes">
<path fill="wheat" stroke="black" d="M724.549,-1623.05C724.549,-1623.05 530.451,-1562.23 530.451,-1562.23 524.725,-1560.43 524.725,-1556.85 530.451,-1555.05 530.451,-1555.05 724.549,-1494.23 724.549,-1494.23 730.275,-1492.43 741.725,-1492.43 747.451,-1494.23 747.451,-1494.23 941.549,-1555.05 941.549,-1555.05 947.275,-1556.85 947.275,-1560.43 941.549,-1562.23 941.549,-1562.23 747.451,-1623.05 747.451,-1623.05 741.725,-1624.85 730.275,-1624.85 724.549,-1623.05"/>
<text text-anchor="start" x="667.5" y="-1577.44" font-family="Times,serif" font-size="14.00">Are you writing a typical</text>
<text text-anchor="start" x="666.5" y="-1562.44" font-family="Times,serif" font-size="14.00">human&#45;generated e&#45;mail,</text>
<text text-anchor="start" x="635.5" y="-1547.44" font-family="Times,serif" font-size="14.00">sent from a mail client or web&#45;based</text>
<text text-anchor="start" x="666.5" y="-1532.44" font-family="Times,serif" font-size="14.00">dedicated e&#45;mail service?</text>
</a>
</g>
</g>
<!-- directsend_br&#45;&gt;green_anchor -->
<g id="edge3" class="edge"><title>directsend_br&#45;&gt;green_anchor</title>
<path fill="none" stroke="green" d="M662.856,-1513.25C573.47,-1459 433.458,-1374.03 429.104,-1371.38"/>
<text text-anchor="middle" x="602.5" y="-1461.44" font-family="Times,serif" font-size="14.00" fill="green">Yes</text>
</g>
<!-- sharing -->
<g id="node18" class="node"><title>sharing</title>
<g id="a_node18"><a xlink:title="Sharing? &#160;yikes!">
<path fill="lavenderblush" stroke="black" d="M936.207,-1301.41C936.207,-1301.41 945.114,-1301.71 945.114,-1301.71 945.705,-1301.73 946.887,-1301.78 947.477,-1301.81 947.477,-1301.81 956.27,-1302.25 956.27,-1302.25 956.861,-1302.28 958.041,-1302.35 958.631,-1302.39 958.631,-1302.39 967.264,-1302.99 967.264,-1302.99 967.854,-1303.03 969.033,-1303.12 969.622,-1303.17 969.622,-1303.17 978.052,-1303.9 978.052,-1303.9 978.641,-1303.95 979.819,-1304.07 980.407,-1304.13 980.407,-1304.13 988.591,-1305 988.591,-1305 989.179,-1305.06 990.354,-1305.2 990.94,-1305.27 990.94,-1305.27 998.838,-1306.27 998.838,-1306.27 999.425,-1306.35 1000.6,-1306.51 1001.18,-1306.59 1001.18,-1306.59 1008.76,-1307.72 1008.76,-1307.72 1009.34,-1307.81 1010.51,-1307.99 1011.09,-1308.09 1011.09,-1308.09 1018.3,-1309.34 1018.3,-1309.34 1018.89,-1309.44 1020.05,-1309.65 1020.63,-1309.77 1020.63,-1309.77 1027.45,-1311.12 1027.45,-1311.12 1028.03,-1311.23 1029.19,-1311.48 1029.76,-1311.61 1029.76,-1311.61 1036.16,-1313.06 1036.16,-1313.06 1036.74,-1313.19 1037.89,-1313.47 1038.46,-1313.62 1038.46,-1313.62 1044.4,-1315.15 1044.4,-1315.15 1044.98,-1315.3 1046.12,-1315.62 1046.68,-1315.78 1046.68,-1315.78 1052.15,-1317.39 1052.15,-1317.39 1052.72,-1317.56 1053.85,-1317.92 1054.41,-1318.1 1054.41,-1318.1 1059.39,-1319.77 1059.39,-1319.77 1059.95,-1319.96 1061.06,-1320.36 1061.61,-1320.57 1061.61,-1320.57 1066.08,-1322.29 1066.08,-1322.29 1066.64,-1322.5 1067.73,-1322.95 1068.27,-1323.19 1068.27,-1323.19 1072.22,-1324.93 1072.22,-1324.93 1072.77,-1325.16 1073.84,-1325.67 1074.36,-1325.94 1074.36,-1325.94 1077.8,-1327.68 1077.8,-1327.68 1078.33,-1327.95 1079.36,-1328.52 1079.87,-1328.82 1079.87,-1328.82 1082.79,-1330.54 1082.79,-1330.54 1083.3,-1330.84 1084.3,-1331.48 1084.78,-1331.82 1084.78,-1331.82 1087.21,-1333.51 1087.21,-1333.51 1087.69,-1333.84 1088.63,-1334.56 1089.08,-1334.94 1089.08,-1334.94 1091.03,-1336.56 1091.03,-1336.56 1091.49,-1336.94 1092.35,-1337.74 1092.77,-1338.16 1092.77,-1338.16 1094.27,-1339.7 1094.27,-1339.7 1094.69,-1340.12 1095.46,-1341.01 1095.82,-1341.48 1095.82,-1341.48 1096.93,-1342.92 1096.93,-1342.92 1097.3,-1343.38 1097.95,-1344.36 1098.25,-1344.88 1098.25,-1344.88 1099.02,-1346.21 1099.02,-1346.21 1099.32,-1346.72 1099.83,-1347.78 1100.05,-1348.33 1100.05,-1348.33 1100.55,-1349.58 1100.55,-1349.58 1100.76,-1350.13 1101.11,-1351.25 1101.24,-1351.83 1101.24,-1351.83 1101.51,-1353.02 1101.51,-1353.02 1101.64,-1353.6 1101.8,-1354.76 1101.84,-1355.35 1101.84,-1355.35 1101.91,-1356.54 1101.91,-1356.54 1101.94,-1357.13 1101.92,-1358.3 1101.86,-1358.89 1101.86,-1358.89 1101.74,-1360.12 1101.74,-1360.12 1101.69,-1360.7 1101.49,-1361.87 1101.34,-1362.44 1101.34,-1362.44 1101.02,-1363.75 1101.02,-1363.75 1100.88,-1364.32 1100.52,-1365.44 1100.31,-1366 1100.31,-1366 1099.75,-1367.41 1099.75,-1367.41 1099.54,-1367.96 1099.05,-1369.03 1098.77,-1369.55 1098.77,-1369.55 1097.96,-1371.09 1097.96,-1371.09 1097.68,-1371.61 1097.08,-1372.62 1096.75,-1373.12 1096.75,-1373.12 1095.66,-1374.76 1095.66,-1374.76 1095.33,-1375.25 1094.63,-1376.21 1094.27,-1376.67 1094.27,-1376.67 1092.87,-1378.42 1092.87,-1378.42 1092.5,-1378.89 1091.74,-1379.78 1091.33,-1380.22 1091.33,-1380.22 1089.64,-1382.06 1089.64,-1382.06 1089.24,-1382.49 1088.41,-1383.33 1087.98,-1383.74 1087.98,-1383.74 1085.97,-1385.65 1085.97,-1385.65 1085.54,-1386.06 1084.67,-1386.85 1084.22,-1387.23 1084.22,-1387.23 1081.91,-1389.2 1081.91,-1389.2 1081.46,-1389.58 1080.54,-1390.32 1080.07,-1390.69 1080.07,-1390.69 1077.47,-1392.69 1077.47,-1392.69 1077.01,-1393.05 1076.05,-1393.75 1075.57,-1394.09 1075.57,-1394.09 1072.69,-1396.11 1072.69,-1396.11 1072.21,-1396.45 1071.23,-1397.11 1070.73,-1397.43 1070.73,-1397.43 1067.59,-1399.46 1067.59,-1399.46 1067.1,-1399.78 1066.09,-1400.4 1065.58,-1400.7 1065.58,-1400.7 1062.2,-1402.72 1062.2,-1402.72 1061.69,-1403.02 1060.67,-1403.61 1060.15,-1403.89 1060.15,-1403.89 1056.54,-1405.89 1056.54,-1405.89 1056.02,-1406.17 1054.97,-1406.73 1054.45,-1407 1054.45,-1407 1050.63,-1408.96 1050.63,-1408.96 1050.1,-1409.23 1049.04,-1409.75 1048.51,-1410 1048.51,-1410 1044.5,-1411.92 1044.5,-1411.92 1043.96,-1412.17 1042.89,-1412.66 1042.35,-1412.9 1042.35,-1412.9 1038.17,-1414.76 1038.17,-1414.76 1037.63,-1415 1036.54,-1415.46 1035.99,-1415.69 1035.99,-1415.69 1031.66,-1417.48 1031.66,-1417.48 1031.11,-1417.7 1030.01,-1418.14 1029.46,-1418.35 1029.46,-1418.35 1024.99,-1420.07 1024.99,-1420.07 1024.44,-1420.28 1023.33,-1420.69 1022.77,-1420.89 1022.77,-1420.89 1018.18,-1422.52 1018.18,-1422.52 1017.62,-1422.72 1016.51,-1423.1 1015.94,-1423.28 1015.94,-1423.28 1011.25,-1424.82 1011.25,-1424.82 1010.69,-1425.01 1009.56,-1425.36 1008.99,-1425.53 1008.99,-1425.53 1004.21,-1426.98 1004.21,-1426.98 1003.64,-1427.15 1002.51,-1427.48 1001.94,-1427.64 1001.94,-1427.64 997.075,-1428.98 997.075,-1428.98 996.505,-1429.14 995.361,-1429.44 994.787,-1429.58 994.787,-1429.58 989.861,-1430.82 989.861,-1430.82 989.287,-1430.96 988.137,-1431.23 987.56,-1431.36 987.56,-1431.36 982.579,-1432.49 982.579,-1432.49 982.002,-1432.62 980.846,-1432.86 980.266,-1432.98 980.266,-1432.98 975.24,-1433.99 975.24,-1433.99 974.66,-1434.1 973.498,-1434.32 972.915,-1434.42 972.915,-1434.42 967.853,-1435.31 967.853,-1435.31 967.271,-1435.42 966.103,-1435.61 965.519,-1435.69 965.519,-1435.69 960.427,-1436.46 960.427,-1436.46 959.842,-1436.55 958.67,-1436.71 958.084,-1436.78 958.084,-1436.78 952.969,-1437.43 952.969,-1437.43 952.382,-1437.5 951.207,-1437.63 950.618,-1437.69 950.618,-1437.69 945.486,-1438.21 945.486,-1438.21 944.897,-1438.27 943.719,-1438.37 943.13,-1438.42 943.13,-1438.42 937.984,-1438.8 937.984,-1438.8 937.394,-1438.85 936.214,-1438.92 935.623,-1438.95 935.623,-1438.95 930.469,-1439.21 930.469,-1439.21 929.878,-1439.24 928.696,-1439.29 928.105,-1439.3 928.105,-1439.3 922.946,-1439.43 922.946,-1439.43 922.355,-1439.45 921.172,-1439.46 920.581,-1439.46 920.581,-1439.46 915.419,-1439.46 915.419,-1439.46 914.828,-1439.46 913.645,-1439.45 913.054,-1439.43 913.054,-1439.43 907.895,-1439.3 907.895,-1439.3 907.304,-1439.29 906.122,-1439.24 905.531,-1439.21 905.531,-1439.21 900.377,-1438.95 900.377,-1438.95 899.786,-1438.92 898.606,-1438.85 898.016,-1438.8 898.016,-1438.8 892.87,-1438.42 892.87,-1438.42 892.281,-1438.37 891.103,-1438.27 890.514,-1438.21 890.514,-1438.21 885.382,-1437.69 885.382,-1437.69 884.793,-1437.63 883.618,-1437.5 883.031,-1437.43 883.031,-1437.43 877.916,-1436.78 877.916,-1436.78 877.33,-1436.71 876.158,-1436.55 875.573,-1436.46 875.573,-1436.46 870.481,-1435.69 870.481,-1435.69 869.897,-1435.61 868.729,-1435.42 868.147,-1435.31 868.147,-1435.31 863.085,-1434.42 863.085,-1434.42 862.502,-1434.32 861.34,-1434.1 860.76,-1433.99 860.76,-1433.99 855.734,-1432.98 855.734,-1432.98 855.154,-1432.86 853.998,-1432.62 853.421,-1432.49 853.421,-1432.49 848.44,-1431.36 848.44,-1431.36 847.863,-1431.23 846.713,-1430.96 846.139,-1430.82 846.139,-1430.82 841.213,-1429.58 841.213,-1429.58 840.639,-1429.44 839.495,-1429.14 838.925,-1428.98 838.925,-1428.98 834.064,-1427.64 834.064,-1427.64 833.494,-1427.48 832.358,-1427.15 831.792,-1426.98 831.792,-1426.98 827.007,-1425.53 827.007,-1425.53 826.441,-1425.36 825.313,-1425.01 824.751,-1424.82 824.751,-1424.82 820.057,-1423.28 820.057,-1423.28 819.495,-1423.1 818.376,-1422.72 817.819,-1422.52 817.819,-1422.52 813.228,-1420.89 813.228,-1420.89 812.671,-1420.69 811.562,-1420.28 811.01,-1420.07 811.01,-1420.07 806.539,-1418.35 806.539,-1418.35 805.987,-1418.14 804.888,-1417.7 804.341,-1417.48 804.341,-1417.48 800.007,-1415.69 800.007,-1415.69 799.46,-1415.46 798.373,-1415 797.832,-1414.76 797.832,-1414.76 793.651,-1412.9 793.651,-1412.9 793.11,-1412.66 792.036,-1412.17 791.502,-1411.92 791.502,-1411.92 787.492,-1410 787.492,-1410 786.958,-1409.75 785.898,-1409.23 785.372,-1408.96 785.372,-1408.96 781.552,-1407 781.552,-1407 781.025,-1406.73 779.981,-1406.17 779.464,-1405.89 779.464,-1405.89 775.852,-1403.89 775.852,-1403.89 775.334,-1403.61 774.308,-1403.02 773.8,-1402.72 773.8,-1402.72 770.416,-1400.7 770.416,-1400.7 769.908,-1400.4 768.903,-1399.78 768.406,-1399.46 768.406,-1399.46 765.267,-1397.43 765.267,-1397.43 764.771,-1397.11 763.79,-1396.45 763.306,-1396.11 763.306,-1396.11 760.43,-1394.09 760.43,-1394.09 759.946,-1393.75 758.994,-1393.05 758.525,-1392.69 758.525,-1392.69 755.928,-1390.69 755.928,-1390.69 755.459,-1390.32 754.54,-1389.58 754.09,-1389.2 754.09,-1389.2 751.784,-1387.23 751.784,-1387.23 751.334,-1386.85 750.455,-1386.06 750.027,-1385.65 750.027,-1385.65 748.022,-1383.74 748.022,-1383.74 747.594,-1383.33 746.765,-1382.49 746.364,-1382.06 746.364,-1382.06 744.666,-1380.22 744.666,-1380.22 744.264,-1379.78 743.495,-1378.89 743.127,-1378.42 743.127,-1378.42 741.735,-1376.67 741.735,-1376.67 741.367,-1376.21 740.671,-1375.25 740.344,-1374.76 740.344,-1374.76 739.25,-1373.12 739.25,-1373.12 738.923,-1372.62 738.318,-1371.61 738.041,-1371.09 738.041,-1371.09 737.23,-1369.55 737.23,-1369.55 736.953,-1369.03 736.461,-1367.96 736.245,-1367.41 736.245,-1367.41 735.692,-1366 735.692,-1366 735.477,-1365.44 735.12,-1364.32 734.978,-1363.75 734.978,-1363.75 734.655,-1362.44 734.655,-1362.44 734.513,-1361.87 734.314,-1360.7 734.257,-1360.12 734.257,-1360.12 734.138,-1358.89 734.138,-1358.89 734.081,-1358.3 734.059,-1357.13 734.094,-1356.54 734.094,-1356.54 734.164,-1355.35 734.164,-1355.35 734.199,-1354.76 734.364,-1353.6 734.493,-1353.02 734.493,-1353.02 734.759,-1351.83 734.759,-1351.83 734.888,-1351.25 735.235,-1350.13 735.453,-1349.58 735.453,-1349.58 735.947,-1348.33 735.947,-1348.33 736.165,-1347.78 736.68,-1346.72 736.976,-1346.21 736.976,-1346.21 737.749,-1344.88 737.749,-1344.88 738.046,-1344.36 738.704,-1343.38 739.066,-1342.92 739.066,-1342.92 740.177,-1341.48 740.177,-1341.48 740.538,-1341.01 741.314,-1340.12 741.728,-1339.7 741.728,-1339.7 743.233,-1338.16 743.233,-1338.16 743.646,-1337.74 744.515,-1336.94 744.969,-1336.56 744.969,-1336.56 746.915,-1334.94 746.915,-1334.94 747.369,-1334.56 748.309,-1333.84 748.794,-1333.51 748.794,-1333.51 751.217,-1331.82 751.217,-1331.82 751.702,-1331.48 752.697,-1330.84 753.206,-1330.54 753.206,-1330.54 756.128,-1328.82 756.128,-1328.82 756.638,-1328.52 757.674,-1327.95 758.201,-1327.68 758.201,-1327.68 761.638,-1325.94 761.638,-1325.94 762.165,-1325.67 763.234,-1325.16 763.775,-1324.93 763.775,-1324.93 767.73,-1323.19 767.73,-1323.19 768.271,-1322.95 769.364,-1322.5 769.917,-1322.29 769.917,-1322.29 774.387,-1320.57 774.387,-1320.57 774.939,-1320.36 776.052,-1319.96 776.613,-1319.77 776.613,-1319.77 781.591,-1318.1 781.591,-1318.1 782.151,-1317.92 783.279,-1317.56 783.847,-1317.39 783.847,-1317.39 789.317,-1315.78 789.317,-1315.78 789.885,-1315.62 791.025,-1315.3 791.597,-1315.15 791.597,-1315.15 797.542,-1313.62 797.542,-1313.62 798.115,-1313.47 799.264,-1313.19 799.841,-1313.06 799.841,-1313.06 806.236,-1311.61 806.236,-1311.61 806.813,-1311.48 807.97,-1311.23 808.55,-1311.12 808.55,-1311.12 815.37,-1309.77 815.37,-1309.77 815.95,-1309.65 817.113,-1309.44 817.696,-1309.34 817.696,-1309.34 824.909,-1308.09 824.909,-1308.09 825.492,-1307.99 826.659,-1307.81 827.244,-1307.72 827.244,-1307.72 834.818,-1306.59 834.818,-1306.59 835.403,-1306.51 836.575,-1306.35 837.162,-1306.27 837.162,-1306.27 845.06,-1305.27 845.06,-1305.27 845.646,-1305.2 846.821,-1305.06 847.409,-1305 847.409,-1305 855.593,-1304.13 855.593,-1304.13 856.181,-1304.07 857.359,-1303.95 857.948,-1303.9 857.948,-1303.9 866.378,-1303.17 866.378,-1303.17 866.967,-1303.12 868.146,-1303.03 868.736,-1302.99 868.736,-1302.99 877.369,-1302.39 877.369,-1302.39 877.959,-1302.35 879.139,-1302.28 879.73,-1302.25 879.73,-1302.25 888.523,-1301.81 888.523,-1301.81 889.113,-1301.78 890.295,-1301.73 890.886,-1301.71 890.886,-1301.71 899.793,-1301.41 899.793,-1301.41 900.384,-1301.39 901.567,-1301.36 902.158,-1301.35 902.158,-1301.35 911.135,-1301.2 911.135,-1301.2 911.726,-1301.19 912.909,-1301.18 913.5,-1301.18 913.5,-1301.18 922.5,-1301.18 922.5,-1301.18 923.091,-1301.18 924.274,-1301.19 924.865,-1301.2 924.865,-1301.2 933.842,-1301.35 933.842,-1301.35 934.433,-1301.36 935.616,-1301.39 936.207,-1301.41"/>
<text text-anchor="start" x="803.916" y="-1404.12" font-family="Times,serif" font-size="14.00">You are probably:</text>
<text text-anchor="start" x="803.916" y="-1389.12" font-family="Times,serif" font-size="14.00">*sending a social networking invitation</text>
<text text-anchor="start" x="803.916" y="-1374.12" font-family="Times,serif" font-size="14.00">*sending an event scheduler poll</text>
<text text-anchor="start" x="803.916" y="-1359.12" font-family="Times,serif" font-size="14.00">*sending a greeting card</text>
<text text-anchor="start" x="803.916" y="-1344.12" font-family="Times,serif" font-size="14.00">*or feeding his address to an information</text>
<text text-anchor="end" x="1032.08" y="-1329.12" font-family="Times,serif" font-size="14.00"> harvesting system of some kind</text>
</a>
</g>
</g>
<!-- directsend_br&#45;&gt;sharing -->
<g id="edge2" class="edge"><title>directsend_br&#45;&gt;sharing</title>
<path fill="none" stroke="black" d="M786.214,-1506.23C805.971,-1486.01 828.962,-1462.47 850.157,-1440.77"/>
<polygon fill="black" stroke="black" points="852.785,-1443.09 857.269,-1433.49 847.778,-1438.2 852.785,-1443.09"/>
<text text-anchor="middle" x="841.5" y="-1461.44" font-family="Times,serif" font-size="14.00">No</text>
</g>
<!-- crypto_mua_br&#45;&gt;muanote -->
<g id="edge10" class="edge"><title>crypto_mua_br&#45;&gt;muanote</title>
<path fill="none" stroke="black" stroke-dasharray="1,5" d="M409.231,-1180.65C398.378,-1162.34 384.314,-1138.62 370.341,-1115.05"/>
</g>
<!-- webmail_br -->
<g id="node14" class="node"><title>webmail_br</title>
<g id="a_node14"><a xlink:title="These webmail services are relatively safe compared to other webmail services, but still 2nd to using a proper mail client">
<path fill="wheat" stroke="black" d="M254.121,-754.303C254.121,-754.303 11.8794,-719.697 11.8794,-719.697 5.9397,-718.849 5.9397,-717.151 11.8794,-716.303 11.8794,-716.303 254.121,-681.697 254.121,-681.697 260.06,-680.849 271.94,-680.849 277.879,-681.697 277.879,-681.697 520.121,-716.303 520.121,-716.303 526.06,-717.151 526.06,-718.849 520.121,-719.697 520.121,-719.697 277.879,-754.303 277.879,-754.303 271.94,-755.151 260.06,-755.151 254.121,-754.303"/>
<text text-anchor="start" x="205" y="-721.8" font-family="Times,serif" font-size="14.00">Are you sending from</text>
<text text-anchor="start" x="141" y="-706.8" font-family="Times,serif" font-size="14.00">a hushmail, protonmail, or tutanota account?</text>
</a>
</g>
</g>
<!-- crypto_mua_br&#45;&gt;webmail_br -->
<g id="edge9" class="edge"><title>crypto_mua_br&#45;&gt;webmail_br</title>
<path fill="none" stroke="black" d="M432.623,-1177.36C436.862,-1120.92 439.82,-1010.13 409,-923 386.646,-859.808 338.951,-798.363 304.788,-759.71"/>
<polygon fill="black" stroke="black" points="306.996,-756.929 297.718,-751.815 301.782,-761.599 306.996,-756.929"/>
<text text-anchor="middle" x="410.5" y="-893.8" font-family="Times,serif" font-size="14.00">No</text>
</g>
<!-- reply_br -->
<g id="node15" class="node"><title>reply_br</title>
<g id="a_node15"><a xlink:title="If you&#39;ll need a reply, then Justin will need your key so he can reply securely.">
<path fill="wheat" stroke="black" d="M785.118,-1035.32C785.118,-1035.32 681.356,-1020.68 681.356,-1020.68 675.415,-1019.84 675.415,-1018.16 681.356,-1017.32 681.356,-1017.32 785.118,-1002.68 785.118,-1002.68 791.059,-1001.84 802.941,-1001.84 808.882,-1002.68 808.882,-1002.68 912.644,-1017.32 912.644,-1017.32 918.585,-1018.16 918.585,-1019.84 912.644,-1020.68 912.644,-1020.68 808.882,-1035.32 808.882,-1035.32 802.941,-1036.16 791.059,-1036.16 785.118,-1035.32"/>
<text text-anchor="middle" x="797" y="-1015.3" font-family="Times,serif" font-size="14.00">Will you need a reply?</text>
</a>
</g>
</g>
<!-- crypto_mua_br&#45;&gt;reply_br -->
<g id="edge8" class="edge"><title>crypto_mua_br&#45;&gt;reply_br</title>
<path fill="none" stroke="green" d="M480.169,-1187.03C556.216,-1146.94 697.082,-1072.67 762.256,-1038.32"/>
<polygon fill="green" stroke="green" points="764.092,-1041.3 771.306,-1033.55 760.827,-1035.11 764.092,-1041.3"/>
<text text-anchor="middle" x="591.5" y="-1136.8" font-family="Times,serif" font-size="14.00" fill="green">Yes</text>
</g>
<!-- attachment_br -->
<g id="node11" class="node"><title>attachment_br</title>
<g id="a_node11"><a xlink:title="If yes, you won&#39;t like the next node.">
<path fill="wheat" stroke="black" d="M239.797,-613.7C239.797,-613.7 163.203,-584.3 163.203,-584.3 157.602,-582.15 157.602,-577.85 163.203,-575.7 163.203,-575.7 239.797,-546.3 239.797,-546.3 245.398,-544.15 256.602,-544.15 262.203,-546.3 262.203,-546.3 338.797,-575.7 338.797,-575.7 344.398,-577.85 344.398,-582.15 338.797,-584.3 338.797,-584.3 262.203,-613.7 262.203,-613.7 256.602,-615.85 245.398,-615.85 239.797,-613.7"/>
<text text-anchor="start" x="209.5" y="-583.8" font-family="Times,serif" font-size="14.00">Do you need to</text>
<text text-anchor="start" x="215.5" y="-568.8" font-family="Times,serif" font-size="14.00">attach a file?</text>
</a>
</g>
</g>
<!-- keybase -->
<g id="node25" class="node"><title>keybase</title>
<g id="a_node25"><a xlink:href="https://keybase.io/encrypt#alchemistanaut" xlink:title="This is quite simple, and you can use your usual mail client or webmail service without any changes. &#160;If you want a reply, Justin will likely respond with a PDF that can be opened using whatever password you supply. &#160;Limitation: there is no way to send Justin a file attachment using this keybase mechanism.">
<path fill="lavenderblush" stroke="black" d="M410,-486C410,-486 92,-486 92,-486 86,-486 80,-480 80,-474 80,-474 80,-430 80,-430 80,-424 86,-418 92,-418 92,-418 410,-418 410,-418 416,-418 422,-424 422,-430 422,-430 422,-474 422,-474 422,-480 416,-486 410,-486"/>
<text text-anchor="start" x="88" y="-470.8" font-family="Times,serif" font-size="14.00">Click here, or go to keybase.io/encrypt#alchemistanaut,</text>
<text text-anchor="start" x="88" y="-455.8" font-family="Times,serif" font-size="14.00">write your message, click &#39;encrypt&#39;, copy&#45;paste the resulting</text>
<text text-anchor="start" x="88" y="-440.8" font-family="Times,serif" font-size="14.00">text into a normal msg. (if you need a reply, include a</text>
<text text-anchor="end" x="414" y="-425.8" font-family="Times,serif" font-size="14.00">passphrase of your choosing in the msg and remember it)</text>
</a>
</g>
</g>
<!-- attachment_br&#45;&gt;keybase -->
<g id="edge25" class="edge"><title>attachment_br&#45;&gt;keybase</title>
<path fill="none" stroke="black" d="M251,-541.877C251,-527.486 251,-510.914 251,-496.008"/>
<polygon fill="black" stroke="black" points="254.5,-496.002 251,-486.002 247.5,-496.002 254.5,-496.002"/>
<text text-anchor="middle" x="259.5" y="-512.8" font-family="Times,serif" font-size="14.00">No</text>
</g>
<!-- screwed -->
<g id="node26" class="node"><title>screwed</title>
<g id="a_node26"><a xlink:title="You might want to find a different path through the graph.">
<polygon fill="darksalmon" stroke="black" points="101,-175 3,-175 3,-139 101,-139 101,-175"/>
<polyline fill="none" stroke="black" points="15,-175 3,-163 "/>
<polyline fill="none" stroke="black" points="3,-151 15,-139 "/>
<polyline fill="none" stroke="black" points="89,-139 101,-151 "/>
<polyline fill="none" stroke="black" points="101,-163 89,-175 "/>
<text text-anchor="start" x="11" y="-153.3" font-family="Times,serif" font-size="14.00">you&#39;re screwed</text>
</a>
</g>
</g>
<!-- attachment_br&#45;&gt;screwed -->
<g id="edge26" class="edge"><title>attachment_br&#45;&gt;screwed</title>
<g id="a_edge26"><a xlink:title="find a different path">
<path fill="none" stroke="black" d="M188.902,-565.761C148.163,-553.591 97.6648,-531.125 71,-491 6.90236,-394.547 31.3576,-245.565 45.1263,-184.993"/>
<polygon fill="black" stroke="black" points="48.5778,-185.605 47.4693,-175.069 41.7651,-183.997 48.5778,-185.605"/>
</a>
</g>
<text text-anchor="middle" x="45.5" y="-383.8" font-family="Times,serif" font-size="14.00">Yes</text>
</g>
<!-- problem_br -->
<g id="node12" class="node"><title>problem_br</title>
<g id="a_node12"><a xlink:title="Secure e&#45;mail can be complicated, but Justin will support you.">
<path fill="wheat" stroke="black" d="M1082.12,-173.34C1082.12,-173.34 977.02,-158.66 977.02,-158.66 971.078,-157.83 971.078,-156.17 977.02,-155.34 977.02,-155.34 1082.12,-140.66 1082.12,-140.66 1088.06,-139.83 1099.94,-139.83 1105.88,-140.66 1105.88,-140.66 1210.98,-155.34 1210.98,-155.34 1216.92,-156.17 1216.92,-157.83 1210.98,-158.66 1210.98,-158.66 1105.88,-173.34 1105.88,-173.34 1099.94,-174.17 1088.06,-174.17 1082.12,-173.34"/>
<text text-anchor="middle" x="1094" y="-153.3" font-family="Times,serif" font-size="14.00">Questions? Problems?</text>
</a>
</g>
</g>
<!-- get_support -->
<g id="node27" class="node"><title>get_support</title>
<g id="a_node27"><a xlink:href="https://github.com/alchemistanaut/contact/issues" xlink:title="Clicking will bring you to the github issues page, where you can describe your issue. &#160;Note that you&#39;ll need a github account to create an issue, and your entry will be publicly viewable. &#160;Alternatively, you can e&#45;mail support questions to the address herein, in the clear if needed.">
<path fill="lavenderblush" stroke="black" d="M1154,-101C1154,-101 1034,-101 1034,-101 1028,-101 1022,-95 1022,-89 1022,-89 1022,-12 1022,-12 1022,-6 1028,-0 1034,-0 1034,-0 1154,-0 1154,-0 1160,-0 1166,-6 1166,-12 1166,-12 1166,-89 1166,-89 1166,-95 1160,-101 1154,-101"/>
<image xlink:href="https://alchemistanaut.github.io/images/node_item_suprt_ea.png" width="144px" height="48px" preserveAspectRatio="xMinYMin meet" x="1022" y="-74.5"/>
<text text-anchor="start" x="1030" y="-89.8" font-family="Times,serif" font-size="14.00">File a github issue by</text>
<text text-anchor="start" x="1030" y="-74.8" font-family="Times,serif" font-size="14.00">clicking this node, or</text>
<text text-anchor="start" x="1030" y="-59.8" font-family="Times,serif" font-size="14.00">E&#45;mail Justin at:</text>
</a>
</g>
</g>
<!-- problem_br&#45;&gt;get_support -->
<g id="edge32" class="edge"><title>problem_br&#45;&gt;get_support</title>
<path fill="none" stroke="black" d="M1094,-138.744C1094,-131.005 1094,-121.37 1094,-111.355"/>
<polygon fill="black" stroke="black" points="1097.5,-111.268 1094,-101.268 1090.5,-111.268 1097.5,-111.268"/>
</g>
<!-- firsttime_br -->
<g id="node13" class="node"><title>firsttime_br</title>
<g id="a_node13"><a xlink:title="You&#39;ll need to have Justin&#39;s key before sending him a message. &#160;Once you have it, it&#39;s good until it expires (few years generally).">
<path fill="wheat" stroke="black" d="M1139.15,-754.123C1139.15,-754.123 922.852,-719.877 922.852,-719.877 916.926,-718.938 916.926,-717.062 922.852,-716.123 922.852,-716.123 1139.15,-681.877 1139.15,-681.877 1145.07,-680.938 1156.93,-680.938 1162.85,-681.877 1162.85,-681.877 1379.15,-716.123 1379.15,-716.123 1385.07,-717.062 1385.07,-718.938 1379.15,-719.877 1379.15,-719.877 1162.85,-754.123 1162.85,-754.123 1156.93,-755.062 1145.07,-755.062 1139.15,-754.123"/>
<text text-anchor="start" x="1058.5" y="-721.8" font-family="Times,serif" font-size="14.00">Are you e&#45;mailing Justin securely</text>
<text text-anchor="start" x="1039" y="-706.8" font-family="Times,serif" font-size="14.00">for the first time, or has his key expired?</text>
</a>
</g>
</g>
<!-- firsttime_br&#45;&gt;crypto_ea -->
<g id="edge16" class="edge"><title>firsttime_br&#45;&gt;crypto_ea</title>
<path fill="none" stroke="black" d="M1117.04,-685.103C1075.36,-644.082 1005.39,-568.809 966,-491 947.338,-454.139 934.991,-410.022 927.033,-372.39"/>
<polygon fill="black" stroke="black" points="930.436,-371.562 925.003,-362.467 923.578,-372.965 930.436,-371.562"/>
<text text-anchor="middle" x="1027" y="-512.8" font-family="Times,serif" font-size="14.00">No (using PGP)</text>
</g>
<!-- keyimportchoice_br -->
<g id="node16" class="node"><title>keyimportchoice_br</title>
<g id="a_node16"><a xlink:title="You can instantly get Justin&#39;s key from the PDF container. &#160;Or you can e&#45;mail him and wait. &#160;Whatever you find more convenient.">
<path fill="wheat" stroke="black" d="M1139.69,-593.979C1139.69,-593.979 1111.7,-584.021 1111.7,-584.021 1106.05,-582.011 1106.05,-577.989 1111.7,-575.979 1111.7,-575.979 1139.69,-566.021 1139.69,-566.021 1145.35,-564.011 1156.65,-564.011 1162.31,-566.021 1162.31,-566.021 1190.3,-575.979 1190.3,-575.979 1195.95,-577.989 1195.95,-582.011 1190.3,-584.021 1190.3,-584.021 1162.31,-593.979 1162.31,-593.979 1156.65,-595.989 1145.35,-595.989 1139.69,-593.979"/>
<text text-anchor="middle" x="1151" y="-576.3" font-family="Times,serif" font-size="14.00">choose</text>
</a>
</g>
</g>
<!-- firsttime_br&#45;&gt;keyimportchoice_br -->
<g id="edge15" class="edge"><title>firsttime_br&#45;&gt;keyimportchoice_br</title>
<g id="a_edge15"><a xlink:title="(using S/MIME or PGP)">
<path fill="none" stroke="black" d="M1151,-679.837C1151,-657.305 1151,-629.04 1151,-608.515"/>
<polygon fill="black" stroke="black" points="1154.5,-608.276 1151,-598.276 1147.5,-608.276 1154.5,-608.276"/>
</a>
</g>
<text text-anchor="middle" x="1161.5" y="-639.8" font-family="Times,serif" font-size="14.00">Yes</text>
</g>
<!-- ea_forced_ea_short -->
<g id="node21" class="node"><title>ea_forced_ea_short</title>
<g id="a_node21"><a xlink:title="If you don&#39;t know the address associated to the key, it will generally be the address from which Justin sent you the key. &#160;If you took the key from the PDF file, then it&#39;s evident from that file. &#160;PGP users: if you imported Justin&#39;s key from a PGP key server, then you should look at the table of addresses and select the best one. &#160;But note that you may have to configure your mail client to map key to address because Justin&#39;s published PGP keys have a deliberately unusable address.">
<path fill="lavenderblush" stroke="black" d="M1313,-306.5C1313,-306.5 1175,-306.5 1175,-306.5 1169,-306.5 1163,-300.5 1163,-294.5 1163,-294.5 1163,-280.5 1163,-280.5 1163,-274.5 1169,-268.5 1175,-268.5 1175,-268.5 1313,-268.5 1313,-268.5 1319,-268.5 1325,-274.5 1325,-280.5 1325,-280.5 1325,-294.5 1325,-294.5 1325,-300.5 1319,-306.5 1313,-306.5"/>
<text text-anchor="start" x="1171" y="-291.3" font-family="Times,serif" font-size="14.00">Use the address associated</text>
<text text-anchor="middle" x="1244" y="-276.3" font-family="Times,serif" font-size="14.00">with the key</text>
</a>
</g>
</g>
<!-- firsttime_br&#45;&gt;ea_forced_ea_short -->
<g id="edge17" class="edge"><title>firsttime_br&#45;&gt;ea_forced_ea_short</title>
<path fill="none" stroke="black" d="M1176.31,-683.711C1206.51,-641.558 1255.05,-565.422 1272,-491 1286.03,-429.373 1266.99,-355.493 1254.1,-316.23"/>
<polygon fill="black" stroke="black" points="1257.35,-314.911 1250.82,-306.566 1250.72,-317.161 1257.35,-314.911"/>
<text text-anchor="middle" x="1321.5" y="-512.8" font-family="Times,serif" font-size="14.00">No (using S/MIME)</text>
</g>
<!-- webmail_br&#45;&gt;web_ea -->
<g id="edge13" class="edge"><title>webmail_br&#45;&gt;web_ea</title>
<path fill="none" stroke="black" d="M300.932,-684.753C341.862,-644.228 407.125,-570.314 431,-491 445.186,-443.871 448.061,-387.894 447.743,-346.75"/>
<polygon fill="black" stroke="black" points="451.241,-346.573 447.599,-336.624 444.242,-346.673 451.241,-346.573"/>
<text text-anchor="middle" x="435.5" y="-512.8" font-family="Times,serif" font-size="14.00">Yes</text>
</g>
<!-- webmail_br&#45;&gt;attachment_br -->
<g id="edge14" class="edge"><title>webmail_br&#45;&gt;attachment_br</title>
<path fill="none" stroke="black" d="M261.98,-680.554C260.152,-663.98 257.97,-644.191 256.034,-626.639"/>
<polygon fill="black" stroke="black" points="259.502,-626.161 254.927,-616.605 252.544,-626.928 259.502,-626.161"/>
<text text-anchor="middle" x="267.5" y="-639.8" font-family="Times,serif" font-size="14.00">No</text>
</g>
<!-- reply_br&#45;&gt;firsttime_br -->
<g id="edge11" class="edge"><title>reply_br&#45;&gt;firsttime_br</title>
<path fill="none" stroke="black" d="M814.555,-1003.17C867.63,-958.344 1027.58,-823.241 1106.28,-756.769"/>
<polygon fill="black" stroke="black" points="1108.72,-759.296 1114.1,-750.169 1104.2,-753.948 1108.72,-759.296"/>
<text text-anchor="middle" x="1056.5" y="-834.3" font-family="Times,serif" font-size="14.00">No</text>
</g>
<!-- gen_key -->
<g id="node20" class="node"><title>gen_key</title>
<g id="a_node20"><a xlink:title="You may have done this when first configuring your mail client, although it&#39;s not often part of the installation wizards (you most likely would have had to initiate the process).">
<path fill="lavenderblush" stroke="black" d="M897,-872C897,-872 697,-872 697,-872 691,-872 685,-866 685,-860 685,-860 685,-816 685,-816 685,-810 691,-804 697,-804 697,-804 897,-804 897,-804 903,-804 909,-810 909,-816 909,-816 909,-860 909,-860 909,-866 903,-872 897,-872"/>
<text text-anchor="middle" x="797" y="-856.8" font-family="Times,serif" font-size="14.00">(one time only)</text>
<text text-anchor="start" x="693" y="-841.8" font-family="Times,serif" font-size="14.00">Generate a key pair for yourself if you</text>
<text text-anchor="start" x="693" y="-826.8" font-family="Times,serif" font-size="14.00">have not already done so and ensure</text>
<text text-anchor="start" x="693" y="-811.8" font-family="Times,serif" font-size="14.00">the public key is accessible to Justin.</text>
</a>
</g>
</g>
<!-- reply_br&#45;&gt;gen_key -->
<g id="edge12" class="edge"><title>reply_br&#45;&gt;gen_key</title>
<path fill="none" stroke="green" d="M797,-1000.84C797,-973.802 797,-920.466 797,-882.414"/>
<polygon fill="green" stroke="green" points="800.5,-882.122 797,-872.122 793.5,-882.122 800.5,-882.122"/>
<text text-anchor="middle" x="807.5" y="-893.8" font-family="Times,serif" font-size="14.00" fill="green">Yes</text>
</g>
<!-- pdf_acquire_key -->
<g id="node22" class="node"><title>pdf_acquire_key</title>
<g id="a_node22"><a xlink:href="https://github.com/alchemistanaut/contact/releases/tag/v2017.1.0/pubkeys_aes.pdf" xlink:title="Clicking this will open a PDF container holding keys to choose from">
<path fill="lavenderblush" stroke="black" d="M1250.5,-491C1250.5,-491 1149.5,-491 1149.5,-491 1143.5,-491 1137.5,-485 1137.5,-479 1137.5,-479 1137.5,-425 1137.5,-425 1137.5,-419 1143.5,-413 1149.5,-413 1149.5,-413 1250.5,-413 1250.5,-413 1256.5,-413 1262.5,-419 1262.5,-425 1262.5,-425 1262.5,-479 1262.5,-479 1262.5,-485 1256.5,-491 1250.5,-491"/>
<text text-anchor="start" x="1145.5" y="-476.8" font-family="Times,serif" font-size="14.00">Import Justin&#39;s key.</text>
<text text-anchor="start" x="1145.5" y="-462.8" font-family="Times,serif" font-size="14.00">Click on this node</text>
<text text-anchor="start" x="1145.5" y="-448.8" font-family="Times,serif" font-size="14.00">and use password</text>
<text text-anchor="start" x="1145.5" y="-434.8" font-family="Courier,monospace" font-size="14.00">wildthing</text>
<text text-anchor="start" x="1145.5" y="-420.8" font-family="Times,serif" font-size="14.00">to open the PDF.</text>
</a>
</g>
</g>
<!-- keyimportchoice_br&#45;&gt;pdf_acquire_key -->
<g id="edge18" class="edge"><title>keyimportchoice_br&#45;&gt;pdf_acquire_key</title>
<path fill="none" stroke="black" d="M1156.81,-564.051C1162.89,-548.423 1172.75,-523.08 1181.51,-500.549"/>
<polygon fill="black" stroke="black" points="1184.82,-501.689 1185.18,-491.101 1178.3,-499.152 1184.82,-501.689"/>
</g>
<!-- acquire_by_email -->
<g id="node23" class="node"><title>acquire_by_email</title>
<g id="a_node23"><a xlink:title="Be sure to tell Justin whether you need a PGP key or an S/MIME certificate, or tell him your mail client. &#160;E&#45;mailing is probably easier than the self&#45;service PDF option, but obviously it&#39;s not instant.">
<path fill="lavenderblush" stroke="black" d="M1107,-473.5C1107,-473.5 987,-473.5 987,-473.5 981,-473.5 975,-467.5 975,-461.5 975,-461.5 975,-442.5 975,-442.5 975,-436.5 981,-430.5 987,-430.5 987,-430.5 1107,-430.5 1107,-430.5 1113,-430.5 1119,-436.5 1119,-442.5 1119,-442.5 1119,-461.5 1119,-461.5 1119,-467.5 1113,-473.5 1107,-473.5"/>
<image xlink:href="https://alchemistanaut.github.io/images/node_item_suprt_ea.png" width="144px" height="43px" preserveAspectRatio="xMinYMin meet" x="975" y="-473.5"/>
<text text-anchor="middle" x="1047" y="-462.3" font-family="Times,serif" font-size="14.00">Ask Justin for a key at:</text>
</a>
</g>
</g>
<!-- keyimportchoice_br&#45;&gt;acquire_by_email -->
<g id="edge19" class="edge"><title>keyimportchoice_br&#45;&gt;acquire_by_email</title>
<path fill="none" stroke="black" d="M1139.87,-565.516C1123.44,-545.609 1092.3,-507.884 1070.63,-481.632"/>
<polygon fill="black" stroke="black" points="1073.3,-479.37 1064.24,-473.886 1067.91,-483.826 1073.3,-479.37"/>
</g>
<!-- start -->
<g id="node17" class="node"><title>start</title>
<g id="a_node17"><a xlink:title="Keep calm, carry on..">
<polygon fill="lavenderblush" stroke="black" points="736,-1783.64 557,-1730.64 736,-1677.64 915,-1730.64 736,-1783.64"/>
<polyline fill="none" stroke="black" points="568.506,-1734.05 568.506,-1727.23 "/>
<polyline fill="none" stroke="black" points="724.494,-1681.05 747.506,-1681.05 "/>
<polyline fill="none" stroke="black" points="903.494,-1727.23 903.494,-1734.05 "/>
<polyline fill="none" stroke="black" points="747.506,-1780.23 724.494,-1780.23 "/>
<text text-anchor="start" x="654.5" y="-1741.94" font-family="Times,serif" font-size="14.00">Do you need to e&#45;mail Justin?</text>
<text text-anchor="start" x="672.5" y="-1726.94" font-family="Times,serif" font-size="14.00">(However unfortunate,</text>
<text text-anchor="start" x="668" y="-1711.94" font-family="Times,serif" font-size="14.00">you&#39;re in the right place)</text>
</a>
</g>
</g>
<!-- start&#45;&gt;directsend_br -->
<g id="edge1" class="edge"><title>start&#45;&gt;directsend_br</title>
<path fill="none" stroke="black" d="M736,-1677.25C736,-1664.58 736,-1650.76 736,-1637.21"/>
<polygon fill="black" stroke="black" points="739.5,-1636.91 736,-1626.91 732.5,-1636.91 739.5,-1636.91"/>
<text text-anchor="middle" x="746.5" y="-1648.44" font-family="Times,serif" font-size="14.00">Yes</text>
</g>
<!-- sharing_act -->
<g id="node19" class="node"><title>sharing_act</title>
<g id="a_node19"><a xlink:title="Exceptionally, if it&#39;s a key&#45;signing party then simply follow the path of a normal e&#45;mail.">
<path fill="lavenderblush" stroke="black" d="M873,-1264C873,-1264 663,-1264 663,-1264 657,-1264 651,-1258 651,-1252 651,-1252 651,-1178 651,-1178 651,-1172 657,-1166 663,-1166 663,-1166 873,-1166 873,-1166 879,-1166 885,-1172 885,-1178 885,-1178 885,-1252 885,-1252 885,-1258 879,-1264 873,-1264"/>
<text text-anchor="start" x="659" y="-1248.8" font-family="Times,serif" font-size="14.00">Justin has unique special&#45;purpose</text>
<text text-anchor="start" x="659" y="-1233.8" font-family="Times,serif" font-size="14.00">addresses for these types of use cases.</text>
<text text-anchor="start" x="659" y="-1218.8" font-family="Times,serif" font-size="14.00">Send him a normal e&#45;mail first</text>
<text text-anchor="start" x="659" y="-1203.8" font-family="Times,serif" font-size="14.00">to request a suitable (abusable) address.</text>
<text text-anchor="start" x="659" y="-1188.8" font-family="Times,serif" font-size="14.00">(if you are sharing his address with</text>
<text text-anchor="end" x="877" y="-1173.8" font-family="Times,serif" font-size="14.00">a human, share this diagram instead)</text>
</a>
</g>
</g>
<!-- sharing&#45;&gt;sharing_act -->
<g id="edge4" class="edge"><title>sharing&#45;&gt;sharing_act</title>
<path fill="none" stroke="black" d="M853.951,-1303.85C843.341,-1293.01 832.432,-1281.86 822.098,-1271.3"/>
<polygon fill="black" stroke="black" points="824.541,-1268.79 815.046,-1264.09 819.538,-1273.68 824.541,-1268.79"/>
</g>
<!-- sharing_act&#45;&gt;directsend_br -->
<g id="edge7" class="edge"><title>sharing_act&#45;&gt;directsend_br</title>
<path fill="none" stroke="black" d="M738.664,-1264.39C733.022,-1275.99 727.955,-1288.61 725,-1301 710.569,-1361.49 715.125,-1432.24 722.263,-1484.11"/>
<polygon fill="black" stroke="black" points="718.83,-1484.83 723.721,-1494.23 725.759,-1483.83 718.83,-1484.83"/>
</g>
<!-- gen_key&#45;&gt;pgpnote -->
<g id="edge22" class="edge"><title>gen_key&#45;&gt;pgpnote</title>
<path fill="none" stroke="black" stroke-dasharray="1,5" d="M746.381,-803.816C726.936,-791.069 704.436,-776.319 683.707,-762.73"/>
</g>
<!-- gen_key&#45;&gt;smimenote -->
<g id="edge21" class="edge"><title>gen_key&#45;&gt;smimenote</title>
<path fill="none" stroke="black" stroke-dasharray="1,5" d="M797,-803.816C797,-787.729 797,-768.452 797,-752.343"/>
</g>
<!-- gen_key&#45;&gt;firsttime_br -->
<g id="edge20" class="edge"><title>gen_key&#45;&gt;firsttime_br</title>
<path fill="none" stroke="green" d="M896.079,-803.974C949.499,-786.167 1014.75,-764.417 1065.86,-747.379"/>
<polygon fill="green" stroke="green" points="1067.18,-750.629 1075.56,-744.146 1064.97,-743.988 1067.18,-750.629"/>
</g>
<!-- ea_forced_ea_short&#45;&gt;celebrate -->
<g id="edge29" class="edge"><title>ea_forced_ea_short&#45;&gt;celebrate</title>
<path fill="none" stroke="black" d="M1227.24,-268.336C1210.42,-251.277 1182.91,-226.426 1154,-213 1075.66,-176.618 1043.91,-200.213 957.371,-176.032"/>
<polygon fill="black" stroke="black" points="958.268,-172.648 947.687,-173.194 956.299,-179.366 958.268,-172.648"/>
</g>
<!-- pdf_acquire_key&#45;&gt;ea_forced_ea_short -->
<g id="edge28" class="edge"><title>pdf_acquire_key&#45;&gt;ea_forced_ea_short</title>
<path fill="none" stroke="black" d="M1210.32,-412.901C1218.3,-383.419 1229.17,-343.258 1236.38,-316.637"/>
<polygon fill="black" stroke="black" points="1239.81,-317.375 1239.04,-306.808 1233.05,-315.545 1239.81,-317.375"/>
</g>
<!-- acquire_by_email&#45;&gt;ea_forced_ea_short -->
<g id="edge31" class="edge"><title>acquire_by_email&#45;&gt;ea_forced_ea_short</title>
<path fill="none" stroke="black" d="M1071.95,-430.419C1108.2,-400.52 1175.32,-345.154 1214.14,-313.129"/>
<polygon fill="black" stroke="black" points="1216.49,-315.73 1221.98,-306.667 1212.04,-310.33 1216.49,-315.73"/>
</g>
<!-- keybase&#45;&gt;crypto_ea -->
<g id="edge27" class="edge"><title>keybase&#45;&gt;crypto_ea</title>
<path fill="none" stroke="black" d="M422.127,-418.631C496.642,-403.638 585.053,-384.644 673.308,-362.139"/>
<polygon fill="black" stroke="black" points="674.415,-365.468 683.232,-359.593 672.676,-358.687 674.415,-365.468"/>
</g>
</g>
</svg>
